<?xml version="1.0" standalone="no"?>
<!DOCTYPE svg PUBLIC "-//W3C//DTD SVG 20010904//EN"
 "http://www.w3.org/TR/2001/REC-SVG-20010904/DTD/svg10.dtd">
<svg version="1.0" xmlns="http://www.w3.org/2000/svg"
 width="640.000000pt" height="640.000000pt" viewBox="0 0 640.000000 640.000000"
 preserveAspectRatio="xMidYMid meet">
<metadata>
Created by potrace 1.16, written by Peter Selinger 2001-2019
</metadata>
<g transform="translate(0.000000,640.000000) scale(0.100000,-0.100000)"
fill="#000000" stroke="none">
<path d="M1160 5220 c-130 -17 -251 -106 -308 -227 l-27 -58 0 -1795 0 -1795
31 -65 c56 -117 164 -200 290 -220 83 -14 4043 -13 4115 0 155 29 276 146 308
300 9 41 11 492 9 1810 l-3 1755 -23 58 c-50 124 -174 217 -315 238 -73 10
-3995 10 -4077 -1z m4082 -210 c21 -6 51 -22 68 -37 52 -43 60 -70 60 -198 l0
-115 -2170 0 -2170 0 0 115 c0 80 4 124 14 143 18 35 64 78 96 91 35 14 4052
15 4102 1z m128 -1870 l0 -1310 -2170 0 -2170 0 0 1310 0 1310 2170 0 2170 0
0 -1310z m0 -1633 c0 -109 -2 -124 -24 -161 -16 -27 -40 -49 -69 -64 l-44 -22
-2038 0 -2037 0 -40 22 c-22 13 -51 41 -64 64 -22 37 -24 52 -24 162 l0 121
2170 -1 2170 -1 0 -120z"/>
<path d="M2641 4100 c-20 -21 -32 -44 -35 -73 -24 -178 -154 -1711 -147 -1730
15 -39 49 -61 94 -62 38 0 102 37 647 374 333 205 617 386 633 402 32 34 36
81 9 120 -25 37 -1071 979 -1100 990 -41 16 -70 10 -101 -21z m567 -663 c205
-185 371 -340 370 -344 -1 -5 -202 -132 -447 -283 -391 -242 -446 -273 -449
-255 -2 12 22 295 53 630 30 334 55 612 55 618 0 6 10 1 23 -10 12 -11 190
-172 395 -356z"/>
</g>
</svg>
