<?xml version="1.0" standalone="no"?>
<!DOCTYPE svg PUBLIC "-//W3C//DTD SVG 20010904//EN"
 "http://www.w3.org/TR/2001/REC-SVG-20010904/DTD/svg10.dtd">
<svg version="1.0" xmlns="http://www.w3.org/2000/svg"
 width="640.000000pt" height="640.000000pt" viewBox="0 0 640.000000 640.000000"
 preserveAspectRatio="xMidYMid meet">
<metadata>
Created by potrace 1.16, written by Peter Selinger 2001-2019
</metadata>
<g transform="translate(0.000000,640.000000) scale(0.100000,-0.100000)"
fill="#000000" stroke="none">
<path d="M1160 5220 c-134 -17 -262 -115 -312 -237 l-23 -58 -3 -1755 c-2
-1318 0 -1769 9 -1810 33 -157 157 -274 315 -300 80 -13 4028 -13 4108 0 158
26 282 143 315 300 9 41 11 492 9 1810 l-3 1755 -23 58 c-51 126 -177 219
-321 238 -79 10 -3992 9 -4071 -1z m4097 -211 c34 -13 80 -55 99 -91 10 -19
14 -63 14 -143 l0 -115 -2170 0 -2170 0 0 115 c0 80 4 124 14 143 18 35 64 78
96 91 36 14 4079 15 4117 0z m113 -1869 l0 -1310 -2170 0 -2170 0 0 1310 0
1310 2170 0 2170 0 0 -1310z m0 -1633 c0 -109 -2 -124 -24 -161 -13 -23 -42
-51 -64 -64 l-40 -22 -2042 0 -2042 0 -40 22 c-22 13 -51 41 -64 64 -22 37
-24 52 -24 161 l0 121 2170 0 2170 0 0 -121z"/>
<path d="M3170 3760 c-327 -59 -701 -127 -830 -151 -129 -23 -245 -47 -258
-52 -40 -18 -64 -85 -46 -132 5 -12 566 -539 1036 -973 58 -54 103 -64 147
-33 44 32 683 1298 684 1355 0 53 -46 96 -101 95 -20 0 -305 -49 -632 -109z
m209 -610 l-243 -479 -55 52 c-31 29 -206 191 -388 361 -183 170 -333 312
-333 316 0 4 60 17 133 30 72 13 348 62 612 110 264 48 488 88 498 89 15 1
-35 -104 -224 -479z"/>
</g>
</svg>
