<?xml version="1.0" standalone="no"?>
<!DOCTYPE svg PUBLIC "-//W3C//DTD SVG 20010904//EN"
 "http://www.w3.org/TR/2001/REC-SVG-20010904/DTD/svg10.dtd">
<svg version="1.0" xmlns="http://www.w3.org/2000/svg"
 width="640.000000pt" height="640.000000pt" viewBox="0 0 640.000000 640.000000"
 preserveAspectRatio="xMidYMid meet">
<metadata>
Created by potrace 1.16, written by Peter Selinger 2001-2019
</metadata>
<g transform="translate(0.000000,640.000000) scale(0.100000,-0.100000)"
fill="#000000" stroke="none">
<path d="M1159 5220 c-127 -16 -252 -107 -306 -224 l-28 -61 -3 -1774 c-3
-1971 -7 -1832 64 -1938 43 -63 109 -115 183 -145 l56 -23 2030 -3 c1379 -2
2052 1 2098 8 161 25 282 140 316 300 9 41 11 492 9 1810 l-3 1755 -23 58
c-51 126 -177 219 -321 238 -79 10 -3992 9 -4072 -1z m4134 -233 c62 -47 77
-89 77 -217 l0 -110 -2170 0 -2170 0 0 115 c0 80 4 124 14 143 18 35 64 78 96
91 16 6 729 9 2071 8 l2046 -2 36 -28z m77 -1847 l0 -1310 -2170 0 -2170 0 0
1310 0 1310 2170 0 2170 0 0 -1310z m-77 -1516 l77 -7 0 -111 c0 -130 -12
-163 -78 -213 l-44 -33 -2045 0 -2045 0 -40 22 c-22 13 -51 41 -64 64 -22 37
-24 52 -24 162 l0 121 2093 0 c1150 0 2127 -2 2170 -5z"/>
<path d="M2595 4081 c-11 -5 -29 -19 -40 -31 -20 -22 -20 -38 -23 -899 -2
-646 1 -883 9 -904 7 -15 24 -34 40 -42 68 -35 51 -46 680 425 425 320 590
449 599 470 16 40 5 82 -33 117 -37 36 -1060 802 -1126 845 -46 29 -71 33
-106 19z m993 -941 c2 -4 -183 -146 -410 -315 -227 -170 -419 -312 -425 -318
-10 -7 -13 120 -13 631 l0 641 423 -315 c232 -174 423 -319 425 -324z"/>
</g>
</svg>
