<?xml version="1.0" standalone="no"?>
<!DOCTYPE svg PUBLIC "-//W3C//DTD SVG 20010904//EN"
 "http://www.w3.org/TR/2001/REC-SVG-20010904/DTD/svg10.dtd">
<svg version="1.0" xmlns="http://www.w3.org/2000/svg"
 width="640.000000pt" height="640.000000pt" viewBox="0 0 640.000000 640.000000"
 preserveAspectRatio="xMidYMid meet">
<metadata>
Created by potrace 1.16, written by Peter Selinger 2001-2019
</metadata>
<g transform="translate(0.000000,640.000000) scale(0.100000,-0.100000)"
fill="#000000" stroke="none">
<path d="M1160 5220 c-134 -17 -262 -115 -312 -237 l-23 -58 -3 -1755 c-2
-1318 0 -1769 9 -1810 32 -154 153 -271 308 -300 72 -13 4032 -14 4115 0 148
24 270 131 311 272 14 48 15 238 13 1829 l-3 1774 -27 58 c-59 125 -176 210
-317 228 -79 10 -3992 9 -4071 -1z m4097 -211 c34 -13 80 -55 99 -91 10 -19
14 -63 14 -143 l0 -115 -2170 0 -2170 0 0 115 c0 124 7 151 53 193 57 54 -54
51 2124 52 1405 0 2030 -3 2050 -11z m113 -1869 l0 -1310 -2170 0 -2170 0 0
1310 0 1310 2170 0 2170 0 0 -1310z m0 -1632 c0 -110 -2 -125 -24 -162 -13
-23 -42 -51 -64 -64 l-40 -22 -2049 2 -2050 3 -37 29 c-67 51 -76 75 -76 212
l0 121 2170 1 2170 1 0 -121z"/>
<path d="M2595 4081 c-11 -5 -29 -19 -40 -31 -20 -22 -20 -38 -23 -899 -2
-646 1 -883 9 -904 7 -15 24 -34 40 -42 68 -35 51 -46 680 425 425 320 590
449 599 470 16 40 5 82 -33 117 -37 36 -1060 802 -1126 845 -46 29 -71 33
-106 19z m993 -941 c2 -4 -183 -146 -410 -315 -227 -170 -419 -312 -425 -318
-10 -7 -13 120 -13 631 l0 641 423 -315 c232 -174 423 -319 425 -324z"/>
</g>
</svg>
