<?xml version="1.0" standalone="no"?>
<!DOCTYPE svg PUBLIC "-//W3C//DTD SVG 20010904//EN"
 "http://www.w3.org/TR/2001/REC-SVG-20010904/DTD/svg10.dtd">
<svg version="1.0" xmlns="http://www.w3.org/2000/svg"
 width="640.000000pt" height="640.000000pt" viewBox="0 0 640.000000 640.000000"
 preserveAspectRatio="xMidYMid meet">
<metadata>
Created by potrace 1.16, written by Peter Selinger 2001-2019
</metadata>
<g transform="translate(0.000000,640.000000) scale(0.100000,-0.100000)"
fill="#000000" stroke="none">
<path d="M1160 5220 c-134 -17 -262 -115 -312 -237 l-23 -58 -3 -1755 c-2
-1318 0 -1769 9 -1810 33 -157 157 -274 315 -300 80 -13 4028 -13 4108 0 158
26 282 143 315 300 9 41 11 492 9 1810 l-3 1755 -23 58 c-51 126 -177 219
-321 238 -79 10 -3992 9 -4071 -1z m4097 -211 c34 -13 80 -55 99 -91 10 -19
14 -63 14 -143 l0 -115 -2170 0 -2170 0 0 115 c0 80 4 124 14 143 18 35 64 78
96 91 36 14 4079 15 4117 0z m113 -1869 l0 -1310 -2170 0 -2170 0 0 1310 0
1310 2170 0 2170 0 0 -1310z m0 -1633 c0 -109 -2 -124 -24 -161 -13 -23 -42
-51 -64 -64 l-40 -22 -2042 0 -2042 0 -40 22 c-22 13 -51 41 -64 64 -22 37
-24 52 -24 162 l0 120 2170 0 2170 0 0 -121z"/>
<path d="M3439 4067 c-30 -18 -232 -148 -449 -288 -217 -140 -519 -335 -670
-431 -151 -97 -285 -186 -297 -198 -40 -37 -42 -94 -6 -139 26 -31 1386 -534
1423 -526 26 6 57 32 74 63 8 13 106 1348 106 1440 0 46 -4 58 -29 83 -40 40
-82 38 -152 -4z m-74 -828 c-20 -277 -37 -505 -38 -506 -3 -2 -997 364 -1003
369 -1 2 52 38 119 81 67 42 309 198 537 345 403 261 415 268 418 241 2 -15
-13 -254 -33 -530z"/>
</g>
</svg>
