<?xml version="1.0" standalone="no"?>
<!DOCTYPE svg PUBLIC "-//W3C//DTD SVG 20010904//EN"
 "http://www.w3.org/TR/2001/REC-SVG-20010904/DTD/svg10.dtd">
<svg version="1.0" xmlns="http://www.w3.org/2000/svg"
 width="640.000000pt" height="640.000000pt" viewBox="0 0 640.000000 640.000000"
 preserveAspectRatio="xMidYMid meet">
<metadata>
Created by potrace 1.16, written by Peter Selinger 2001-2019
</metadata>
<g transform="translate(0.000000,640.000000) scale(0.100000,-0.100000)"
fill="#000000" stroke="none">
<path d="M1154 5219 c-129 -16 -257 -116 -306 -237 l-23 -57 -3 -1755 c-2
-1318 0 -1769 9 -1810 16 -77 50 -139 103 -192 63 -61 129 -95 212 -108 47 -7
700 -10 2099 -8 l2030 3 52 21 c117 48 203 141 237 253 14 49 16 224 16 1805
0 1429 -3 1760 -14 1801 -41 156 -168 264 -334 286 -84 11 -3995 9 -4078 -2z
m4103 -210 c34 -13 80 -55 99 -91 10 -19 14 -63 14 -143 l0 -115 -2170 0
-2170 0 0 111 c0 119 10 157 55 199 55 52 -49 49 2122 50 1405 0 2030 -3 2050
-11z m113 -1869 l0 -1310 -2170 0 -2170 0 0 1310 0 1310 2170 0 2170 0 0
-1310z m0 -1632 c0 -110 -2 -125 -24 -162 -13 -23 -42 -51 -64 -64 l-40 -22
-2050 2 -2050 3 -39 31 c-62 49 -73 82 -73 211 l0 112 83 3 c45 2 1021 4 2170
5 l2087 1 0 -120z"/>
<path d="M2595 4081 c-11 -5 -29 -19 -40 -31 -20 -22 -20 -38 -23 -899 -2
-646 1 -883 9 -904 7 -15 24 -34 40 -42 68 -35 51 -46 680 425 425 320 590
449 599 470 16 40 5 82 -33 117 -37 36 -1060 802 -1126 845 -46 29 -71 33
-106 19z m993 -941 c2 -4 -183 -146 -410 -315 -227 -170 -419 -312 -425 -318
-10 -7 -13 120 -13 631 l0 641 423 -315 c232 -174 423 -319 425 -324z"/>
</g>
</svg>
