<?xml version="1.0" standalone="no"?>
<!DOCTYPE svg PUBLIC "-//W3C//DTD SVG 20010904//EN"
 "http://www.w3.org/TR/2001/REC-SVG-20010904/DTD/svg10.dtd">
<svg version="1.0" xmlns="http://www.w3.org/2000/svg"
 width="640.000000pt" height="640.000000pt" viewBox="0 0 640.000000 640.000000"
 preserveAspectRatio="xMidYMid meet">
<metadata>
Created by potrace 1.16, written by Peter Selinger 2001-2019
</metadata>
<g transform="translate(0.000000,640.000000) scale(0.100000,-0.100000)"
fill="#000000" stroke="none">
<path d="M1160 5220 c-134 -17 -262 -115 -312 -237 l-23 -58 -3 -1755 c-2
-1318 0 -1769 9 -1810 33 -157 157 -274 315 -300 80 -13 4028 -13 4108 0 158
26 282 143 315 300 9 41 11 492 9 1810 l-3 1755 -23 58 c-51 126 -177 219
-321 238 -79 10 -3992 9 -4071 -1z m4097 -211 c34 -13 80 -55 99 -91 10 -19
14 -63 14 -143 l0 -115 -2170 0 -2170 0 0 115 c0 80 4 124 14 143 18 35 64 78
96 91 36 14 4079 15 4117 0z m113 -1869 l0 -1310 -2170 0 -2170 0 0 1310 0
1310 2170 0 2170 0 0 -1310z m0 -1633 c0 -109 -2 -124 -24 -161 -13 -23 -42
-51 -64 -64 l-40 -22 -2042 0 -2042 0 -40 22 c-22 13 -51 41 -64 64 -22 37
-24 52 -24 162 l0 121 2170 -1 2170 -1 0 -120z"/>
<path d="M2845 4167 c-22 -19 -69 -152 -296 -842 -148 -451 -270 -833 -271
-848 -2 -40 20 -74 61 -93 41 -20 -27 -41 891 269 588 199 590 200 590 274 0
34 -43 100 -416 633 -229 327 -425 603 -437 612 -32 25 -90 23 -122 -5z m431
-780 c154 -221 280 -403 279 -404 -3 -5 -1008 -343 -1011 -340 -2 1 87 276
198 611 l200 608 26 -37 c15 -20 153 -217 308 -438z"/>
</g>
</svg>
