<?xml version="1.0" standalone="no"?>
<!DOCTYPE svg PUBLIC "-//W3C//DTD SVG 20010904//EN"
 "http://www.w3.org/TR/2001/REC-SVG-20010904/DTD/svg10.dtd">
<svg version="1.0" xmlns="http://www.w3.org/2000/svg"
 width="640.000000pt" height="640.000000pt" viewBox="0 0 640.000000 640.000000"
 preserveAspectRatio="xMidYMid meet">
<metadata>
Created by potrace 1.16, written by Peter Selinger 2001-2019
</metadata>
<g transform="translate(0.000000,640.000000) scale(0.100000,-0.100000)"
fill="#000000" stroke="none">
<path d="M1160 5220 c-134 -17 -262 -115 -312 -237 l-23 -58 -3 -1755 c-2
-1318 0 -1769 9 -1810 34 -162 155 -275 321 -301 39 -6 824 -9 2093 -7 l2030
3 56 23 c75 30 141 83 184 147 69 105 65 -17 65 1907 0 1248 -3 1752 -11 1790
-34 159 -166 277 -337 299 -80 10 -3992 10 -4072 -1z m4097 -211 c38 -14 83
-57 99 -96 9 -21 14 -71 14 -143 l0 -110 -2171 0 -2171 0 4 124 c3 121 4 125
34 163 17 21 46 46 65 55 32 17 151 18 2066 18 1411 0 2040 -3 2060 -11z m113
-1869 l0 -1310 -2170 0 -2170 0 0 1310 0 1310 2170 0 2170 0 0 -1310z m0
-1628 c0 -141 -17 -188 -84 -227 l-43 -25 -2042 0 c-2226 0 -2065 -4 -2123 57
-40 42 -48 74 -48 193 l0 109 38 3 c20 2 997 5 2169 5 l2133 1 0 -116z"/>
<path d="M2595 4081 c-11 -5 -29 -19 -40 -31 -20 -22 -20 -38 -23 -899 -2
-646 1 -883 9 -904 7 -15 24 -34 40 -42 68 -35 51 -46 680 425 425 320 590
449 599 470 16 40 5 82 -33 117 -37 36 -1060 802 -1126 845 -46 29 -71 33
-106 19z m993 -941 c2 -4 -183 -146 -410 -315 -227 -170 -419 -312 -425 -318
-10 -7 -13 120 -13 631 l0 641 423 -315 c232 -174 423 -319 425 -324z"/>
</g>
</svg>
