<?xml version="1.0" standalone="no"?>
<!DOCTYPE svg PUBLIC "-//W3C//DTD SVG 20010904//EN"
 "http://www.w3.org/TR/2001/REC-SVG-20010904/DTD/svg10.dtd">
<svg version="1.0" xmlns="http://www.w3.org/2000/svg"
 width="640.000000pt" height="640.000000pt" viewBox="0 0 640.000000 640.000000"
 preserveAspectRatio="xMidYMid meet">
<metadata>
Created by potrace 1.16, written by Peter Selinger 2001-2019
</metadata>
<g transform="translate(0.000000,640.000000) scale(0.100000,-0.100000)"
fill="#000000" stroke="none">
<path d="M0 3200 l0 -3200 3200 0 3200 0 0 3200 0 3200 -3200 0 -3200 0 0
-3200z m1440 1640 l0 -180 -50 0 -50 0 0 180 0 180 50 0 50 0 0 -180z m200 0
l0 -180 -45 0 -45 0 0 180 0 180 45 0 45 0 0 -180z m930 0 l0 -180 -50 0 -50
0 0 180 0 180 50 0 50 0 0 -180z m200 0 l0 -180 -45 0 -45 0 0 180 0 180 45 0
45 0 0 -180z m940 0 l0 -180 -45 0 -45 0 0 180 0 180 45 0 45 0 0 -180z m210
0 l0 -180 -50 0 -50 0 0 180 0 180 50 0 50 0 0 -180z m840 0 l0 -180 -45 0
-45 0 0 180 0 180 45 0 45 0 0 -180z m210 0 l0 -180 -50 0 -50 0 0 180 0 180
50 0 50 0 0 -180z m-2632 -917 c-10 -2 -26 -2 -35 0 -10 3 -2 5 17 5 19 0 27
-2 18 -5z m-78 -17 c0 -2 -8 -10 -17 -17 -16 -13 -17 -12 -4 4 13 16 21 21 21
13z m227 -12 c-3 -3 -12 -4 -19 -1 -8 3 -5 6 6 6 11 1 17 -2 13 -5z m1381 -40
c25 -17 42 -52 42 -90 0 -13 -18 -61 -41 -105 -35 -70 -43 -80 -62 -76 -12 3
-174 40 -359 83 -186 43 -335 81 -332 84 11 11 680 128 704 124 14 -3 35 -12
48 -20z m-1251 10 c-3 -3 -12 -4 -19 -1 -8 3 -5 6 6 6 11 1 17 -2 13 -5z
m-400 -46 c-3 -8 -6 -5 -6 6 -1 11 2 17 5 13 3 -3 4 -12 1 -19z m570 6 c-3 -3
-12 -4 -19 -1 -8 3 -5 6 6 6 11 1 17 -2 13 -5z m130 -30 c-3 -3 -12 -4 -19 -1
-8 3 -5 6 6 6 11 1 17 -2 13 -5z m170 -40 c-3 -3 -12 -4 -19 -1 -8 3 -5 6 6 6
11 1 17 -2 13 -5z m-232 -159 c132 -31 244 -57 248 -58 5 -1 -103 -22 -240
-47 -136 -24 -250 -48 -252 -53 -2 -5 -25 40 -52 99 l-48 109 32 6 c39 7 21
10 312 -56z m-476 -191 c-9 -11 12 -40 22 -30 3 3 233 -505 248 -548 2 -6 -7
3 -20 21 -13 18 -149 148 -301 289 -161 149 -284 271 -293 290 -26 56 -1 114
60 139 17 7 67 18 113 26 62 9 82 16 82 28 0 9 23 -33 50 -94 32 -72 45 -113
39 -121z m1528 160 c-3 -3 -12 -4 -19 -1 -8 3 -5 6 6 6 11 1 17 -2 13 -5z
m-750 -40 c-3 -3 -12 -4 -19 -1 -8 3 -5 6 6 6 11 1 17 -2 13 -5z m898 -14 c10
-11 16 -20 13 -20 -3 0 -13 9 -23 20 -10 11 -16 20 -13 20 3 0 13 -9 23 -20z
m-598 -56 c-3 -3 -12 -4 -19 -1 -8 3 -5 6 6 6 11 1 17 -2 13 -5z m173 -39 c41
-9 82 -19 90 -22 8 -4 18 -5 23 -5 4 1 7 0 7 -2 0 -3 -114 -100 -252 -217
-139 -116 -239 -196 -221 -178 17 19 75 122 128 229 54 107 102 201 108 208 5
7 17 11 26 8 9 -2 50 -12 91 -21z m-980 -70 c0 -5 -5 -3 -10 5 -5 8 -10 20
-10 25 0 6 5 3 10 -5 5 -8 10 -19 10 -25z m1420 32 c0 -2 -10 -12 -22 -23
l-23 -19 19 23 c18 21 26 27 26 19z m-50 -40 c0 -2 -12 -14 -27 -28 l-28 -24
24 28 c23 25 31 32 31 24z m-1330 -82 c0 -5 -5 -3 -10 5 -5 8 -10 20 -10 25 0
6 5 3 10 -5 5 -8 10 -19 10 -25z m1270 32 c0 -2 -12 -14 -27 -28 l-28 -24 24
28 c23 25 31 32 31 24z m-70 -60 c0 -2 -10 -12 -22 -23 l-23 -19 19 23 c18 21
26 27 26 19z m-60 -50 c0 -2 -12 -14 -27 -28 l-28 -24 24 28 c23 25 31 32 31
24z m-60 -50 c0 -2 -12 -14 -27 -28 l-28 -24 24 28 c23 25 31 32 31 24z m-70
-60 c0 -2 -10 -12 -22 -23 l-23 -19 19 23 c18 21 26 27 26 19z m-60 -50 c0 -2
-12 -14 -27 -28 l-28 -24 24 28 c23 25 31 32 31 24z m-604 -229 c5 4 -13 -14
-41 -40 -27 -26 -54 -46 -59 -45 -8 3 -67 126 -122 255 -11 28 5 16 99 -72 63
-58 118 -102 123 -98z m544 179 c0 -2 -12 -14 -27 -28 l-28 -24 24 28 c23 25
31 32 31 24z m-340 -10 c0 -2 -12 -14 -27 -28 l-28 -24 24 28 c23 25 31 32 31
24z m248 -74 c-14 -16 -73 -123 -131 -239 -114 -227 -127 -244 -197 -244 -36
0 -48 7 -92 48 l-50 48 243 207 c134 113 246 206 248 206 3 1 -7 -11 -21 -26z
m-318 14 c0 -2 -10 -12 -22 -23 l-23 -19 19 23 c18 21 26 27 26 19z m-60 -50
c0 -2 -12 -14 -27 -28 l-28 -24 24 28 c23 25 31 32 31 24z m-301 -377 c11 -24
11 -24 -3 -6 -9 11 -16 24 -16 30 0 12 5 7 19 -24z m201 17 c0 -2 -10 -12 -22
-23 l-23 -19 19 23 c18 21 26 27 26 19z m-139 -65 c-7 -2 -18 1 -23 6 -8 8 -4
9 13 5 13 -4 18 -8 10 -11z m-1470 -802 l39 0 0 -180 0 -180 -50 0 -49 0 -3
185 c-2 151 -1 184 10 180 8 -3 31 -5 53 -5z m239 -175 l0 -185 -45 0 -45 0 0
185 0 185 45 0 45 0 0 -185z m930 -6 l0 -179 -50 0 -50 0 0 183 0 182 50 -3
50 -4 0 -179z m200 6 l0 -185 -45 0 -45 0 0 185 0 185 45 0 45 0 0 -185z
m1150 0 l0 -185 -50 0 -50 0 0 185 0 185 50 0 50 0 0 -185z m840 -6 l0 -179
-45 0 -45 0 0 183 0 182 45 -3 45 -4 0 -179z m210 6 l0 -185 -50 0 -50 0 0
185 0 185 50 0 50 0 0 -185z m-1260 -5 l0 -180 -45 0 -45 0 0 180 0 180 45 0
45 0 0 -180z"/>
</g>
</svg>
