<?xml version="1.0" standalone="no"?>
<!DOCTYPE svg PUBLIC "-//W3C//DTD SVG 20010904//EN"
 "http://www.w3.org/TR/2001/REC-SVG-20010904/DTD/svg10.dtd">
<svg version="1.0" xmlns="http://www.w3.org/2000/svg"
 width="640.000000pt" height="640.000000pt" viewBox="0 0 640.000000 640.000000"
 preserveAspectRatio="xMidYMid meet">
<metadata>
Created by potrace 1.16, written by Peter Selinger 2001-2019
</metadata>
<g transform="translate(0.000000,640.000000) scale(0.100000,-0.100000)"
fill="#000000" stroke="none">
<path d="M0 3200 l0 -3200 3200 0 3200 0 0 3200 0 3200 -3200 0 -3200 0 0
-3200z m1440 1640 l0 -180 -95 0 -95 0 0 180 0 180 95 0 95 0 0 -180z m200 0
l0 -180 -90 0 -90 0 0 180 0 180 90 0 90 0 0 -180z m930 0 l0 -180 -90 0 -90
0 0 180 0 180 90 0 90 0 0 -180z m200 0 l0 -180 -90 0 -90 0 0 180 0 180 90 0
90 0 0 -180z m940 0 l0 -180 -90 0 -90 0 0 180 0 180 90 0 90 0 0 -180z m210
0 l0 -180 -95 0 -95 0 0 180 0 180 95 0 95 0 0 -180z m840 0 l0 -180 -90 0
-90 0 0 180 0 180 90 0 90 0 0 -180z m210 0 l0 -180 -90 0 -90 0 0 180 0 180
90 0 90 0 0 -180z m-2312 -667 c-10 -2 -26 -2 -35 0 -10 3 -2 5 17 5 19 0 27
-2 18 -5z m63 -30 c13 -16 12 -17 -3 -4 -17 13 -22 21 -14 21 2 0 10 -8 17
-17z m150 -110 c13 -16 12 -17 -3 -4 -17 13 -22 21 -14 21 2 0 10 -8 17 -17z
m-325 -1373 c-2 -8 -4 51 -5 132 l-1 146 -244 227 c-141 131 -252 242 -261
261 -26 56 -1 114 60 139 17 7 67 18 113 26 50 7 82 17 82 25 0 6 -15 45 -33
85 -19 41 -37 86 -41 101 -10 42 17 95 58 115 34 16 40 15 138 -5 57 -12 106
-22 111 -22 4 0 8 26 9 58 1 31 5 -242 10 -608 4 -366 6 -672 4 -680z m395
1323 c13 -16 12 -17 -3 -4 -17 13 -22 21 -14 21 2 0 10 -8 17 -17z m40 -30
c13 -16 12 -17 -3 -4 -10 7 -18 15 -18 17 0 8 8 3 21 -13z m40 -30 c13 -16 12
-17 -3 -4 -17 13 -22 21 -14 21 2 0 10 -8 17 -17z m847 -69 c25 -17 42 -52 42
-90 0 -13 -18 -60 -40 -103 l-39 -79 96 -22 c118 -27 153 -55 153 -118 0 -58
-4 -64 -83 -130 l-72 -59 -345 254 c-190 139 -346 257 -348 261 -3 11 558 111
588 106 14 -3 35 -12 48 -20z m-1102 -6 c4 -7 3 -8 -4 -4 -7 4 -12 2 -12 -4 0
-6 8 -10 18 -8 12 2 111 -64 255 -171 131 -95 237 -175 237 -177 0 -3 -10 2
-22 10 -13 8 -52 20 -88 26 -59 10 -81 8 -230 -19 -90 -16 -167 -28 -170 -25
-3 3 -6 91 -8 195 -3 179 1 214 24 177z m365 -5 c13 -16 12 -17 -3 -4 -17 13
-22 21 -14 21 2 0 10 -8 17 -17z m40 -30 c13 -16 12 -17 -3 -4 -17 13 -22 21
-14 21 2 0 10 -8 17 -17z m40 -30 c13 -16 12 -17 -3 -4 -17 13 -22 21 -14 21
2 0 10 -8 17 -17z m80 -320 c13 -16 12 -17 -3 -4 -10 7 -18 15 -18 17 0 8 8 3
21 -13z m70 -50 c13 -16 12 -17 -3 -4 -10 7 -18 15 -18 17 0 8 8 3 21 -13z
m40 -30 c13 -16 12 -17 -3 -4 -17 13 -22 21 -14 21 2 0 10 -8 17 -17z m40 -30
c13 -16 12 -17 -3 -4 -17 13 -22 21 -14 21 2 0 10 -8 17 -17z m224 -163 c110
-80 129 -96 103 -87 -9 3 -18 3 -20 -2 -2 -4 -120 -42 -263 -86 -143 -43 -267
-80 -275 -83 -8 -2 -4 4 10 13 62 44 90 83 164 234 l80 159 50 -37 c28 -21 96
-70 151 -111z m296 43 c13 -16 12 -17 -3 -4 -17 13 -22 21 -14 21 2 0 10 -8
17 -17z m40 -30 c13 -16 12 -17 -3 -4 -17 13 -22 21 -14 21 2 0 10 -8 17 -17z
m40 -30 c13 -16 12 -17 -3 -4 -17 13 -22 21 -14 21 2 0 10 -8 17 -17z m44 -33
c10 -11 16 -20 13 -20 -3 0 -13 9 -23 20 -10 11 -16 20 -13 20 3 0 13 -9 23
-20z m-1239 -192 c21 -22 56 -53 76 -68 l36 -27 -92 -26 c-51 -15 -97 -27
-104 -27 -9 0 -12 42 -12 158 l1 157 28 -63 c15 -35 46 -81 67 -104z m1239 42
c-10 -11 -22 -20 -28 -20 -5 0 1 9 14 20 31 25 37 25 14 0z m-665 -215 c0 -3
-38 -81 -84 -173 -91 -183 -108 -202 -176 -202 -35 0 -48 7 -90 46 l-48 45
-47 -35 c-82 -63 -150 -43 -194 59 -12 27 -26 52 -31 55 -5 3 140 51 323 107
351 107 347 106 347 98z m-839 -192 c13 -16 12 -17 -3 -4 -17 13 -22 21 -14
21 2 0 10 -8 17 -17z m-1141 -1144 l0 -179 -95 0 -95 0 0 183 0 182 95 -3 95
-3 0 -180z m200 6 l0 -185 -90 0 -90 0 0 185 0 185 90 0 90 0 0 -185z m930 -6
l0 -179 -90 0 -90 0 0 183 0 182 90 -3 90 -3 0 -180z m200 6 l0 -185 -90 0
-90 0 0 185 0 185 90 0 90 0 0 -185z m940 -6 l0 -179 -90 0 -90 0 0 183 0 182
90 -3 90 -3 0 -180z m210 6 l0 -185 -95 0 -95 0 0 178 c0 98 3 182 7 185 3 4
46 7 95 7 l88 0 0 -185z m840 -6 l0 -179 -90 0 -90 0 0 183 0 182 90 -3 90 -3
0 -180z m210 6 l0 -185 -90 0 -90 0 0 185 0 185 90 0 90 0 0 -185z"/>
<path d="M2510 3660 c0 -5 5 -10 10 -10 6 0 10 5 10 10 0 6 -4 10 -10 10 -5 0
-10 -4 -10 -10z"/>
<path d="M2376 3402 c-3 -5 1 -15 9 -22 16 -14 20 -3 6 19 -5 8 -11 9 -15 3z"/>
</g>
</svg>
