<?xml version="1.0" standalone="no"?>
<!DOCTYPE svg PUBLIC "-//W3C//DTD SVG 20010904//EN"
 "http://www.w3.org/TR/2001/REC-SVG-20010904/DTD/svg10.dtd">
<svg version="1.0" xmlns="http://www.w3.org/2000/svg"
 width="640.000000pt" height="640.000000pt" viewBox="0 0 640.000000 640.000000"
 preserveAspectRatio="xMidYMid meet">
<metadata>
Created by potrace 1.16, written by Peter Selinger 2001-2019
</metadata>
<g transform="translate(0.000000,640.000000) scale(0.100000,-0.100000)"
fill="#000000" stroke="none">
<path d="M0 3200 l0 -3200 3200 0 3200 0 0 3200 0 3200 -3200 0 -3200 0 0
-3200z m1203 2023 c-7 -2 -19 -2 -25 0 -7 3 -2 5 12 5 14 0 19 -2 13 -5z
m4024 1 c-3 -3 -12 -4 -19 -1 -8 3 -5 6 6 6 11 1 17 -2 13 -5z m-4257 -77 c0
-2 -19 -21 -42 -42 l-43 -40 40 43 c36 39 45 47 45 39z m4505 -37 c21 -22 37
-40 34 -40 -3 0 -23 18 -44 40 -21 22 -37 40 -34 40 3 0 23 -18 44 -40z
m-3835 -270 l0 -180 -305 0 -305 0 0 115 c0 80 4 124 14 143 18 35 64 78 96
91 14 5 130 10 263 10 l237 1 0 -180z m1130 0 l0 -180 -535 0 -535 0 0 180 0
180 535 0 535 0 0 -180z m2200 0 l0 -180 -1065 0 -1065 0 0 180 0 180 1065 0
1065 0 0 -180z m274 171 c41 -10 89 -50 112 -93 10 -19 14 -63 14 -143 l0
-115 -170 0 -170 0 0 180 0 180 88 0 c48 0 104 -5 126 -9z m-4414 -101 c0 -11
-2 -20 -4 -20 -2 0 -6 9 -9 20 -3 11 -1 20 4 20 5 0 9 -9 9 -20z m4747 -12
c-3 -7 -5 -2 -5 12 0 14 2 19 5 13 2 -7 2 -19 0 -25z m-2495 -638 c14 -11 45
-53 68 -95 24 -41 46 -75 50 -75 3 0 35 29 70 65 76 77 112 93 163 71 49 -20
65 -49 78 -141 7 -44 15 -83 18 -87 3 -4 39 9 80 28 95 44 141 45 183 4 28
-28 30 -35 26 -90 -3 -60 -3 -60 32 -78 19 -9 39 -27 45 -39 8 -18 18 -23 48
-23 31 0 46 -7 73 -34 45 -45 45 -84 0 -159 l-35 -57 33 -14 c19 -8 36 -19 40
-24 3 -6 20 -13 36 -17 39 -8 80 -58 80 -96 0 -44 -22 -80 -74 -118 -25 -19
-46 -37 -46 -40 0 -3 23 -19 52 -36 120 -70 117 -174 -6 -226 l-55 -22 41 -48
c32 -38 41 -57 41 -87 0 -55 -27 -91 -79 -104 -43 -12 -61 -33 -56 -68 1 -8
-13 14 -32 50 -592 1121 -644 1215 -679 1233 -70 36 -38 62 -614 -500 -193
-189 -354 -343 -358 -343 -4 0 -5 15 -3 33 3 31 -5 41 -124 151 -133 123 -163
166 -152 213 15 61 53 83 182 104 50 7 82 17 82 25 0 6 -15 45 -33 85 -19 41
-37 86 -41 101 -10 42 17 95 58 115 34 16 40 15 138 -5 57 -12 106 -22 110
-22 3 0 8 51 10 114 3 105 5 117 27 140 26 27 76 42 109 32 10 -4 55 -33 98
-66 43 -32 82 -56 85 -52 3 4 21 45 40 92 18 47 44 95 58 107 31 30 98 31 133
3z m174 -677 c26 -49 63 -117 82 -153 l35 -65 -50 46 c-57 53 -98 77 -163 94
-76 20 -107 10 -181 -59 -36 -33 -1 3 78 82 78 78 145 142 147 142 3 0 26 -39
52 -87z m-407 -279 c-30 -50 -38 -157 -15 -215 71 -178 283 -234 425 -112 31
26 58 68 105 161 l63 125 140 -267 c77 -146 135 -266 129 -266 -26 -1 -1256
195 -1253 200 5 12 415 410 422 410 3 0 -3 -16 -16 -36z m-599 -267 c0 -1 -28
-29 -62 -62 l-63 -60 60 63 c55 58 65 67 65 59z m-133 -209 c-3 -8 -6 -5 -6 6
-1 11 2 17 5 13 3 -3 4 -12 1 -19z m56 -67 c-2 -3 -16 8 -31 24 l-27 28 31
-24 c17 -13 30 -26 27 -28z m515 -82 c797 -126 1107 -177 1092 -178 -11 -1
-15 -13 -15 -44 0 -58 -25 -94 -77 -107 -38 -11 -46 -9 -112 23 -39 20 -73 34
-77 31 -3 -2 -12 -32 -18 -66 -22 -119 -48 -148 -129 -148 -36 0 -46 6 -94 58
l-53 58 -44 -69 c-45 -71 -68 -87 -124 -87 -47 0 -76 25 -106 92 l-26 59 -59
-45 c-73 -57 -118 -62 -168 -17 -27 24 -32 36 -36 90 -2 33 -5 61 -6 61 0 0
-25 -9 -54 -20 -62 -24 -93 -25 -131 -6 -46 24 -62 83 -42 153 l9 32 -62 -6
c-59 -5 -65 -4 -95 23 -42 39 -51 90 -23 138 19 32 19 35 4 39 -50 13 40 0
446 -64z m1312 -118 c0 -6 -11 -23 -25 -38 l-26 -28 23 37 c25 40 28 43 28 29z
m-153 -67 c-3 -3 -12 -4 -19 -1 -8 3 -5 6 6 6 11 1 17 -2 13 -5z m-2207 -1049
l0 -185 -241 0 c-231 0 -243 1 -281 22 -22 13 -51 41 -64 64 -22 37 -24 52
-24 162 l0 122 305 0 305 0 0 -185z m1130 1 l0 -186 -535 0 -535 0 0 183 0
182 535 4 535 3 0 -186z m2200 -1 l0 -185 -1065 0 -1065 0 0 183 0 183 1065 2
1065 2 0 -185z m400 63 c0 -110 -2 -125 -24 -162 -40 -68 -84 -86 -210 -86
l-106 0 0 180 0 179 103 4 c56 1 132 4 170 5 l67 2 0 -122z m-4543 -150 c-3
-8 -6 -5 -6 6 -1 11 2 17 5 13 3 -3 4 -12 1 -19z m4750 0 c-3 -8 -6 -5 -6 6
-1 11 2 17 5 13 3 -3 4 -12 1 -19z m-4713 -94 c3 -8 2 -12 -4 -9 -6 3 -10 10
-10 16 0 14 7 11 14 -7z m4686 8 c0 -5 -7 -17 -15 -28 -14 -18 -14 -17 -4 9
12 27 19 34 19 19z m-4645 -72 c10 -11 16 -20 13 -20 -3 0 -13 9 -23 20 -10
11 -16 20 -13 20 3 0 13 -9 23 -20z m4624 17 c-2 -1 -15 -11 -29 -22 l-25 -20
19 23 c11 12 24 22 29 22 6 0 8 -1 6 -3z m-4564 -77 c10 -11 14 -20 9 -20 -5
0 -15 9 -22 20 -7 11 -11 20 -9 20 2 0 12 -9 22 -20z m4495 17 c0 -2 -10 -12
-22 -23 l-23 -19 19 23 c18 21 26 27 26 19z m-120 -87 c0 -5 -2 -10 -4 -10 -3
0 -8 5 -11 10 -3 6 -1 10 4 10 6 0 11 -4 11 -10z m-30 -10 c0 -5 -2 -10 -4
-10 -3 0 -8 5 -11 10 -3 6 -1 10 4 10 6 0 11 -4 11 -10z m-4133 -6 c-3 -3 -12
-4 -19 -1 -8 3 -5 6 6 6 11 1 17 -2 13 -5z m4070 0 c-3 -3 -12 -4 -19 -1 -8 3
-5 6 6 6 11 1 17 -2 13 -5z"/>
</g>
</svg>
