<?xml version="1.0" standalone="no"?>
<!DOCTYPE svg PUBLIC "-//W3C//DTD SVG 20010904//EN"
 "http://www.w3.org/TR/2001/REC-SVG-20010904/DTD/svg10.dtd">
<svg version="1.0" xmlns="http://www.w3.org/2000/svg"
 width="640.000000pt" height="640.000000pt" viewBox="0 0 640.000000 640.000000"
 preserveAspectRatio="xMidYMid meet">
<metadata>
Created by potrace 1.16, written by Peter Selinger 2001-2019
</metadata>
<g transform="translate(0.000000,640.000000) scale(0.100000,-0.100000)"
fill="#000000" stroke="none">
<path d="M0 3200 l0 -3200 3200 0 3200 0 0 3200 0 3200 -3200 0 -3200 0 0
-3200z m1203 2023 c-7 -2 -19 -2 -25 0 -7 3 -2 5 12 5 14 0 19 -2 13 -5z
m-233 -76 c0 -2 -15 -16 -32 -33 l-33 -29 29 33 c28 30 36 37 36 29z m4505
-37 c21 -22 37 -40 34 -40 -3 0 -23 18 -44 40 -21 22 -37 40 -34 40 3 0 23
-18 44 -40z m-3835 -270 l0 -180 -306 0 -306 0 4 124 c3 121 4 125 33 162 58
71 70 74 337 74 l238 0 0 -180z m1130 0 l0 -180 -365 0 -365 0 0 180 0 180
365 0 365 0 0 -180z m1150 0 l0 -180 -365 0 -365 0 0 180 0 180 365 0 365 0 0
-180z m1050 0 l0 -180 -365 0 -365 0 0 180 0 180 365 0 365 0 0 -180z m607 68
c-3 -8 -6 -5 -6 6 -1 11 2 17 5 13 3 -3 4 -12 1 -19z m-2495 -648 c14 -11 45
-53 68 -95 24 -41 46 -75 50 -75 3 0 35 29 70 65 76 77 112 93 163 71 49 -20
65 -49 78 -141 7 -44 15 -83 18 -87 3 -4 39 9 80 28 95 44 141 45 183 4 28
-28 30 -35 26 -90 -3 -60 -3 -60 32 -78 19 -9 40 -28 47 -42 l12 -25 -677 -57
c-372 -32 -692 -61 -711 -64 -45 -7 -91 -54 -91 -92 0 -22 215 -592 438 -1161
3 -8 -10 -2 -30 14 -22 17 -44 49 -58 82 -21 50 -25 54 -49 49 -14 -4 -45 -9
-68 -13 -77 -10 -123 46 -123 154 l0 42 -52 7 c-100 13 -133 84 -89 187 l20
45 -29 12 c-51 21 -84 66 -85 114 -1 43 -4 46 -127 161 -133 122 -163 165
-152 212 15 61 53 83 182 104 50 7 82 17 82 25 0 6 -15 45 -33 85 -19 41 -37
86 -41 101 -10 42 17 95 58 115 34 16 40 15 138 -5 57 -12 106 -22 110 -22 3
0 8 51 10 114 3 105 5 117 27 140 26 27 76 42 109 32 10 -4 55 -33 98 -66 43
-32 82 -56 85 -52 3 4 21 45 40 92 18 47 44 95 58 107 31 30 98 31 133 3z
m965 -592 c-3 -8 -6 -5 -6 6 -1 11 2 17 5 13 3 -3 4 -12 1 -19z m-27 -58 c-6
-11 -13 -20 -16 -20 -2 0 0 9 6 20 6 11 13 20 16 20 2 0 0 -9 -6 -20z m-280
-44 c0 -3 -466 -751 -648 -1040 -20 -32 -26 -36 -33 -24 -16 28 -209 532 -205
535 2 2 15 -12 29 -31 60 -78 186 -114 284 -82 84 28 127 74 194 207 32 65 59
129 59 141 0 13 -17 51 -38 85 -40 68 -125 136 -190 156 -32 10 -7 14 203 33
240 21 345 28 345 20z m274 -30 c43 -18 66 -51 66 -97 0 -55 -5 -63 -81 -125
l-69 -56 84 -63 c90 -69 96 -77 96 -135 0 -56 -30 -83 -127 -115 -71 -23 -82
-29 -74 -43 5 -9 28 -48 50 -87 46 -78 50 -105 21 -153 -28 -46 -57 -54 -154
-44 -44 5 -82 9 -83 8 0 -1 6 -43 14 -94 13 -87 13 -95 -4 -130 -14 -29 -27
-40 -61 -51 -42 -13 -46 -12 -115 22 -39 20 -74 34 -78 31 -3 -2 -12 -32 -18
-66 -22 -119 -48 -148 -129 -148 -36 0 -46 6 -96 60 l-56 61 43 67 c382 613
733 1172 735 1172 1 0 18 -6 36 -14z m-926 -23 c-10 -2 -26 -2 -35 0 -10 3 -2
5 17 5 19 0 27 -2 18 -5z m-138 -29 c-94 -43 -179 -145 -180 -217 0 -12 -21
29 -46 92 -24 63 -42 117 -39 120 7 6 211 27 280 29 l40 1 -55 -25z m240
-1204 c-6 -11 -13 -20 -16 -20 -2 0 0 9 6 20 6 11 13 20 16 20 2 0 0 -9 -6
-20z m-215 -100 c10 -11 16 -20 13 -20 -3 0 -13 9 -23 20 -10 11 -16 20 -13
20 3 0 13 -9 23 -20z m145 -5 c-7 -8 -17 -15 -23 -15 -6 0 -2 7 9 15 25 19 30
19 14 0z m-1480 -730 l0 -185 -244 0 -244 0 -44 33 c-66 50 -78 82 -78 214 l0
112 48 4 c26 2 163 4 305 5 l257 2 0 -185z m1130 1 l0 -186 -365 0 -365 0 0
183 0 182 365 4 365 4 0 -187z m1150 -1 l0 -185 -365 0 -365 0 0 180 0 179
103 4 c56 1 220 4 365 5 l262 2 0 -185z m1050 1 l0 -186 -365 0 -365 0 0 183
0 182 365 4 365 4 0 -187z m570 -196 c-6 -11 -13 -20 -16 -20 -2 0 0 9 6 20 6
11 13 20 16 20 2 0 0 -9 -6 -20z m-11 -33 c-2 -1 -13 -9 -24 -17 -19 -14 -19
-14 -6 3 7 9 18 17 24 17 6 0 8 -1 6 -3z m-4559 -82 c7 -9 8 -15 2 -15 -5 0
-12 7 -16 15 -3 8 -4 15 -2 15 2 0 9 -7 16 -15z m4480 11 c0 -2 -8 -10 -17
-17 -16 -13 -17 -12 -4 4 13 16 21 21 21 13z m-4273 -92 c-3 -3 -12 -4 -19 -1
-8 3 -5 6 6 6 11 1 17 -2 13 -5z"/>
<path d="M3031 3924 c0 -11 3 -14 6 -6 3 7 2 16 -1 19 -3 4 -6 -2 -5 -13z"/>
</g>
</svg>
