<?xml version="1.0" standalone="no"?>
<!DOCTYPE svg PUBLIC "-//W3C//DTD SVG 20010904//EN"
 "http://www.w3.org/TR/2001/REC-SVG-20010904/DTD/svg10.dtd">
<svg version="1.0" xmlns="http://www.w3.org/2000/svg"
 width="640.000000pt" height="640.000000pt" viewBox="0 0 640.000000 640.000000"
 preserveAspectRatio="xMidYMid meet">
<metadata>
Created by potrace 1.16, written by Peter Selinger 2001-2019
</metadata>
<g transform="translate(0.000000,640.000000) scale(0.100000,-0.100000)"
fill="#000000" stroke="none">
<path d="M0 3200 l0 -3200 3200 0 3200 0 0 3200 0 3200 -3200 0 -3200 0 0
-3200z m1197 2024 c-3 -3 -12 -4 -19 -1 -8 3 -5 6 6 6 11 1 17 -2 13 -5z m443
-384 l0 -180 -280 0 -280 0 0 154 c0 170 -1 167 67 192 27 9 102 13 266 14
l227 0 0 -180z m1130 0 l0 -180 -275 0 -275 0 0 180 0 180 275 0 275 0 0 -180z
m1150 0 l0 -180 -280 0 -280 0 0 180 0 180 280 0 280 0 0 -180z m1050 0 l0
-180 -280 0 -280 0 0 180 0 180 280 0 280 0 0 -180z m607 68 c-3 -8 -6 -5 -6
6 -1 11 2 17 5 13 3 -3 4 -12 1 -19z m-2494 -648 c14 -11 41 -48 61 -83 19
-34 40 -69 45 -77 9 -12 23 -2 83 55 40 38 6 1 -77 -82 -100 -103 -152 -148
-157 -140 -5 8 -8 4 -8 -11 0 -18 -88 -114 -332 -363 -183 -187 -345 -355
-359 -374 l-27 -35 -130 121 c-136 126 -167 169 -156 216 15 61 53 83 182 104
50 7 82 17 82 25 0 6 -15 45 -33 85 -19 41 -37 86 -41 101 -10 42 17 95 58
115 34 16 40 15 138 -5 57 -12 106 -22 110 -22 3 0 8 51 10 114 3 105 5 117
27 140 26 27 76 42 109 32 10 -4 55 -33 98 -66 43 -32 82 -56 85 -52 3 4 21
45 40 92 18 47 44 95 58 107 31 30 98 31 134 3z m324 -26 c-3 -3 -12 -4 -19
-1 -8 3 -5 6 6 6 11 1 17 -2 13 -5z m68 -34 c10 -11 16 -20 13 -20 -3 0 -13 9
-23 20 -10 11 -16 20 -13 20 3 0 13 -9 23 -20z m32 -92 c-3 -8 -6 -5 -6 6 -1
11 2 17 5 13 3 -3 4 -12 1 -19z m10 -70 c-3 -7 -5 -2 -5 12 0 14 2 19 5 13 2
-7 2 -19 0 -25z m10 -60 c-3 -8 -6 -5 -6 6 -1 11 2 17 5 13 3 -3 4 -12 1 -19z
m10 -60 c-3 -8 -6 -5 -6 6 -1 11 2 17 5 13 3 -3 4 -12 1 -19z m-211 -23 c-3
-9 -1 -23 4 -33 8 -15 90 -518 90 -554 0 -7 -17 15 -38 49 -26 45 -55 75 -100
106 -82 58 -151 73 -260 56 -76 -11 -77 -12 -151 -83 -41 -39 44 52 190 201
145 150 266 273 268 273 2 0 0 -7 -3 -15z m221 -37 c-3 -8 -6 -5 -6 6 -1 11 2
17 5 13 3 -3 4 -12 1 -19z m321 -4 c25 -17 42 -52 42 -90 0 -13 -18 -60 -40
-103 l-39 -79 96 -22 c118 -27 153 -55 153 -118 0 -58 -5 -65 -81 -128 l-69
-56 84 -63 c90 -69 96 -77 96 -135 0 -56 -30 -83 -127 -115 -71 -23 -82 -29
-74 -43 5 -9 28 -48 50 -87 23 -38 41 -81 41 -95 0 -35 -35 -89 -65 -100 -31
-12 -170 -1 -189 14 -15 12 -202 1183 -191 1194 11 12 239 50 265 45 14 -2 35
-11 48 -19z m-1090 -546 c-46 -111 -30 -251 33 -283 16 -9 29 -18 29 -20 0 -5
-127 60 -219 113 l-43 24 108 109 c60 60 110 109 111 109 2 0 -7 -24 -19 -52z
m702 -363 c26 -165 46 -301 45 -303 -2 -3 -424 218 -515 269 -9 5 11 6 46 2
77 -7 145 14 203 64 31 26 58 67 102 154 32 65 60 129 60 141 2 21 2 21 6 -2
3 -14 26 -160 53 -325z m-1173 158 c-3 -10 -5 -4 -5 12 0 17 2 24 5 18 2 -7 2
-21 0 -30z m54 -80 c13 -16 12 -17 -3 -4 -10 7 -18 15 -18 17 0 8 8 3 21 -13z
m586 -311 l352 -186 -24 -46 c-29 -57 -62 -80 -115 -80 -35 0 -48 7 -90 46
l-48 45 -47 -35 c-83 -64 -151 -42 -196 62 -20 49 -24 53 -48 48 -14 -4 -45
-9 -68 -13 -77 -10 -123 46 -123 154 l0 42 -52 7 c-101 14 -133 84 -88 189
l20 47 87 -47 c49 -26 246 -130 440 -233z m43 212 c0 -2 -9 0 -20 6 -11 6 -20
13 -20 16 0 2 9 0 20 -6 11 -6 20 -13 20 -16z m757 -346 c-3 -7 -5 -2 -5 12 0
14 2 19 5 13 2 -7 2 -19 0 -25z m10 -60 c-3 -8 -6 -5 -6 6 -1 11 2 17 5 13 3
-3 4 -12 1 -19z m-347 -54 c0 -2 -13 2 -30 11 -16 9 -30 18 -30 21 0 2 14 -2
30 -11 17 -9 30 -18 30 -21z m357 -21 c-3 -10 -5 -4 -5 12 0 17 2 24 5 18 2
-7 2 -21 0 -30z m-187 -69 c0 -2 -13 2 -30 11 -16 9 -30 18 -30 21 0 2 14 -2
30 -11 17 -9 30 -18 30 -21z m170 12 c0 -2 -8 -10 -17 -17 -16 -13 -17 -12 -4
4 13 16 21 21 21 13z m-83 -42 c-3 -3 -12 -4 -19 -1 -8 3 -5 6 6 6 11 1 17 -2
13 -5z m-2027 -898 l0 -187 -247 3 c-241 3 -249 4 -280 26 l-33 23 0 157 0
157 280 4 280 4 0 -187z m1130 -1 l0 -185 -275 0 -275 0 0 180 0 179 103 4
c56 1 180 4 275 5 l172 2 0 -185z m1150 1 l0 -186 -280 0 -280 0 0 183 0 182
280 4 280 4 0 -187z m1050 0 l0 -186 -280 0 -280 0 0 183 0 182 280 4 280 4 0
-187z"/>
<path d="M2510 3660 c0 -5 5 -10 10 -10 6 0 10 5 10 10 0 6 -4 10 -10 10 -5 0
-10 -4 -10 -10z"/>
<path d="M2376 3402 c-3 -5 1 -15 9 -22 16 -14 20 -3 6 19 -5 8 -11 9 -15 3z"/>
</g>
</svg>
