<?xml version="1.0" standalone="no"?>
<!DOCTYPE svg PUBLIC "-//W3C//DTD SVG 20010904//EN"
 "http://www.w3.org/TR/2001/REC-SVG-20010904/DTD/svg10.dtd">
<svg version="1.0" xmlns="http://www.w3.org/2000/svg"
 width="640.000000pt" height="640.000000pt" viewBox="0 0 640.000000 640.000000"
 preserveAspectRatio="xMidYMid meet">
<metadata>
Created by potrace 1.16, written by Peter Selinger 2001-2019
</metadata>
<g transform="translate(0.000000,640.000000) scale(0.100000,-0.100000)"
fill="#000000" stroke="none">
<path d="M0 3200 l0 -3200 3200 0 3200 0 0 3200 0 3200 -3200 0 -3200 0 0
-3200z m1203 2023 c-7 -2 -19 -2 -25 0 -7 3 -2 5 12 5 14 0 19 -2 13 -5z
m-233 -76 c0 -2 -17 -19 -37 -38 l-38 -34 34 38 c33 34 41 42 41 34z m4505
-37 c21 -22 37 -40 34 -40 -3 0 -23 18 -44 40 -21 22 -37 40 -34 40 3 0 23
-18 44 -40z m-3835 -270 l0 -180 -305 0 -305 0 0 115 c0 80 4 124 14 143 18
35 64 78 96 91 14 5 130 10 263 10 l237 1 0 -180z m1130 0 l0 -180 -405 0
-405 0 0 180 0 180 405 0 405 0 0 -180z m1150 0 l0 -180 -410 0 -410 0 0 180
0 180 410 0 410 0 0 -180z m1050 0 l0 -180 -410 0 -410 0 0 180 0 180 410 0
410 0 0 -180z m347 128 c44 -49 53 -82 53 -198 l0 -110 -45 0 -45 0 0 165 c0
91 4 165 8 165 5 0 18 -10 29 -22z m-4490 -70 c-3 -7 -5 -2 -5 12 0 14 2 19 5
13 2 -7 2 -19 0 -25z m4750 0 c-3 -7 -5 -2 -5 12 0 14 2 19 5 13 2 -7 2 -19 0
-25z m-2495 -638 c14 -11 45 -53 68 -95 24 -41 46 -75 50 -75 3 0 35 29 70 65
76 77 112 93 163 71 49 -20 65 -49 78 -141 7 -44 15 -83 18 -87 3 -4 39 9 80
28 95 44 141 45 183 4 28 -28 30 -35 26 -90 -3 -60 -3 -60 32 -78 19 -9 39
-27 45 -39 8 -18 18 -23 48 -23 31 0 46 -7 73 -34 45 -45 45 -84 0 -159 l-35
-57 33 -14 c37 -16 61 -42 30 -33 -108 32 -1340 327 -1364 327 -22 0 -41 -9
-61 -29 -28 -28 -29 -33 -29 -118 0 -49 11 -345 25 -657 14 -313 23 -571 20
-574 -3 -3 -5 17 -5 44 0 45 -3 51 -35 71 -37 25 -55 69 -55 140 l0 42 -52 7
c-100 13 -133 84 -89 187 l20 45 -29 12 c-51 21 -84 66 -85 114 -1 43 -4 46
-127 161 -133 122 -163 165 -152 212 15 61 53 83 182 104 50 7 82 17 82 25 0
6 -15 45 -33 85 -19 41 -37 86 -41 101 -10 42 17 95 58 115 34 16 40 15 138
-5 57 -12 106 -22 110 -22 3 0 8 51 10 114 3 105 5 117 27 140 26 27 76 42
109 32 10 -4 55 -33 98 -66 43 -32 82 -56 85 -52 3 4 21 45 40 92 18 47 44 95
58 107 31 30 98 31 133 3z m-119 -701 c75 -18 137 -37 137 -41 0 -4 -20 -8
-45 -8 -59 0 -159 -46 -204 -94 -19 -20 -39 -36 -43 -36 -4 0 -8 50 -8 111 0
85 3 110 13 107 6 -3 74 -20 150 -39z m1178 -96 l24 -28 -30 25 c-16 14 -32
26 -34 28 -2 1 0 2 6 2 5 0 20 -12 34 -27z m-583 -50 c149 -37 271 -71 270
-75 -2 -4 -223 -188 -493 -409 l-490 -402 -6 99 c-4 54 -10 186 -13 293 -5
184 -5 194 10 161 78 -172 284 -222 423 -103 31 26 58 67 102 154 32 65 59
129 59 141 0 22 -75 158 -88 158 -12 0 -68 49 -57 50 6 0 133 -30 283 -67z
m609 -45 c-3 -7 -5 -2 -5 12 0 14 2 19 5 13 2 -7 2 -19 0 -25z m-17 -42 c0 -2
-8 -10 -17 -17 -16 -13 -17 -12 -4 4 13 16 21 21 21 13z m-40 -29 c0 -2 -10
-12 -22 -23 l-23 -19 19 23 c18 21 26 27 26 19z m-1293 -129 c-2 -18 -4 -4 -4
32 0 36 2 50 4 33 2 -18 2 -48 0 -65z m1233 79 c0 -2 -10 -12 -22 -23 l-23
-19 19 23 c18 21 26 27 26 19z m46 -122 c8 -11 14 -38 14 -62 0 -60 -28 -86
-127 -118 -71 -23 -82 -29 -74 -43 5 -9 28 -48 50 -87 46 -78 50 -105 21 -153
-28 -46 -57 -54 -154 -44 -44 5 -82 9 -83 8 0 -1 6 -43 14 -94 13 -87 13 -95
-4 -130 -14 -29 -27 -40 -61 -51 -42 -13 -46 -12 -115 22 -39 20 -74 34 -78
31 -3 -2 -12 -32 -18 -66 -22 -119 -48 -148 -129 -148 -36 0 -46 6 -94 58
l-53 58 -44 -69 c-45 -71 -68 -87 -125 -87 -46 0 -80 30 -106 95 -14 34 -27
52 -34 48 -30 -17 56 56 557 468 l542 446 44 -31 c24 -17 50 -40 57 -51z
m-1449 -827 c-3 -7 -5 -2 -5 12 0 14 2 19 5 13 2 -7 2 -19 0 -25z m233 -11 c0
-2 -10 -12 -22 -23 l-23 -19 19 23 c18 21 26 27 26 19z m-200 -42 c13 -14 21
-25 18 -25 -2 0 -15 11 -28 25 -13 14 -21 25 -18 25 2 0 15 -11 28 -25z
m-1040 -800 l0 -185 -241 0 c-231 0 -243 1 -281 22 -22 13 -51 41 -64 64 -22
37 -24 52 -24 162 l0 122 305 0 305 0 0 -185z m1130 0 l0 -185 -405 0 -405 0
0 180 0 179 103 4 c56 1 238 4 405 5 l302 2 0 -185z m1150 1 l0 -186 -410 0
-410 0 0 183 0 182 410 4 410 4 0 -187z m1050 0 l0 -186 -410 0 -410 0 0 183
0 182 410 4 410 4 0 -187z m400 63 c0 -123 -10 -158 -59 -203 l-31 -30 0 175
0 174 45 -3 45 -4 0 -109z m207 -151 c-3 -8 -6 -5 -6 6 -1 11 2 17 5 13 3 -3
4 -12 1 -19z m-27 -86 c0 -5 -7 -17 -15 -28 -14 -18 -14 -17 -4 9 12 27 19 34
19 19z m-4649 -69 c13 -16 12 -17 -3 -4 -10 7 -18 15 -18 17 0 8 8 3 21 -13z
m4628 14 c-2 -1 -13 -9 -24 -17 -19 -14 -19 -14 -6 3 7 9 18 17 24 17 6 0 8
-1 6 -3z m-4559 -82 c7 -9 8 -15 2 -15 -5 0 -12 7 -16 15 -3 8 -4 15 -2 15 2
0 9 -7 16 -15z m4480 11 c0 -2 -8 -10 -17 -17 -16 -13 -17 -12 -4 4 13 16 21
21 21 13z m-4273 -92 c-3 -3 -12 -4 -19 -1 -8 3 -5 6 6 6 11 1 17 -2 13 -5z"/>
<path d="M3031 3924 c0 -11 3 -14 6 -6 3 7 2 16 -1 19 -3 4 -6 -2 -5 -13z"/>
</g>
</svg>
