<?xml version="1.0" standalone="no"?>
<!DOCTYPE svg PUBLIC "-//W3C//DTD SVG 20010904//EN"
 "http://www.w3.org/TR/2001/REC-SVG-20010904/DTD/svg10.dtd">
<svg version="1.0" xmlns="http://www.w3.org/2000/svg"
 width="640.000000pt" height="640.000000pt" viewBox="0 0 640.000000 640.000000"
 preserveAspectRatio="xMidYMid meet">
<metadata>
Created by potrace 1.16, written by Peter Selinger 2001-2019
</metadata>
<g transform="translate(0.000000,640.000000) scale(0.100000,-0.100000)"
fill="#000000" stroke="none">
<path d="M0 3200 l0 -3200 3200 0 3200 0 0 3200 0 3200 -3200 0 -3200 0 0
-3200z m1203 2023 c-7 -2 -19 -2 -25 0 -7 3 -2 5 12 5 14 0 19 -2 13 -5z
m4282 -123 c10 -11 16 -20 13 -20 -3 0 -13 9 -23 20 -10 11 -16 20 -13 20 3 0
13 -9 23 -20z m-3845 -260 l0 -180 -305 0 -305 0 0 111 c0 119 10 157 55 199
46 43 86 49 328 50 l227 0 0 -180z m1130 0 l0 -180 -320 0 -320 0 0 180 0 180
320 0 320 0 0 -180z m1150 0 l0 -180 -325 0 -325 0 0 180 0 180 325 0 325 0 0
-180z m1050 0 l0 -180 -325 0 -325 0 0 180 0 180 325 0 325 0 0 -180z m607 68
c-3 -8 -6 -5 -6 6 -1 11 2 17 5 13 3 -3 4 -12 1 -19z m-2495 -648 c14 -11 45
-53 68 -95 24 -41 46 -75 50 -75 3 0 35 29 70 65 76 77 112 93 163 71 47 -19
64 -47 77 -131 6 -38 13 -80 15 -91 4 -19 -51 -47 -577 -290 -498 -230 -584
-273 -600 -299 -29 -48 -23 -86 20 -136 87 -101 651 -750 711 -819 67 -76 60
-79 -15 -7 l-42 39 -47 -36 c-83 -64 -151 -43 -196 62 -20 49 -24 53 -48 48
-14 -4 -45 -9 -68 -13 -77 -10 -123 46 -123 154 l0 42 -52 7 c-100 13 -133 84
-89 187 l20 45 -29 12 c-51 21 -84 66 -85 114 -1 43 -4 46 -127 161 -133 122
-163 165 -152 212 15 61 53 83 182 104 50 7 82 17 82 25 0 6 -15 45 -33 85
-19 41 -37 86 -41 101 -10 42 17 95 58 115 34 16 40 15 138 -5 57 -12 106 -22
110 -22 3 0 8 51 10 114 3 105 5 117 27 140 26 27 76 42 109 32 10 -4 55 -33
98 -66 43 -32 82 -56 85 -52 3 4 21 45 40 92 18 47 44 95 58 107 31 30 98 31
133 3z m615 -206 c-3 -3 -12 -4 -19 -1 -8 3 -5 6 6 6 11 1 17 -2 13 -5z m85
-16 c13 -13 17 -18 8 -11 -8 7 -27 16 -40 22 -17 6 -19 10 -8 10 9 1 27 -9 40
-21z m-212 -38 c-8 -5 -19 -10 -25 -10 -5 0 -3 5 5 10 8 5 20 10 25 10 6 0 3
-5 -5 -10z m247 -92 c-3 -8 -6 -5 -6 6 -1 11 2 17 5 13 3 -3 4 -12 1 -19z m51
-55 c25 -16 42 -51 42 -89 0 -13 -18 -60 -40 -103 l-39 -79 96 -22 c118 -27
153 -55 153 -118 0 -58 -5 -65 -81 -128 l-69 -56 84 -63 c90 -69 96 -77 96
-135 0 -56 -30 -83 -127 -115 -71 -23 -82 -29 -74 -43 5 -9 28 -48 50 -87 46
-78 50 -105 21 -153 -28 -46 -57 -54 -154 -44 -44 5 -82 9 -83 8 0 -1 6 -43
14 -94 13 -87 13 -95 -4 -130 -14 -29 -27 -40 -60 -50 -41 -13 -46 -13 -110
19 -38 18 -74 33 -81 32 -8 -1 -12 6 -9 16 2 9 73 341 158 739 146 683 155
721 174 716 11 -3 30 -13 43 -21z m-300 -105 c-39 -195 -264 -1228 -268 -1227
-3 0 -97 107 -209 237 -113 130 -196 230 -185 221 76 -62 176 -83 261 -55 84
28 127 74 194 207 32 65 59 129 59 141 0 13 -17 51 -38 85 -67 113 -218 191
-324 168 -18 -4 -31 -5 -28 -2 8 8 523 246 534 247 4 0 6 -10 4 -22z m-578
-248 c-8 -5 -19 -10 -25 -10 -5 0 -3 5 5 10 8 5 20 10 25 10 6 0 3 -5 -5 -10z
m-142 -87 c-53 -55 -98 -154 -98 -217 l-1 -41 -55 60 c-30 33 -63 72 -74 86
l-19 26 142 67 c78 36 144 66 147 66 2 0 -17 -21 -42 -47z m-52 -305 l29 -33
-32 29 c-31 28 -38 36 -30 36 2 0 16 -15 33 -32z m60 -70 l29 -33 -32 29 c-31
28 -38 36 -30 36 2 0 16 -15 33 -32z m330 -700 l29 -33 -32 29 c-31 28 -38 36
-30 36 2 0 16 -15 33 -32z m70 -80 l29 -33 -32 29 c-31 28 -38 36 -30 36 2 0
16 -15 33 -32z m211 10 c-3 -8 -6 -5 -6 6 -1 11 2 17 5 13 3 -3 4 -12 1 -19z
m-143 -77 c-2 -3 -12 3 -22 13 -16 17 -16 18 5 5 12 -7 20 -15 17 -18z m-1684
-746 l0 -186 -249 3 -249 3 -39 31 c-62 49 -73 82 -73 211 l0 112 88 4 c48 1
185 4 305 5 l217 2 0 -185z m1130 1 l0 -186 -320 0 -320 0 0 183 0 182 320 4
320 4 0 -187z m1150 0 l0 -186 -325 0 -325 0 0 183 0 182 325 4 325 4 0 -187z
m1050 0 l0 -186 -325 0 -324 0 -3 183 -3 182 328 4 327 3 0 -186z m570 -196
c-6 -11 -13 -20 -16 -20 -2 0 0 9 6 20 6 11 13 20 16 20 2 0 0 -9 -6 -20z
m-11 -33 c-2 -1 -13 -9 -24 -17 -19 -14 -19 -14 -6 3 7 9 18 17 24 17 6 0 8
-1 6 -3z m-4352 -163 c-3 -3 -12 -4 -19 -1 -8 3 -5 6 6 6 11 1 17 -2 13 -5z"/>
<path d="M3031 3924 c0 -11 3 -14 6 -6 3 7 2 16 -1 19 -3 4 -6 -2 -5 -13z"/>
<path d="M2510 3660 c0 -5 5 -10 10 -10 6 0 10 5 10 10 0 6 -4 10 -10 10 -5 0
-10 -4 -10 -10z"/>
</g>
</svg>
