<?xml version="1.0" standalone="no"?>
<!DOCTYPE svg PUBLIC "-//W3C//DTD SVG 20010904//EN"
 "http://www.w3.org/TR/2001/REC-SVG-20010904/DTD/svg10.dtd">
<svg version="1.0" xmlns="http://www.w3.org/2000/svg"
 width="640.000000pt" height="640.000000pt" viewBox="0 0 640.000000 640.000000"
 preserveAspectRatio="xMidYMid meet">
<metadata>
Created by potrace 1.16, written by Peter Selinger 2001-2019
</metadata>
<g transform="translate(0.000000,640.000000) scale(0.100000,-0.100000)"
fill="#000000" stroke="none">
<path d="M0 3200 l0 -3200 3200 0 3200 0 0 3200 0 3200 -3200 0 -3200 0 0
-3200z m1203 2023 c-7 -2 -19 -2 -25 0 -7 3 -2 5 12 5 14 0 19 -2 13 -5z
m4024 1 c-3 -3 -12 -4 -19 -1 -8 3 -5 6 6 6 11 1 17 -2 13 -5z m-4257 -77 c0
-2 -19 -21 -42 -42 l-43 -40 40 43 c36 39 45 47 45 39z m4505 -37 c21 -22 37
-40 34 -40 -3 0 -23 18 -44 40 -21 22 -37 40 -34 40 3 0 23 -18 44 -40z
m-3835 -270 l0 -180 -305 0 -305 0 0 115 c0 80 4 124 14 143 18 35 64 78 96
91 14 5 130 10 263 10 l237 1 0 -180z m1130 0 l0 -180 -495 0 -495 0 0 180 0
180 495 0 495 0 0 -180z m1150 0 l0 -180 -495 0 -495 0 0 180 0 180 495 0 495
0 0 -180z m1050 0 l0 -180 -495 0 -495 0 0 180 0 180 495 0 495 0 0 -180z
m272 170 c21 -6 51 -22 68 -37 52 -43 60 -70 60 -198 l0 -115 -130 0 -130 0 0
180 0 180 48 0 c26 0 64 -5 84 -10z m-4412 -95 c0 -8 -2 -15 -4 -15 -2 0 -6 7
-10 15 -3 8 -1 15 4 15 6 0 10 -7 10 -15z m4747 -17 c-3 -7 -5 -2 -5 12 0 14
2 19 5 13 2 -7 2 -19 0 -25z m-2495 -638 c14 -11 45 -53 68 -95 24 -41 46 -75
50 -75 3 0 35 29 70 65 76 77 112 93 163 71 49 -20 65 -49 78 -141 7 -44 15
-83 18 -87 3 -4 39 9 80 28 95 44 141 45 183 4 28 -28 30 -35 26 -90 -3 -60
-3 -60 32 -78 19 -9 39 -27 45 -39 8 -18 18 -23 48 -23 31 0 46 -7 73 -34 45
-45 45 -84 0 -159 l-35 -57 33 -14 c19 -8 36 -19 40 -24 3 -6 20 -13 36 -17
39 -8 80 -58 80 -96 0 -44 -22 -80 -74 -118 -25 -19 -46 -37 -46 -40 0 -3 23
-19 52 -36 120 -71 117 -174 -7 -226 l-55 -23 27 -30 c15 -17 9 -13 -14 9 -22
22 -231 247 -463 500 -232 253 -437 475 -456 493 -42 40 -99 44 -138 10 -14
-13 -149 -230 -301 -483 -153 -253 -279 -461 -280 -463 -6 -7 -61 27 -85 53
-18 19 -25 38 -25 69 -1 43 -4 46 -127 161 -133 122 -163 165 -152 212 15 61
53 83 182 104 50 7 82 17 82 25 0 6 -15 45 -33 85 -19 41 -37 86 -41 101 -10
42 17 95 58 115 34 16 40 15 138 -5 57 -12 106 -22 110 -22 3 0 8 51 10 114 3
105 5 117 27 140 26 27 76 42 109 32 10 -4 55 -33 98 -66 43 -32 82 -56 85
-52 3 4 21 45 40 92 18 47 44 95 58 107 31 30 98 31 133 3z m169 -760 c68 -74
101 -114 73 -88 -56 50 -109 81 -164 94 -52 11 -149 5 -184 -13 l-30 -16 15
24 c9 13 38 61 65 106 l49 83 26 -28 c14 -15 82 -88 150 -162z m378 -410 l170
-185 -37 -8 c-55 -11 -1224 -128 -1229 -123 -4 4 268 468 287 489 4 5 5 -23 2
-62 -3 -52 0 -81 12 -112 71 -178 283 -234 425 -112 31 26 58 67 102 154 63
127 68 150 43 189 -26 39 35 -23 225 -230z m489 -235 c-3 -3 -9 2 -12 12 -6
14 -5 15 5 6 7 -7 10 -15 7 -18z m-7 -88 c-10 -9 -11 -8 -5 6 3 10 9 15 12 12
3 -3 0 -11 -7 -18z m-74 -53 c-3 -3 -12 -4 -19 -1 -8 3 -5 6 6 6 11 1 17 -2
13 -5z m-37 -11 c0 -5 -9 -23 -20 -41 -28 -46 -57 -54 -154 -44 -44 5 -82 9
-83 8 0 -1 6 -43 14 -94 13 -87 13 -95 -4 -130 -14 -29 -27 -40 -61 -51 -42
-13 -46 -12 -115 22 -39 20 -74 34 -78 31 -3 -2 -12 -32 -18 -66 -22 -119 -48
-148 -129 -148 -36 0 -46 6 -94 58 l-53 58 -44 -69 c-45 -71 -68 -87 -124 -87
-47 0 -76 25 -106 92 l-26 59 -59 -45 c-73 -57 -118 -62 -168 -17 -27 24 -32
36 -36 90 -2 33 -5 61 -6 61 0 0 -25 -9 -54 -20 -29 -11 -64 -20 -78 -20 -39
0 -80 26 -94 60 -14 33 -7 117 10 134 9 9 1440 162 1538 165 23 1 42 -2 42 -6z
m-1773 -70 c-3 -10 -5 -2 -5 17 0 19 2 27 5 18 2 -10 2 -26 0 -35z m33 -58
c13 -14 21 -25 18 -25 -2 0 -15 11 -28 25 -13 14 -21 25 -18 25 2 0 15 -11 28
-25z m57 -31 c-3 -3 -12 -4 -19 -1 -8 3 -5 6 6 6 11 1 17 -2 13 -5z m56 -1
c-7 -2 -19 -2 -25 0 -7 3 -2 5 12 5 14 0 19 -2 13 -5z m-733 -1098 l0 -185
-241 0 c-231 0 -243 1 -281 22 -22 13 -51 41 -64 64 -22 37 -24 52 -24 162 l0
122 305 0 305 0 0 -185z m1130 1 l0 -186 -495 0 -495 0 0 183 0 182 495 4 495
4 0 -187z m1150 -1 l0 -185 -495 0 -495 0 0 180 0 179 103 4 c56 1 279 4 495
5 l392 2 0 -185z m1050 1 l0 -186 -495 0 -495 0 0 183 0 182 495 4 495 4 0
-187z m400 61 c0 -102 -3 -125 -20 -156 -33 -58 -83 -85 -167 -89 l-73 -4 0
183 0 184 130 0 130 1 0 -119z m207 -149 c-3 -8 -6 -5 -6 6 -1 11 2 17 5 13 3
-3 4 -12 1 -19z m-27 -86 c0 -5 -7 -17 -15 -28 -14 -18 -14 -17 -4 9 12 27 19
34 19 19z m-4645 -72 c10 -11 16 -20 13 -20 -3 0 -13 9 -23 20 -10 11 -16 20
-13 20 3 0 13 -9 23 -20z m4624 17 c-2 -1 -15 -11 -29 -22 l-25 -20 19 23 c11
12 24 22 29 22 6 0 8 -1 6 -3z m-4564 -77 c10 -11 14 -20 9 -20 -5 0 -15 9
-22 20 -7 11 -11 20 -9 20 2 0 12 -9 22 -20z m4495 17 c0 -2 -10 -12 -22 -23
l-23 -19 19 23 c18 21 26 27 26 19z m-120 -87 c0 -5 -2 -10 -4 -10 -3 0 -8 5
-11 10 -3 6 -1 10 4 10 6 0 11 -4 11 -10z m-30 -10 c0 -5 -2 -10 -4 -10 -3 0
-8 5 -11 10 -3 6 -1 10 4 10 6 0 11 -4 11 -10z m-4133 -6 c-3 -3 -12 -4 -19
-1 -8 3 -5 6 6 6 11 1 17 -2 13 -5z"/>
</g>
</svg>
