<?xml version="1.0" standalone="no"?>
<!DOCTYPE svg PUBLIC "-//W3C//DTD SVG 20010904//EN"
 "http://www.w3.org/TR/2001/REC-SVG-20010904/DTD/svg10.dtd">
<svg version="1.0" xmlns="http://www.w3.org/2000/svg"
 width="640.000000pt" height="640.000000pt" viewBox="0 0 640.000000 640.000000"
 preserveAspectRatio="xMidYMid meet">
<metadata>
Created by potrace 1.16, written by Peter Selinger 2001-2019
</metadata>
<g transform="translate(0.000000,640.000000) scale(0.100000,-0.100000)"
fill="#000000" stroke="none">
<path d="M0 3200 l0 -3200 3200 0 3200 0 0 3200 0 3200 -3200 0 -3200 0 0
-3200z m1203 2023 c-7 -2 -19 -2 -25 0 -7 3 -2 5 12 5 14 0 19 -2 13 -5z
m-233 -76 c0 -2 -19 -21 -42 -42 l-43 -40 40 43 c36 39 45 47 45 39z m4505
-37 c21 -22 37 -40 34 -40 -3 0 -23 18 -44 40 -21 22 -37 40 -34 40 3 0 23
-18 44 -40z m-3835 -270 l0 -180 -305 0 -305 0 0 115 c0 80 4 124 14 143 18
35 64 78 96 91 14 5 130 10 263 10 l237 1 0 -180z m1130 0 l0 -180 -450 0
-450 0 0 180 0 180 450 0 450 0 0 -180z m1150 0 l0 -180 -455 0 -455 0 0 180
0 180 455 0 455 0 0 -180z m1050 0 l0 -180 -455 0 -455 0 0 180 0 180 455 0
455 0 0 -180z m310 155 c68 -35 90 -89 90 -225 l0 -110 -85 0 -85 0 0 180 0
180 28 -6 c15 -4 38 -12 52 -19z m-4450 -80 c0 -8 -2 -15 -4 -15 -2 0 -6 7
-10 15 -3 8 -1 15 4 15 6 0 10 -7 10 -15z m4747 -17 c-3 -7 -5 -2 -5 12 0 14
2 19 5 13 2 -7 2 -19 0 -25z m-2495 -638 c14 -11 45 -53 68 -95 24 -41 46 -75
50 -75 3 0 35 29 70 65 76 77 112 93 163 71 49 -20 65 -49 78 -141 7 -44 15
-83 18 -87 3 -4 39 9 80 28 95 44 141 45 183 4 28 -28 30 -35 26 -90 -3 -60
-3 -60 32 -78 19 -9 39 -27 45 -39 8 -18 18 -23 48 -23 31 0 46 -7 73 -34 45
-45 45 -84 0 -159 l-35 -57 33 -14 c19 -8 36 -19 40 -24 3 -6 20 -13 36 -17
40 -9 80 -58 80 -98 0 -31 -32 -97 -47 -97 -5 0 -24 -15 -44 -33 l-36 -33
-569 345 c-633 384 -618 377 -675 313 -16 -18 -29 -40 -29 -50 0 -15 -2 -15
-11 -2 -9 12 -10 11 -4 -5 7 -22 -275 -1100 -285 -1086 -3 5 -15 11 -27 15
-60 19 -79 97 -44 179 l20 45 -29 12 c-51 21 -84 66 -85 114 -1 43 -4 46 -127
161 -133 122 -163 165 -152 212 15 61 53 83 182 104 50 7 82 17 82 25 0 6 -15
45 -33 85 -19 41 -37 86 -41 101 -10 42 17 95 58 115 34 16 40 15 138 -5 57
-12 106 -22 110 -22 3 0 8 51 10 114 3 105 5 117 27 140 26 27 76 42 109 32
10 -4 55 -33 98 -66 43 -32 82 -56 85 -52 3 4 21 45 40 92 18 47 44 95 58 107
31 30 98 31 133 3z m15 -692 c73 -44 133 -82 133 -83 0 -1 -19 4 -42 12 -69
25 -167 18 -243 -16 -36 -17 -65 -35 -65 -42 0 -7 -2 -10 -5 -7 -3 2 -1 18 4
34 6 16 20 66 32 112 17 67 25 82 37 77 9 -3 76 -42 149 -87z m468 -283 c116
-71 228 -139 249 -153 l39 -24 -593 -239 c-327 -131 -595 -237 -597 -235 -2 2
31 135 74 296 78 292 78 293 84 234 7 -71 20 -104 60 -155 64 -82 187 -118
286 -85 84 28 127 74 194 207 32 65 59 128 59 140 0 22 -39 98 -69 133 -9 11
-11 17 -6 14 6 -3 105 -63 220 -133z m535 -81 c0 -2 -9 0 -20 6 -11 6 -20 13
-20 16 0 2 9 0 20 -6 11 -6 20 -13 20 -16z m61 -41 c13 -16 12 -17 -3 -4 -17
13 -22 21 -14 21 2 0 10 -8 17 -17z m21 -115 c-8 -8 -9 -4 -5 13 4 13 8 18 11
10 2 -7 -1 -18 -6 -23z m-12 -22 c0 -2 -8 -10 -17 -17 -16 -13 -17 -12 -4 4
13 16 21 21 21 13z m-170 -306 c0 -35 -35 -89 -66 -100 -17 -7 -56 -7 -108 -2
-44 5 -82 9 -83 8 0 -1 6 -43 14 -94 13 -87 13 -95 -4 -130 -14 -29 -27 -40
-61 -51 -42 -13 -46 -12 -115 22 -39 20 -74 34 -78 31 -3 -2 -12 -32 -18 -66
-22 -119 -48 -148 -129 -148 -36 0 -46 6 -94 58 l-53 58 -44 -69 c-45 -71 -68
-87 -124 -87 -47 0 -76 25 -106 92 l-26 59 -59 -45 c-72 -57 -118 -62 -167
-18 -27 24 -32 37 -38 93 l-7 66 636 255 635 256 48 -81 c26 -45 47 -93 47
-107z m-2360 -1275 l0 -185 -241 0 c-231 0 -243 1 -281 22 -22 13 -51 41 -64
64 -22 37 -24 52 -24 162 l0 122 305 0 305 0 0 -185z m1130 1 l0 -186 -450 0
-450 0 0 183 0 182 450 4 450 4 0 -187z m1150 0 l0 -186 -455 0 -455 0 0 183
0 182 455 4 455 4 0 -187z m1050 0 l0 -186 -455 0 -455 0 0 183 0 182 455 4
455 4 0 -187z m400 61 c0 -87 -4 -120 -18 -146 -22 -44 -77 -89 -120 -97 l-32
-6 0 183 0 184 85 -3 85 -3 0 -112z m207 -149 c-3 -8 -6 -5 -6 6 -1 11 2 17 5
13 3 -3 4 -12 1 -19z m-27 -86 c0 -5 -7 -17 -15 -28 -14 -18 -14 -17 -4 9 12
27 19 34 19 19z m-4649 -69 c13 -16 12 -17 -3 -4 -10 7 -18 15 -18 17 0 8 8 3
21 -13z m4628 14 c-2 -1 -15 -11 -29 -22 l-25 -20 19 23 c11 12 24 22 29 22 6
0 8 -1 6 -3z m-69 -60 c0 -2 -10 -12 -22 -23 l-23 -19 19 23 c18 21 26 27 26
19z m-4490 -22 c7 -9 8 -15 2 -15 -5 0 -12 7 -16 15 -3 8 -4 15 -2 15 2 0 9
-7 16 -15z m4340 -75 c0 -5 -2 -10 -4 -10 -3 0 -8 5 -11 10 -3 6 -1 10 4 10 6
0 11 -4 11 -10z m-4133 -6 c-3 -3 -12 -4 -19 -1 -8 3 -5 6 6 6 11 1 17 -2 13
-5z"/>
<path d="M3031 3924 c0 -11 3 -14 6 -6 3 7 2 16 -1 19 -3 4 -6 -2 -5 -13z"/>
</g>
</svg>
