<?xml version="1.0" standalone="no"?>
<!DOCTYPE svg PUBLIC "-//W3C//DTD SVG 20010904//EN"
 "http://www.w3.org/TR/2001/REC-SVG-20010904/DTD/svg10.dtd">
<svg version="1.0" xmlns="http://www.w3.org/2000/svg"
 width="640.000000pt" height="640.000000pt" viewBox="0 0 640.000000 640.000000"
 preserveAspectRatio="xMidYMid meet">
<metadata>
Created by potrace 1.16, written by Peter Selinger 2001-2019
</metadata>
<g transform="translate(0.000000,640.000000) scale(0.100000,-0.100000)"
fill="#000000" stroke="none">
<path d="M0 3200 l0 -3200 3200 0 3200 0 0 3200 0 3200 -3200 0 -3200 0 0
-3200z m1640 1640 l0 -180 -235 0 -235 0 0 180 0 180 235 0 235 0 0 -180z
m1130 0 l0 -180 -235 0 -235 0 0 180 0 180 235 0 235 0 0 -180z m1150 0 l0
-180 -240 0 -240 0 0 180 0 180 240 0 240 0 0 -180z m1050 0 l0 -180 -235 0
-235 0 0 180 0 180 235 0 235 0 0 -180z m-1980 -564 c0 -2 -7 -7 -16 -10 -8
-3 -12 -2 -9 4 6 10 25 14 25 6z m132 -61 c11 -21 8 -18 -32 30 -24 29 -24 29
-2 10 13 -11 28 -29 34 -40z m-427 -54 c17 -10 57 -39 90 -64 33 -25 63 -43
68 -40 4 3 1 -12 -8 -34 -9 -21 -31 -73 -48 -116 -21 -55 -33 -74 -40 -65 -6
9 -7 7 -3 -6 7 -19 -302 -796 -317 -796 -17 0 -387 355 -402 386 -26 56 -1
114 60 139 17 7 67 18 113 26 50 7 82 17 82 25 0 6 -15 45 -33 85 -19 41 -37
86 -41 101 -10 42 17 95 58 115 34 16 40 15 138 -5 57 -12 106 -22 110 -22 3
0 8 51 10 114 2 97 6 117 23 136 39 43 92 51 140 21z m490 -461 c70 -118 137
-231 148 -250 l22 -35 -30 19 c-17 11 -47 32 -67 47 -23 16 -63 32 -101 39
-55 10 -79 9 -182 -10 -65 -11 -119 -19 -121 -17 -2 2 35 98 83 214 67 166 89
210 101 205 11 -4 13 -1 7 9 -5 9 -5 11 2 4 6 -5 68 -107 138 -225z m683 154
c25 -17 42 -52 42 -90 0 -13 -18 -60 -40 -103 l-39 -79 96 -22 c118 -27 153
-55 153 -118 0 -58 -5 -65 -81 -128 l-69 -56 84 -63 c90 -69 96 -77 96 -135 0
-56 -30 -83 -128 -115 -54 -18 -80 -31 -76 -38 5 -8 4 -9 -3 -2 -18 17 -555
919 -541 907 10 -8 67 -1 223 28 213 39 242 40 283 14z m-293 -807 c65 -108
116 -199 114 -201 -2 -2 -139 11 -304 29 -165 18 -291 33 -279 34 44 2 115 34
156 71 32 28 59 70 107 168 55 111 67 128 76 114 7 -9 65 -106 130 -215z
m-792 -6 c14 -29 38 -67 54 -83 l28 -31 -50 6 c-27 4 -81 9 -118 13 -37 4 -66
10 -65 14 2 4 28 68 58 143 l55 135 6 -71 c4 -46 15 -91 32 -126z m160 -118
c-7 -2 -21 -2 -30 0 -10 3 -4 5 12 5 17 0 24 -2 18 -5z m90 -10 c-7 -2 -21 -2
-30 0 -10 3 -4 5 12 5 17 0 24 -2 18 -5z m-618 -123 c10 -11 16 -20 13 -20 -3
0 -13 9 -23 20 -10 11 -16 20 -13 20 3 0 13 -9 23 -20z m600 -85 c226 -24 396
-43 380 -44 -29 -1 -34 -8 -85 -112 -61 -124 -86 -149 -149 -149 -36 0 -49 7
-91 46 l-48 45 -47 -35 c-83 -64 -151 -42 -196 62 -20 49 -24 53 -48 48 -14
-4 -45 -9 -68 -13 -77 -10 -123 47 -123 154 0 35 -3 42 -22 46 -35 7 53 -1
497 -48z m982 -2 c-3 -10 -5 -2 -5 17 0 19 2 27 5 18 2 -10 2 -26 0 -35z
m-484 -50 c-7 -2 -21 -2 -30 0 -10 3 -4 5 12 5 17 0 24 -2 18 -5z m452 -13
c-10 -11 -22 -20 -28 -20 -5 0 1 9 14 20 31 25 37 25 14 0z m-362 3 c-7 -2
-21 -2 -30 0 -10 3 -4 5 12 5 17 0 24 -2 18 -5z m100 -10 c-7 -2 -21 -2 -30 0
-10 3 -4 5 12 5 17 0 24 -2 18 -5z m100 -10 c-7 -2 -21 -2 -30 0 -10 3 -4 5
12 5 17 0 24 -2 18 -5z m105 -10 c-10 -2 -26 -2 -35 0 -10 3 -2 5 17 5 19 0
27 -2 18 -5z m-2268 -1167 l0 -186 -235 0 -235 0 0 183 0 182 235 4 235 3 0
-186z m1130 0 l0 -186 -235 0 -235 0 0 183 0 182 235 4 235 3 0 -186z m1150 0
l0 -186 -240 0 -240 0 0 183 0 182 240 4 240 3 0 -186z m1050 -1 l0 -185 -235
0 -235 0 0 180 0 179 103 4 c56 1 162 4 235 5 l132 2 0 -185z"/>
<path d="M2510 3660 c0 -5 5 -10 10 -10 6 0 10 5 10 10 0 6 -4 10 -10 10 -5 0
-10 -4 -10 -10z"/>
<path d="M2376 3402 c-3 -5 1 -15 9 -22 16 -14 20 -3 6 19 -5 8 -11 9 -15 3z"/>
</g>
</svg>
