<?xml version="1.0" standalone="no"?>
<!DOCTYPE svg PUBLIC "-//W3C//DTD SVG 20010904//EN"
 "http://www.w3.org/TR/2001/REC-SVG-20010904/DTD/svg10.dtd">
<svg version="1.0" xmlns="http://www.w3.org/2000/svg"
 width="640.000000pt" height="640.000000pt" viewBox="0 0 640.000000 640.000000"
 preserveAspectRatio="xMidYMid meet">
<metadata>
Created by potrace 1.16, written by Peter Selinger 2001-2019
</metadata>
<g transform="translate(0.000000,640.000000) scale(0.100000,-0.100000)"
fill="#000000" stroke="none">
<path d="M0 3200 l0 -3200 3200 0 3200 0 0 3200 0 3200 -3200 0 -3200 0 0
-3200z m1203 2023 c-7 -2 -19 -2 -25 0 -7 3 -2 5 12 5 14 0 19 -2 13 -5z
m-268 -113 c-21 -22 -40 -38 -43 -36 -4 4 69 75 78 76 2 0 -13 -18 -35 -40z
m4540 0 c21 -22 37 -40 34 -40 -3 0 -23 18 -44 40 -21 22 -37 40 -34 40 3 0
23 -18 44 -40z m-3565 -270 l0 -180 -440 0 -440 0 0 109 c0 120 8 152 48 195
52 55 56 55 460 56 l372 0 0 -180z m2200 0 l0 -180 -1065 0 -1065 0 0 180 0
180 1065 0 1065 0 0 -180z m1130 0 l0 -180 -540 0 -540 0 0 180 0 180 540 0
540 0 0 -180z m111 78 c15 -30 19 -59 19 -148 l0 -110 -35 0 -34 0 -3 164 c-3
160 -2 164 16 148 10 -9 27 -34 37 -54z m226 -20 c-3 -7 -5 -2 -5 12 0 14 2
19 5 13 2 -7 2 -19 0 -25z m-2959 -825 c-10 -2 -26 -2 -35 0 -10 3 -2 5 17 5
19 0 27 -2 18 -5z m47 -13 c3 -6 -1 -7 -9 -4 -18 7 -21 14 -7 14 6 0 13 -4 16
-10z m-150 -44 c-12 -29 -11 -121 11 -706 13 -370 22 -675 19 -678 -3 -3 -5
11 -5 30 l0 35 -142 22 c-210 32 -234 38 -263 73 -32 38 -32 84 -1 131 l24 35
-29 13 c-72 29 -93 117 -41 169 l29 28 -25 19 c-19 14 -26 30 -29 70 -5 48 -3
55 24 81 26 27 28 32 15 48 -22 30 -10 104 23 131 16 14 26 32 25 46 -4 50 1
70 28 97 16 15 34 47 41 70 8 28 22 47 41 58 17 10 31 28 34 45 3 17 17 34 35
45 17 9 35 27 40 40 6 12 22 27 36 34 14 6 25 15 25 20 0 6 88 77 97 78 1 0
-4 -15 -12 -34z m255 -32 c0 -3 -13 4 -30 16 -16 12 -30 24 -30 26 0 3 14 -4
30 -16 17 -12 30 -24 30 -26z m532 -62 c28 -24 40 -28 76 -24 40 4 46 1 82
-37 25 -26 48 -41 64 -41 27 0 86 -50 86 -74 0 -9 6 -16 14 -16 20 0 76 -49
76 -66 0 -7 16 -29 35 -48 19 -20 35 -44 35 -54 0 -10 11 -33 25 -52 14 -19
25 -43 25 -55 0 -12 5 -26 11 -32 14 -14 27 -78 35 -168 5 -62 4 -67 -8 -45
-8 14 -186 145 -411 301 -219 152 -401 279 -404 283 -8 8 91 111 132 137 44
28 88 24 127 -9z m-402 -28 c0 -3 -13 4 -30 16 -16 12 -30 24 -30 26 0 3 14
-4 30 -16 17 -12 30 -24 30 -26z m130 -90 c0 -3 -13 4 -30 16 -16 12 -30 24
-30 26 0 3 14 -4 30 -16 17 -12 30 -24 30 -26z m-50 -217 c265 -184 288 -201
220 -166 -61 31 -156 32 -222 2 -56 -25 -235 -194 -240 -226 -2 -12 -7 100
-11 248 -5 149 -10 283 -14 299 -6 35 -35 52 267 -157z m291 -204 c13 -16 12
-17 -3 -4 -17 13 -22 21 -14 21 2 0 10 -8 17 -17z m271 -187 c26 -17 46 -35
45 -40 -2 -5 -73 -66 -158 -135 -114 -92 -142 -111 -106 -72 72 77 92 128 92
234 l0 88 -35 30 c-19 17 -1 7 40 -21 41 -29 96 -66 122 -84z m-748 -200 c30
-51 95 -108 152 -132 21 -10 81 -25 133 -33 l94 -16 -205 -166 -205 -166 -7
131 c-3 72 -8 217 -11 321 -5 172 -4 186 9 148 7 -23 25 -62 40 -87z m1066
111 c0 -2 -17 -19 -37 -38 l-38 -34 34 38 c33 34 41 42 41 34z m31 -273 c120
-224 130 -264 81 -314 -26 -26 -38 -30 -85 -30 l-54 0 5 -50 c5 -58 -11 -91
-59 -116 -25 -12 -40 -14 -70 -6 -38 10 -39 9 -39 -17 0 -70 -72 -120 -143
-100 -40 11 -37 12 -37 -7 0 -9 -14 -29 -31 -45 -33 -31 -82 -39 -119 -19 -13
7 -21 5 -31 -6 -34 -41 -99 -55 -137 -28 -12 8 -22 11 -22 5 0 -19 -68 -33
-104 -21 -18 6 -52 8 -75 4 -29 -5 -47 -2 -65 10 -14 9 -32 13 -40 10 -9 -3
-37 1 -63 9 -27 9 -68 21 -93 28 -55 15 -73 29 -39 29 33 0 19 -11 604 463
275 222 503 401 508 398 4 -4 53 -93 108 -197z m-621 63 c0 -2 -10 -12 -22
-23 l-23 -19 19 23 c18 21 26 27 26 19z m-50 -40 c0 -2 -10 -12 -22 -23 l-23
-19 19 23 c18 21 26 27 26 19z m-663 -464 c-2 -21 -4 -6 -4 32 0 39 2 55 4 38
2 -18 2 -50 0 -70z m16 -153 c3 -11 1 -18 -4 -14 -5 3 -9 12 -9 20 0 20 7 17
13 -6z m28 -47 c13 -16 12 -17 -3 -4 -17 13 -22 21 -14 21 2 0 10 -8 17 -17z
m-691 -748 l0 -185 -377 0 -376 0 -43 25 c-66 39 -84 86 -84 221 0 61 3 114 7
117 3 4 201 7 440 7 l433 0 0 -185z m2200 0 l0 -185 -1065 0 -1065 0 0 183 0
183 1065 2 1065 2 0 -185z m1130 1 l0 -186 -540 0 -540 0 0 183 0 182 540 4
540 3 0 -186z m130 63 c0 -116 -11 -159 -49 -193 l-21 -19 0 164 0 165 35 -4
35 -4 0 -109z m207 -151 c-3 -8 -6 -5 -6 6 -1 11 2 17 5 13 3 -3 4 -12 1 -19z
m-36 -101 c-10 -9 -11 -8 -5 6 3 10 9 15 12 12 3 -3 0 -11 -7 -18z m-4640 -54
c13 -16 12 -17 -3 -4 -10 7 -18 15 -18 17 0 8 8 3 21 -13z m4628 14 c-2 -1
-13 -9 -24 -17 -19 -14 -19 -14 -6 3 7 9 18 17 24 17 6 0 8 -1 6 -3z m-4559
-82 c7 -9 8 -15 2 -15 -5 0 -12 7 -16 15 -3 8 -4 15 -2 15 2 0 9 -7 16 -15z
m4475 -4 c-3 -6 -11 -11 -17 -11 -6 0 -6 6 2 15 14 17 26 13 15 -4z m-4435
-31 c0 -5 -2 -10 -4 -10 -3 0 -8 5 -11 10 -3 6 -1 10 4 10 6 0 11 -4 11 -10z
m4237 -46 c-3 -3 -12 -4 -19 -1 -8 3 -5 6 6 6 11 1 17 -2 13 -5z"/>
</g>
</svg>
