<?xml version="1.0" standalone="no"?>
<!DOCTYPE svg PUBLIC "-//W3C//DTD SVG 20010904//EN"
 "http://www.w3.org/TR/2001/REC-SVG-20010904/DTD/svg10.dtd">
<svg version="1.0" xmlns="http://www.w3.org/2000/svg"
 width="640.000000pt" height="640.000000pt" viewBox="0 0 640.000000 640.000000"
 preserveAspectRatio="xMidYMid meet">
<metadata>
Created by potrace 1.16, written by Peter Selinger 2001-2019
</metadata>
<g transform="translate(0.000000,640.000000) scale(0.100000,-0.100000)"
fill="#000000" stroke="none">
<path d="M0 3200 l0 -3200 3200 0 3200 0 0 3200 0 3200 -3200 0 -3200 0 0
-3200z m1710 1640 l0 -180 -50 0 -50 0 0 180 0 180 50 0 50 0 0 -180z m200 0
l0 -180 -45 0 -45 0 0 180 0 180 45 0 45 0 0 -180z m940 0 l0 -180 -50 0 -50
0 0 180 0 180 50 0 50 0 0 -180z m200 0 l0 -180 -45 0 -45 0 0 180 0 180 45 0
45 0 0 -180z m850 0 l0 -180 -45 0 -45 0 0 180 0 180 45 0 45 0 0 -180z m210
0 l0 -180 -50 0 -50 0 0 180 0 180 50 0 50 0 0 -180z m930 0 l0 -180 -50 0
-50 0 0 180 0 180 50 0 50 0 0 -180z m200 0 l0 -180 -50 0 -50 0 0 180 0 180
50 0 50 0 0 -180z m-1934 -922 l35 -33 -228 -135 c-364 -216 -353 -215 -148
-15 99 97 194 185 210 196 46 29 89 25 131 -13z m102 -25 c-10 -2 -28 -2 -40
0 -13 2 -5 4 17 4 22 1 32 -1 23 -4z m52 -28 c13 -14 21 -25 18 -25 -2 0 -15
11 -28 25 -13 14 -21 25 -18 25 2 0 15 -11 28 -25z m-136 -252 c21 -69 77
-296 74 -298 -2 -2 -36 55 -74 128 -51 96 -75 132 -88 131 -22 -2 -15 4 32 32
46 28 49 28 56 7z m-114 -48 c0 -2 -10 -9 -22 -15 -22 -11 -22 -10 -4 4 21 17
26 19 26 11z m-580 -100 c0 -2 -10 -9 -22 -15 -22 -11 -22 -10 -4 4 21 17 26
19 26 11z m-50 -30 c0 -2 -10 -9 -22 -15 -22 -11 -22 -10 -4 4 21 17 26 19 26
11z m183 -196 c-86 -85 -171 -168 -189 -184 l-31 -30 -72 29 c-39 16 -68 32
-65 35 8 9 509 308 511 306 2 -1 -68 -71 -154 -156z m-303 126 c0 -2 -10 -9
-22 -15 -22 -11 -22 -10 -4 4 21 17 26 19 26 11z m1342 -361 c215 -407 224
-430 170 -484 -27 -27 -37 -30 -89 -30 l-59 0 -109 428 c-60 235 -111 434
-113 442 -13 41 24 -26 200 -356z m-1392 331 c0 -2 -10 -9 -22 -15 -22 -11
-22 -10 -4 4 21 17 26 19 26 11z m-220 -130 c0 -2 -10 -9 -22 -15 -22 -11 -22
-10 -4 4 21 17 26 19 26 11z m-92 -62 c-8 -10 -20 -27 -26 -38 -6 -11 -12 -15
-12 -9 0 12 38 64 47 64 3 0 -1 -8 -9 -17z m1349 -15 c-3 -8 -6 -5 -6 6 -1 11
2 17 5 13 3 -3 4 -12 1 -19z m-1352 -128 c10 -11 16 -20 13 -20 -3 0 -13 9
-23 20 -10 11 -16 20 -13 20 3 0 13 -9 23 -20z m477 -210 c191 -79 346 -146
343 -148 -4 -4 -637 94 -707 109 -99 22 -128 114 -61 191 13 15 19 16 47 4 17
-7 187 -77 378 -156z m729 5 l246 -39 18 -74 c9 -40 15 -75 12 -78 -4 -5 -567
223 -577 233 -6 6 -18 8 301 -42z m236 -17 c-3 -8 -6 -5 -6 6 -1 11 2 17 5 13
3 -3 4 -12 1 -19z m103 -428 c8 -5 11 -10 5 -10 -5 0 -17 5 -25 10 -8 5 -10
10 -5 10 6 0 17 -5 25 -10z m113 -37 c-7 -2 -19 -2 -25 0 -7 3 -2 5 12 5 14 0
19 -2 13 -5z m-2043 -874 l0 -179 -50 0 -50 0 0 183 0 182 50 -3 50 -4 0 -179z
m200 6 l0 -185 -45 0 -45 0 0 185 0 185 45 0 45 0 0 -185z m940 -6 l0 -179
-50 0 -50 0 0 183 0 182 50 -3 50 -4 0 -179z m200 6 l0 -185 -45 0 -45 0 0
185 0 185 45 0 45 0 0 -185z m1060 0 l0 -185 -50 0 -50 0 0 185 0 185 50 0 50
0 0 -185z m930 -6 l0 -179 -50 0 -50 0 0 183 0 182 50 -3 50 -4 0 -179z m200
6 l0 -185 -50 0 -50 0 0 178 c0 98 3 182 7 185 3 4 26 7 50 7 l43 0 0 -185z
m-1340 -5 l0 -180 -45 0 -45 0 0 180 0 180 45 0 45 0 0 -180z"/>
</g>
</svg>
