<?xml version="1.0" standalone="no"?>
<!DOCTYPE svg PUBLIC "-//W3C//DTD SVG 20010904//EN"
 "http://www.w3.org/TR/2001/REC-SVG-20010904/DTD/svg10.dtd">
<svg version="1.0" xmlns="http://www.w3.org/2000/svg"
 width="640.000000pt" height="640.000000pt" viewBox="0 0 640.000000 640.000000"
 preserveAspectRatio="xMidYMid meet">
<metadata>
Created by potrace 1.16, written by Peter Selinger 2001-2019
</metadata>
<g transform="translate(0.000000,640.000000) scale(0.100000,-0.100000)"
fill="#000000" stroke="none">
<path d="M0 3200 l0 -3200 3200 0 3200 0 0 3200 0 3200 -3200 0 -3200 0 0
-3200z m1203 2023 c-7 -2 -19 -2 -25 0 -7 3 -2 5 12 5 14 0 19 -2 13 -5z
m4287 -128 c13 -14 21 -25 18 -25 -2 0 -15 11 -28 25 -13 14 -21 25 -18 25 2
0 15 -11 28 -25z m-3580 -255 l0 -180 -440 0 -440 0 0 111 c0 119 10 157 55
199 49 46 77 49 463 50 l362 0 0 -180z m1140 0 l0 -180 -450 0 -450 0 0 180 0
180 450 0 450 0 0 -180z m1060 0 l0 -180 -455 0 -455 0 0 180 0 180 455 0 455
0 0 -180z m1130 0 l0 -180 -450 0 -450 0 0 180 0 180 450 0 450 0 0 -180z
m337 68 c-3 -8 -6 -5 -6 6 -1 11 2 17 5 13 3 -3 4 -12 1 -19z m-3107 -901 c0
-2 -10 -12 -22 -23 l-23 -19 19 23 c18 21 26 27 26 19z m180 -43 c0 -2 -9 0
-20 6 -11 6 -20 13 -20 16 0 2 9 0 20 -6 11 -6 20 -13 20 -16z m-228 -36 c-3
-25 121 -898 173 -1228 4 -21 2 -30 -3 -22 -5 8 -84 25 -200 42 -216 34 -231
38 -261 76 -28 35 -27 83 3 127 l24 35 -29 13 c-72 29 -93 117 -41 169 l29 28
-25 19 c-19 14 -26 30 -29 70 -5 48 -3 55 24 81 26 27 28 32 15 48 -22 30 -10
104 23 131 16 14 26 32 25 46 -4 50 1 70 28 97 16 15 34 47 41 70 8 28 22 47
41 58 17 10 31 28 34 45 3 17 17 34 36 45 16 9 30 21 30 25 0 11 47 57 58 57
4 0 6 -15 4 -32z m880 -6 c28 -24 40 -28 76 -24 40 4 46 1 82 -37 25 -26 48
-41 64 -41 27 0 86 -50 86 -74 0 -9 6 -16 14 -16 20 0 76 -49 76 -66 0 -7 16
-29 35 -48 19 -20 35 -44 35 -54 0 -10 11 -33 25 -52 14 -19 25 -43 25 -55 0
-12 5 -26 11 -32 11 -11 39 -133 30 -133 -2 0 -14 8 -25 19 -12 10 -201 116
-421 236 -220 119 -402 219 -404 221 -7 7 129 143 164 165 44 28 88 24 127 -9z
m-562 -8 c0 -2 -9 0 -20 6 -11 6 -20 13 -20 16 0 2 9 0 20 -6 11 -6 20 -13 20
-16z m110 -60 c0 -2 -9 0 -20 6 -11 6 -20 13 -20 16 0 2 9 0 20 -6 11 -6 20
-13 20 -16z m130 -70 c0 -2 -9 0 -20 6 -11 6 -20 13 -20 16 0 2 9 0 20 -6 11
-6 20 -13 20 -16z m-38 -215 c153 -83 278 -153 278 -155 0 -3 -15 3 -32 13
-48 25 -150 23 -210 -4 -29 -13 -87 -60 -148 -119 -64 -62 -101 -92 -104 -83
-2 8 -18 113 -35 234 -18 121 -34 230 -36 243 -3 12 -2 22 2 22 4 0 132 -68
285 -151z m408 -225 c0 -2 -13 2 -30 11 -16 9 -30 18 -30 21 0 2 14 -2 30 -11
17 -9 30 -18 30 -21z m225 -121 c17 -10 -15 -45 -355 -391 -206 -209 -376
-378 -378 -377 -4 4 -92 583 -92 609 0 11 14 -8 31 -42 55 -112 138 -164 304
-193 l100 -17 88 86 c116 115 142 166 142 282 0 60 -5 95 -17 117 l-16 33 86
-48 c48 -26 96 -52 107 -59z m-838 -55 c-3 -8 -6 -5 -6 6 -1 11 2 17 5 13 3
-3 4 -12 1 -19z m1066 -50 l-41 -43 115 -215 c135 -252 145 -289 95 -340 -26
-26 -38 -30 -85 -30 l-54 0 5 -50 c5 -58 -11 -91 -59 -116 -25 -12 -40 -14
-70 -6 -38 10 -39 9 -39 -17 0 -70 -72 -120 -143 -100 -40 11 -37 12 -37 -7 0
-9 -14 -29 -31 -45 -33 -31 -82 -39 -119 -19 -13 7 -21 5 -31 -6 -34 -41 -99
-55 -137 -28 -12 8 -22 11 -22 5 0 -19 -68 -33 -104 -21 -18 6 -52 8 -75 4
-29 -5 -47 -2 -65 9 -13 9 -32 13 -43 11 -11 -3 -35 1 -54 9 l-34 15 27 10
c14 6 252 238 529 516 276 278 505 506 508 506 3 0 -13 -19 -36 -42z m-1056
-20 c-3 -8 -6 -5 -6 6 -1 11 2 17 5 13 3 -3 4 -12 1 -19z m-140 -490 c-3 -8
-6 -5 -6 6 -1 11 2 17 5 13 3 -3 4 -12 1 -19z m10 -70 c-3 -7 -5 -2 -5 12 0
14 2 19 5 13 2 -7 2 -19 0 -25z m10 -70 c-3 -7 -5 -2 -5 12 0 14 2 19 5 13 2
-7 2 -19 0 -25z m10 -60 c-3 -8 -6 -5 -6 6 -1 11 2 17 5 13 3 -3 4 -12 1 -19z
m10 -70 c-3 -8 -6 -5 -6 6 -1 11 2 17 5 13 3 -3 4 -12 1 -19z m10 -70 c-3 -8
-6 -5 -6 6 -1 11 2 17 5 13 3 -3 4 -12 1 -19z m10 -60 c-3 -8 -6 -5 -6 6 -1
11 2 17 5 13 3 -3 4 -12 1 -19z m28 -48 l20 -25 -22 19 c-13 11 -23 24 -23 29
0 6 1 8 3 6 1 -2 11 -15 22 -29z m-785 -715 l0 -186 -384 3 -384 3 -39 31
c-62 49 -73 82 -73 211 l0 112 98 4 c53 1 251 4 440 5 l342 2 0 -185z m1140 1
l0 -186 -450 0 -450 0 0 183 0 182 450 4 450 4 0 -187z m1060 0 l0 -186 -455
0 -455 0 0 183 0 182 455 4 455 4 0 -187z m1130 -1 l0 -185 -450 0 -450 0 0
180 0 179 103 4 c56 1 258 4 450 5 l347 2 0 -185z m289 -228 c-2 -1 -13 -9
-24 -17 -19 -14 -19 -14 -6 3 7 9 18 17 24 17 6 0 8 -1 6 -3z m-282 -163 c-3
-3 -12 -4 -19 -1 -8 3 -5 6 6 6 11 1 17 -2 13 -5z"/>
</g>
</svg>
