<?xml version="1.0" standalone="no"?>
<!DOCTYPE svg PUBLIC "-//W3C//DTD SVG 20010904//EN"
 "http://www.w3.org/TR/2001/REC-SVG-20010904/DTD/svg10.dtd">
<svg version="1.0" xmlns="http://www.w3.org/2000/svg"
 width="640.000000pt" height="640.000000pt" viewBox="0 0 640.000000 640.000000"
 preserveAspectRatio="xMidYMid meet">
<metadata>
Created by potrace 1.16, written by Peter Selinger 2001-2019
</metadata>
<g transform="translate(0.000000,640.000000) scale(0.100000,-0.100000)"
fill="#000000" stroke="none">
<path d="M0 3200 l0 -3200 3200 0 3200 0 0 3200 0 3200 -3200 0 -3200 0 0
-3200z m1203 2023 c-7 -2 -19 -2 -25 0 -7 3 -2 5 12 5 14 0 19 -2 13 -5z
m-233 -76 c0 -2 -12 -14 -27 -28 l-28 -24 24 28 c23 25 31 32 31 24z m4505
-37 c21 -22 37 -40 34 -40 -3 0 -23 18 -44 40 -21 22 -37 40 -34 40 3 0 23
-18 44 -40z m-3565 -270 l0 -180 -441 0 -441 0 4 124 c3 121 4 125 33 162 61
75 54 74 472 74 l373 0 0 -180z m1140 0 l0 -180 -495 0 -495 0 0 180 0 180
495 0 495 0 0 -180z m1060 0 l0 -180 -495 0 -495 0 0 180 0 180 495 0 495 0 0
-180z m1130 0 l0 -180 -495 0 -495 0 0 180 0 180 495 0 495 0 0 -180z m337 68
c-3 -8 -6 -5 -6 6 -1 11 2 17 5 13 3 -3 4 -12 1 -19z m-3037 -862 c0 -2 -7 -7
-16 -10 -8 -3 -12 -2 -9 4 6 10 25 14 25 6z m-54 -38 c-9 -12 -16 -43 -16 -68
0 -40 79 -1034 95 -1205 4 -33 3 -55 -2 -49 -4 5 -78 21 -163 33 -211 31 -236
38 -265 73 -32 38 -32 84 -1 131 l24 35 -29 13 c-72 29 -93 117 -41 169 l29
28 -25 19 c-19 14 -26 30 -29 70 -5 48 -3 55 24 81 26 27 28 32 15 48 -22 30
-10 104 23 131 16 14 26 32 25 46 -4 50 1 70 28 97 16 15 34 47 41 70 8 28 22
47 41 58 17 10 31 28 34 45 3 17 17 34 36 45 16 9 33 25 36 35 3 10 16 25 29
33 13 9 40 31 60 50 42 39 53 44 31 12z m194 -4 c0 -2 -9 0 -20 6 -11 6 -20
13 -20 16 0 2 9 0 20 -6 11 -6 20 -13 20 -16z m80 -50 c0 -2 -9 0 -20 6 -11 6
-20 13 -20 16 0 2 9 0 20 -6 11 -6 20 -13 20 -16z m542 -32 c28 -24 40 -28 76
-24 40 4 46 1 82 -37 25 -26 48 -41 64 -41 27 0 86 -50 86 -74 0 -9 6 -16 14
-16 20 0 76 -49 76 -66 0 -7 16 -29 35 -48 19 -20 35 -44 35 -54 0 -10 11 -33
25 -52 14 -19 25 -43 25 -55 0 -12 5 -26 11 -32 13 -13 26 -73 34 -153 4 -39
2 -49 -4 -34 -12 28 -5 23 -451 304 -212 133 -389 247 -395 252 -7 7 -6 9 1 5
6 -3 37 21 70 55 104 106 155 123 216 70z m-462 -18 c0 -2 -9 0 -20 6 -11 6
-20 13 -20 16 0 2 9 0 20 -6 11 -6 20 -13 20 -16z m190 -367 c173 -108 228
-147 160 -111 -50 26 -151 25 -212 -3 -65 -30 -238 -197 -239 -232 -2 -27 -47
469 -48 527 l-1 32 83 -51 c45 -29 161 -101 257 -162z m320 -203 c0 -2 -9 0
-20 6 -11 6 -20 13 -20 16 0 2 9 0 20 -6 11 -6 20 -13 20 -16z m173 -106 c37
-24 67 -46 67 -49 0 -4 -75 -73 -167 -155 -97 -85 -143 -121 -110 -86 32 34
67 83 79 109 28 63 35 165 15 221 l-15 43 32 -21 c17 -11 61 -39 99 -62z m337
-91 c0 -2 -19 -21 -42 -42 l-43 -40 40 43 c36 39 45 47 45 39z m-1066 -141
c30 -51 95 -108 152 -132 21 -10 83 -25 136 -34 l97 -17 30 29 31 28 -27 -29
c-55 -57 -418 -372 -420 -364 -3 10 -53 625 -52 639 0 5 6 -10 14 -33 7 -23
24 -62 39 -87z m1090 -148 c127 -239 138 -278 88 -328 -26 -26 -38 -30 -85
-30 l-54 0 5 -50 c5 -58 -11 -91 -59 -116 -25 -12 -40 -14 -70 -6 -38 10 -39
9 -39 -17 0 -70 -72 -120 -143 -100 -40 11 -37 12 -37 -7 0 -9 -14 -29 -31
-45 -33 -31 -82 -39 -119 -19 -13 7 -21 5 -31 -6 -34 -41 -99 -55 -137 -28
-12 8 -22 11 -22 5 0 -19 -68 -33 -104 -21 -18 6 -52 8 -75 4 -29 -5 -47 -2
-65 10 -14 9 -32 13 -40 10 -9 -3 -37 1 -63 10 -27 8 -61 18 -78 22 l-30 7 32
10 c19 6 222 179 530 452 274 244 503 444 509 444 6 1 59 -90 118 -201z
m-1307 -275 c-3 -10 -5 -4 -5 12 0 17 2 24 5 18 2 -7 2 -21 0 -30z m10 -130
c-3 -10 -5 -2 -5 17 0 19 2 27 5 18 2 -10 2 -26 0 -35z m10 -120 c-3 -10 -5
-2 -5 17 0 19 2 27 5 18 2 -10 2 -26 0 -35z m10 -95 c-3 -8 -6 -5 -6 6 -1 11
2 17 5 13 3 -3 4 -12 1 -19z m74 -76 c-7 -2 -18 1 -23 6 -8 8 -4 9 13 5 13 -4
18 -8 10 -11z m-771 -707 l0 -185 -379 0 -379 0 -44 33 c-66 50 -78 82 -78
214 l0 112 53 4 c28 2 226 4 440 5 l387 2 0 -185z m1140 1 l0 -186 -495 0
-495 0 0 183 0 182 495 4 495 4 0 -187z m1060 -1 l0 -185 -495 0 -495 0 0 180
0 179 103 4 c56 1 279 4 495 5 l392 2 0 -185z m1130 1 l0 -186 -495 0 -495 0
0 183 0 182 495 4 495 4 0 -187z m289 -229 c-2 -1 -13 -9 -24 -17 -19 -14 -19
-14 -6 3 7 9 18 17 24 17 6 0 8 -1 6 -3z m-4559 -82 c7 -9 8 -15 2 -15 -5 0
-12 7 -16 15 -3 8 -4 15 -2 15 2 0 9 -7 16 -15z m4475 -4 c-3 -6 -11 -11 -17
-11 -6 0 -6 6 2 15 14 17 26 13 15 -4z m-4435 -31 c0 -5 -2 -10 -4 -10 -3 0
-8 5 -11 10 -3 6 -1 10 4 10 6 0 11 -4 11 -10z m4237 -46 c-3 -3 -12 -4 -19
-1 -8 3 -5 6 6 6 11 1 17 -2 13 -5z"/>
</g>
</svg>
