<?xml version="1.0" standalone="no"?>
<!DOCTYPE svg PUBLIC "-//W3C//DTD SVG 20010904//EN"
 "http://www.w3.org/TR/2001/REC-SVG-20010904/DTD/svg10.dtd">
<svg version="1.0" xmlns="http://www.w3.org/2000/svg"
 width="640.000000pt" height="640.000000pt" viewBox="0 0 640.000000 640.000000"
 preserveAspectRatio="xMidYMid meet">
<metadata>
Created by potrace 1.16, written by Peter Selinger 2001-2019
</metadata>
<g transform="translate(0.000000,640.000000) scale(0.100000,-0.100000)"
fill="#000000" stroke="none">
<path d="M0 3200 l0 -3200 3200 0 3200 0 0 3200 0 3200 -3200 0 -3200 0 0
-3200z m1910 1640 l0 -180 -280 0 -280 0 0 180 0 180 280 0 280 0 0 -180z
m1140 0 l0 -180 -275 0 -275 0 0 180 0 180 275 0 275 0 0 -180z m1060 0 l0
-180 -280 0 -280 0 0 180 0 180 280 0 280 0 0 -180z m1130 0 l0 -180 -280 0
-280 0 0 180 0 180 280 0 280 0 0 -180z m-1938 -918 c28 -24 40 -28 76 -24 40
4 46 1 82 -37 25 -26 48 -41 64 -41 27 0 86 -50 86 -74 0 -9 6 -16 14 -16 23
0 70 -45 82 -78 11 -29 11 -30 -10 -22 -12 4 -199 14 -415 21 l-392 13 137
130 c75 72 146 136 158 143 37 21 83 15 118 -15z m-1065 -238 c-3 -3 -12 -4
-19 -1 -8 3 -5 6 6 6 11 1 17 -2 13 -5z m171 -1 c-15 -2 -42 -2 -60 0 -18 2
-6 4 27 4 33 0 48 -2 33 -4z m-208 -6 c0 -2 -10 -12 -22 -23 l-23 -19 19 23
c18 21 26 27 26 19z m507 -4 c-20 -2 -52 -2 -70 0 -17 2 0 4 38 4 39 0 53 -2
32 -4z m1044 -70 c13 -16 12 -17 -3 -4 -17 13 -22 21 -14 21 2 0 10 -8 17 -17z
m-1262 -538 c153 -220 278 -401 277 -402 -2 -2 -494 75 -553 87 -95 20 -130
97 -79 173 l24 35 -29 13 c-72 29 -93 117 -41 169 l29 28 -25 19 c-19 14 -26
30 -29 70 -5 48 -3 55 24 81 26 27 28 32 15 48 -22 31 -10 102 24 134 l29 26
27 -40 c15 -23 153 -221 307 -441z m551 384 c12 -7 11 -8 -5 -9 -49 -1 -112
-45 -229 -160 -67 -66 -125 -120 -128 -120 -5 0 -189 259 -213 299 -7 11 36
12 276 6 156 -4 291 -11 299 -16z m237 -6 c-20 -2 -52 -2 -70 0 -17 2 0 4 38
4 39 0 53 -2 32 -4z m217 -110 c-18 -60 -44 -138 -56 -175 l-23 -68 0 89 c0
85 -2 93 -42 171 -24 45 -43 84 -43 86 0 2 45 4 99 4 l99 0 -34 -107z m347
-403 c174 -327 183 -357 131 -410 -26 -26 -38 -30 -85 -30 l-54 0 5 -50 c5
-58 -11 -91 -59 -116 -25 -12 -40 -14 -70 -6 -38 10 -39 9 -39 -17 0 -70 -72
-120 -143 -100 -40 11 -37 12 -37 -7 0 -9 -14 -29 -31 -45 -32 -30 -87 -39
-119 -19 -10 6 -22 3 -39 -13 l-23 -22 23 35 c13 20 103 275 199 567 96 293
178 529 182 525 4 -4 75 -135 159 -292z m-1100 143 c13 -16 12 -17 -3 -4 -17
13 -22 21 -14 21 2 0 10 -8 17 -17z m204 -209 c58 -25 358 -74 368 -60 11 14
13 21 -58 -194 -32 -96 -60 -178 -64 -182 -3 -3 -90 115 -193 263 -162 233
-181 264 -140 230 26 -22 65 -48 87 -57z m-154 -231 c13 -16 12 -17 -3 -4 -17
13 -22 21 -14 21 2 0 10 -8 17 -17z m90 -130 c13 -16 12 -17 -3 -4 -17 13 -22
21 -14 21 2 0 10 -8 17 -17z m160 -230 c13 -16 12 -17 -3 -4 -17 13 -22 21
-14 21 2 0 10 -8 17 -17z m206 -189 c-3 -3 -12 -4 -19 -1 -8 3 -5 6 6 6 11 1
17 -2 13 -5z m-1337 -638 l0 -186 -280 0 -280 0 0 183 0 182 280 4 280 4 0
-187z m1140 -1 l0 -185 -275 0 -275 0 0 180 0 179 103 4 c56 1 180 4 275 5
l172 2 0 -185z m1060 1 l0 -186 -280 0 -280 0 0 183 0 182 280 4 280 4 0 -187z
m1130 0 l0 -186 -280 0 -280 0 0 183 0 182 280 4 280 4 0 -187z m7 -392 c-3
-3 -12 -4 -19 -1 -8 3 -5 6 6 6 11 1 17 -2 13 -5z"/>
</g>
</svg>
