<?xml version="1.0" standalone="no"?>
<!DOCTYPE svg PUBLIC "-//W3C//DTD SVG 20010904//EN"
 "http://www.w3.org/TR/2001/REC-SVG-20010904/DTD/svg10.dtd">
<svg version="1.0" xmlns="http://www.w3.org/2000/svg"
 width="640.000000pt" height="640.000000pt" viewBox="0 0 640.000000 640.000000"
 preserveAspectRatio="xMidYMid meet">
<metadata>
Created by potrace 1.16, written by Peter Selinger 2001-2019
</metadata>
<g transform="translate(0.000000,640.000000) scale(0.100000,-0.100000)"
fill="#000000" stroke="none">
<path d="M0 3200 l0 -3200 3200 0 3200 0 0 3200 0 3200 -3200 0 -3200 0 0
-3200z m1710 1640 l0 -180 -90 0 -90 0 0 180 0 180 90 0 90 0 0 -180z m200 0
l0 -180 -90 0 -90 0 0 180 0 180 90 0 90 0 0 -180z m940 0 l0 -180 -90 0 -90
0 0 180 0 180 90 0 90 0 0 -180z m200 0 l0 -180 -90 0 -90 0 0 180 0 180 90 0
90 0 0 -180z m850 0 l0 -180 -90 0 -90 0 0 180 0 180 90 0 90 0 0 -180z m210
0 l0 -180 -95 0 -95 0 0 180 0 180 95 0 95 0 0 -180z m930 0 l0 -180 -95 0
-95 0 0 180 0 180 95 0 95 0 0 -180z m200 0 l0 -180 -90 0 -90 0 0 180 0 180
90 0 90 0 0 -180z m-1938 -918 c28 -24 40 -28 75 -24 38 4 47 0 78 -31 19 -19
35 -39 35 -43 -1 -7 -552 -194 -650 -221 -19 -5 295 301 335 327 43 29 88 26
127 -8z m289 -139 c13 -16 12 -17 -3 -4 -17 13 -22 21 -14 21 2 0 10 -8 17
-17z m26 -180 c-2 -21 -4 -6 -4 32 0 39 2 55 4 38 2 -18 2 -50 0 -70z m-203
-125 c6 -98 6 -256 -1 -223 -9 43 -129 265 -143 266 -15 1 105 47 126 48 7 1
13 -34 18 -91z m400 -498 c203 -381 211 -406 158 -460 -26 -26 -38 -30 -85
-30 l-54 0 5 -50 c5 -58 -11 -91 -59 -116 -25 -12 -40 -14 -70 -6 -38 10 -38
9 -41 -22 -2 -17 -11 192 -21 464 -10 272 -20 536 -21 585 -3 67 -2 75 3 30 5
-53 27 -100 185 -395z m-875 420 c-24 -16 -107 -92 -183 -169 -122 -122 -138
-142 -126 -156 7 -9 -44 24 -115 72 l-128 87 289 97 c159 54 293 98 298 98 5
1 -10 -12 -35 -29z m-814 -42 c-11 -6 -27 -16 -35 -22 -9 -6 -5 -1 8 12 13 12
28 22 35 22 7 0 3 -6 -8 -12z m-34 -165 c13 -16 12 -17 -3 -4 -10 7 -18 15
-18 17 0 8 8 3 21 -13z m1336 -100 c-2 -21 -4 -6 -4 32 0 39 2 55 4 38 2 -18
2 -50 0 -70z m-512 -475 c6 -6 -3 -2 -20 9 -23 15 -102 31 -335 67 -168 26
-326 51 -352 57 -90 20 -124 98 -74 172 l24 35 -29 13 c-72 29 -93 117 -40
169 16 16 26 32 22 36 -3 3 174 -118 394 -271 220 -152 405 -281 410 -287z
m-154 365 c13 -16 12 -17 -3 -4 -17 13 -22 21 -14 21 2 0 10 -8 17 -17z m676
-150 c-2 -21 -4 -6 -4 32 0 39 2 55 4 38 2 -18 2 -50 0 -70z m-546 60 c13 -16
12 -17 -3 -4 -10 7 -18 15 -18 17 0 8 8 3 21 -13z m317 -84 c117 -18 217 -36
222 -39 5 -3 13 -66 17 -140 l6 -134 -49 35 c-27 20 -146 102 -264 184 -246
169 -251 173 -190 147 25 -10 141 -34 258 -53z m-167 -276 c13 -16 12 -17 -3
-4 -17 13 -22 21 -14 21 2 0 10 -8 17 -17z m130 -90 c13 -16 12 -17 -3 -4 -17
13 -22 21 -14 21 2 0 10 -8 17 -17z m169 -119 c0 -3 -13 4 -30 16 -16 12 -30
24 -30 26 0 3 14 -4 30 -16 17 -12 30 -24 30 -26z m121 -81 c13 -16 12 -17 -3
-4 -10 7 -18 15 -18 17 0 8 8 3 21 -13z m189 -7 c0 -2 -8 -10 -17 -17 -16 -13
-17 -12 -4 4 13 16 21 21 21 13z m-1740 -791 l0 -185 -90 0 -90 0 0 185 0 185
90 0 90 0 0 -185z m940 -6 l0 -179 -90 0 -90 0 0 183 0 182 90 -3 90 -3 0
-180z m200 6 l0 -185 -90 0 -90 0 0 185 0 185 90 0 90 0 0 -185z m850 -6 l0
-179 -90 0 -90 0 0 183 0 182 90 -3 90 -3 0 -180z m210 6 l0 -185 -95 0 -95 0
0 178 c0 98 3 182 7 185 3 4 46 7 95 7 l88 0 0 -185z m930 -6 l0 -179 -95 0
-95 0 0 183 0 182 95 -3 95 -3 0 -180z m200 6 l0 -185 -90 0 -90 0 0 185 0
185 90 0 90 0 0 -185z m-3530 -5 l0 -180 -90 0 -90 0 0 180 0 180 90 0 90 0 0
-180z"/>
</g>
</svg>
