<?xml version="1.0" standalone="no"?>
<!DOCTYPE svg PUBLIC "-//W3C//DTD SVG 20010904//EN"
 "http://www.w3.org/TR/2001/REC-SVG-20010904/DTD/svg10.dtd">
<svg version="1.0" xmlns="http://www.w3.org/2000/svg"
 width="640.000000pt" height="640.000000pt" viewBox="0 0 640.000000 640.000000"
 preserveAspectRatio="xMidYMid meet">
<metadata>
Created by potrace 1.16, written by Peter Selinger 2001-2019
</metadata>
<g transform="translate(0.000000,640.000000) scale(0.100000,-0.100000)"
fill="#000000" stroke="none">
<path d="M0 3200 l0 -3200 3200 0 3200 0 0 3200 0 3200 -3200 0 -3200 0 0
-3200z m1910 1640 l0 -180 -320 0 -320 0 0 180 0 180 320 0 320 0 0 -180z
m1140 0 l0 -180 -320 0 -320 0 0 180 0 180 320 0 320 0 0 -180z m1060 0 l0
-180 -325 0 -325 0 0 180 0 180 325 0 325 0 0 -180z m1130 0 l0 -180 -320 0
-320 0 0 180 0 180 320 0 320 0 0 -180z m-1938 -918 c28 -24 40 -28 76 -24 40
4 46 1 82 -37 25 -26 48 -41 64 -41 27 0 86 -50 86 -74 0 -9 6 -16 14 -16 20
0 76 -49 76 -66 0 -9 14 -28 30 -43 36 -33 60 -97 32 -86 -9 4 -202 41 -429
83 l-412 76 121 116 c66 63 130 120 142 127 37 21 83 15 118 -15z m-964 -119
c-10 -2 -26 -2 -35 0 -10 3 -2 5 17 5 19 0 27 -2 18 -5z m69 -9 c-3 -3 -12 -4
-19 -1 -8 3 -5 6 6 6 11 1 17 -2 13 -5z m-147 -8 c0 -2 -8 -10 -17 -17 -16
-13 -17 -12 -4 4 13 16 21 21 21 13z m257 -12 c-3 -3 -12 -4 -19 -1 -8 3 -5 6
6 6 11 1 17 -2 13 -5z m100 -20 c-3 -3 -12 -4 -19 -1 -8 3 -5 6 6 6 11 1 17
-2 13 -5z m60 -10 c-3 -3 -12 -4 -19 -1 -8 3 -5 6 6 6 11 1 17 -2 13 -5z m50
-10 c-3 -3 -12 -4 -19 -1 -8 3 -5 6 6 6 11 1 17 -2 13 -5z m-182 -713 c173
-347 315 -634 314 -638 0 -5 -33 58 -74 139 -65 127 -78 147 -102 152 -15 3
-130 22 -255 41 -125 19 -238 39 -251 44 -35 14 -67 59 -67 96 0 18 11 48 24
68 l24 35 -29 13 c-72 29 -93 117 -41 169 l29 28 -25 19 c-19 14 -26 30 -29
70 -5 48 -3 55 24 81 26 27 28 32 15 48 -22 30 -10 104 23 131 16 14 26 32 25
46 -5 51 1 70 30 99 17 16 30 37 31 46 1 9 5 0 10 -20 5 -20 150 -321 324
-667z m292 693 c-3 -3 -12 -4 -19 -1 -8 3 -5 6 6 6 11 1 17 -2 13 -5z m-17
-208 c251 -46 280 -53 240 -60 -82 -13 -127 -42 -245 -157 -63 -62 -117 -110
-119 -108 -6 6 -186 368 -186 374 0 8 15 6 310 -49z m997 -48 c-3 -8 -6 -5 -6
6 -1 11 2 17 5 13 3 -3 4 -12 1 -19z m-610 -24 c-3 -3 -12 -4 -19 -1 -8 3 -5
6 6 6 11 1 17 -2 13 -5z m50 -10 c-3 -3 -12 -4 -19 -1 -8 3 -5 6 6 6 11 1 17
-2 13 -5z m192 -34 c57 -11 105 -21 106 -22 2 -2 -33 -73 -76 -158 -43 -85
-75 -141 -71 -125 4 17 7 64 7 106 0 68 -4 84 -37 148 -20 39 -35 71 -35 71 1
0 49 -9 106 -20z m402 -480 c163 -306 173 -338 121 -390 -26 -26 -38 -30 -85
-30 l-54 0 5 -50 c5 -58 -11 -91 -59 -116 -25 -12 -40 -14 -70 -6 -38 10 -39
9 -39 -17 0 -70 -72 -120 -143 -100 -40 11 -37 12 -37 -7 0 -9 -14 -29 -31
-45 -33 -31 -82 -39 -119 -19 -13 7 -21 5 -31 -6 -33 -40 -100 -55 -134 -30
-17 12 -3 44 251 549 148 295 273 536 277 534 4 -1 71 -121 148 -267z m-900
-48 c59 -23 304 -66 320 -56 6 3 -35 -85 -91 -196 -56 -111 -103 -201 -105
-199 -2 2 -66 132 -142 289 l-139 285 52 -51 c31 -31 72 -59 105 -72z m54
-752 c10 -11 16 -20 13 -20 -3 0 -13 9 -23 20 -10 11 -16 20 -13 20 3 0 13 -9
23 -20z m135 -20 c-8 -5 -19 -10 -25 -10 -5 0 -3 5 5 10 8 5 20 10 25 10 6 0
3 -5 -5 -10z m-47 -17 c-7 -2 -19 -2 -25 0 -7 3 -2 5 12 5 14 0 19 -2 13 -5z
m-1183 -627 l0 -186 -320 0 -320 0 0 183 0 182 320 4 320 4 0 -187z m1140 0
l0 -186 -320 0 -320 0 0 183 0 182 320 4 320 4 0 -187z m1060 0 l0 -186 -325
0 -325 0 0 183 0 182 325 4 325 4 0 -187z m1130 -1 l0 -185 -320 0 -320 0 0
180 0 179 103 4 c56 1 200 4 320 5 l217 2 0 -185z m7 -391 c-3 -3 -12 -4 -19
-1 -8 3 -5 6 6 6 11 1 17 -2 13 -5z"/>
</g>
</svg>
