<?xml version="1.0" standalone="no"?>
<!DOCTYPE svg PUBLIC "-//W3C//DTD SVG 20010904//EN"
 "http://www.w3.org/TR/2001/REC-SVG-20010904/DTD/svg10.dtd">
<svg version="1.0" xmlns="http://www.w3.org/2000/svg"
 width="640.000000pt" height="640.000000pt" viewBox="0 0 640.000000 640.000000"
 preserveAspectRatio="xMidYMid meet">
<metadata>
Created by potrace 1.16, written by Peter Selinger 2001-2019
</metadata>
<g transform="translate(0.000000,640.000000) scale(0.100000,-0.100000)"
fill="#000000" stroke="none">
<path d="M0 3200 l0 -3200 3200 0 3200 0 0 3200 0 3200 -3200 0 -3200 0 0
-3200z m1910 1640 l0 -180 -365 0 -365 0 0 180 0 180 365 0 365 0 0 -180z
m1140 0 l0 -180 -365 0 -365 0 0 180 0 180 365 0 365 0 0 -180z m1060 0 l0
-180 -365 0 -365 0 0 180 0 180 365 0 365 0 0 -180z m1130 0 l0 -180 -365 0
-365 0 0 180 0 180 365 0 365 0 0 -180z m-1938 -918 c28 -24 40 -28 76 -24 40
4 46 1 82 -37 25 -26 48 -41 64 -41 27 0 86 -50 86 -74 0 -9 6 -16 14 -16 20
0 76 -49 76 -66 0 -7 16 -29 35 -48 19 -20 35 -44 35 -54 0 -10 11 -33 25 -52
14 -19 25 -43 25 -55 0 -12 6 -27 13 -35 6 -8 -1 -3 -18 12 -23 21 -124 57
-446 159 l-416 132 105 101 c57 56 114 106 126 113 37 21 83 15 118 -15z
m-972 -46 c0 -2 -8 -10 -17 -17 -16 -13 -17 -12 -4 4 13 16 21 21 21 13z m-40
-90 c0 -7 85 -258 190 -556 104 -299 188 -545 186 -547 -6 -6 -460 65 -489 76
-35 14 -67 59 -67 96 0 18 11 48 24 68 l24 35 -29 13 c-72 29 -93 117 -41 169
l29 28 -25 19 c-19 14 -26 30 -29 70 -5 48 -3 55 24 81 26 27 28 32 15 48 -22
30 -10 104 23 131 16 14 26 32 25 46 -4 50 1 70 28 97 16 15 34 46 40 68 15
51 72 96 72 58z m569 -247 l264 -84 -53 -8 c-92 -13 -135 -40 -250 -154 l-108
-108 -73 210 c-40 116 -74 216 -77 224 -7 17 -30 24 297 -80z m988 -186 c-3
-10 -5 -2 -5 17 0 19 2 27 5 18 2 -10 2 -26 0 -35z m-295 -37 l27 -11 -94
-138 c-51 -77 -95 -141 -98 -143 -2 -2 5 22 16 53 25 76 20 169 -15 245 l-26
56 82 -25 c44 -14 93 -30 108 -37z m404 -607 c54 -105 57 -147 15 -190 -25
-25 -37 -29 -84 -29 l-54 0 5 -50 c5 -58 -11 -91 -59 -116 -25 -12 -40 -14
-70 -6 -38 10 -39 9 -39 -17 0 -70 -72 -120 -143 -100 -40 11 -37 12 -37 -7 0
-9 -14 -29 -31 -45 -33 -31 -82 -39 -119 -19 -13 7 -21 5 -31 -6 -34 -41 -99
-55 -137 -28 -12 8 -22 11 -22 6 0 -21 -63 -33 -111 -21 l-46 12 28 26 c15 14
179 253 365 529 l336 504 95 -179 c52 -98 114 -217 139 -264z m-1089 203 c59
-46 115 -67 238 -86 61 -9 116 -19 123 -21 9 -3 -31 -70 -115 -194 -70 -104
-131 -187 -134 -183 -5 6 -190 534 -207 592 -3 8 9 -5 25 -30 17 -25 48 -60
70 -78z m-3 -768 c3 -8 2 -12 -4 -9 -6 3 -10 10 -10 16 0 14 7 11 14 -7z m83
-60 c-3 -3 -12 -4 -19 -1 -8 3 -5 6 6 6 11 1 17 -2 13 -5z m-1037 -638 l0
-186 -365 0 -365 0 0 183 0 182 365 4 365 4 0 -187z m1140 0 l0 -186 -365 0
-365 0 0 183 0 182 365 4 365 4 0 -187z m1060 -1 l0 -185 -365 0 -365 0 0 180
0 179 103 4 c56 1 220 4 365 5 l262 2 0 -185z m1130 1 l0 -186 -365 0 -365 0
0 183 0 182 365 4 365 4 0 -187z m7 -392 c-3 -3 -12 -4 -19 -1 -8 3 -5 6 6 6
11 1 17 -2 13 -5z"/>
</g>
</svg>
