<?xml version="1.0" standalone="no"?>
<!DOCTYPE svg PUBLIC "-//W3C//DTD SVG 20010904//EN"
 "http://www.w3.org/TR/2001/REC-SVG-20010904/DTD/svg10.dtd">
<svg version="1.0" xmlns="http://www.w3.org/2000/svg"
 width="640.000000pt" height="640.000000pt" viewBox="0 0 640.000000 640.000000"
 preserveAspectRatio="xMidYMid meet">
<metadata>
Created by potrace 1.16, written by Peter Selinger 2001-2019
</metadata>
<g transform="translate(0.000000,640.000000) scale(0.100000,-0.100000)"
fill="#000000" stroke="none">
<path d="M0 3200 l0 -3200 3200 0 3200 0 0 3200 0 3200 -3200 0 -3200 0 0
-3200z m1910 1640 l0 -180 -235 0 -235 0 0 180 0 180 235 0 235 0 0 -180z
m1140 0 l0 -180 -235 0 -235 0 0 180 0 180 235 0 235 0 0 -180z m1060 0 l0
-180 -240 0 -240 0 0 180 0 180 240 0 240 0 0 -180z m1130 0 l0 -180 -235 0
-235 0 0 180 0 180 235 0 235 0 0 -180z m-1938 -918 c28 -24 40 -28 76 -24 40
4 46 1 82 -37 25 -26 48 -41 64 -41 27 0 86 -50 86 -73 0 -11 -14 -18 -42 -22
-175 -25 -703 -93 -705 -91 -5 4 298 290 321 303 37 21 83 15 118 -15z m397
-256 c-3 -3 -11 5 -18 17 -13 21 -12 21 5 5 10 -10 16 -20 13 -22z m8 -53 c-3
-10 -5 -4 -5 12 0 17 2 24 5 18 2 -7 2 -21 0 -30z m-890 11 c-3 -3 -12 -4 -19
-1 -8 3 -5 6 6 6 11 1 17 -2 13 -5z m-74 -11 c-7 -2 -19 -2 -25 0 -7 3 -2 5
12 5 14 0 19 -2 13 -5z m-80 -10 c-7 -2 -19 -2 -25 0 -7 3 -2 5 12 5 14 0 19
-2 13 -5z m-70 -10 c-7 -2 -19 -2 -25 0 -7 3 -2 5 12 5 14 0 19 -2 13 -5z
m-80 -10 c-7 -2 -19 -2 -25 0 -7 3 -2 5 12 5 14 0 19 -2 13 -5z m-70 -10 c-7
-2 -19 -2 -25 0 -7 3 -2 5 12 5 14 0 19 -2 13 -5z m-80 -10 c-7 -2 -19 -2 -25
0 -7 3 -2 5 12 5 14 0 19 -2 13 -5z m-70 -10 c-7 -2 -19 -2 -25 0 -7 3 -2 5
12 5 14 0 19 -2 13 -5z m1404 -15 c-3 -8 -6 -5 -6 6 -1 11 2 17 5 13 3 -3 4
-12 1 -19z m-1484 5 c-7 -2 -19 -2 -25 0 -7 3 -2 5 12 5 14 0 19 -2 13 -5z
m-73 -16 c0 -2 -10 -12 -22 -23 l-23 -19 19 23 c18 21 26 27 26 19z m1337 -39
c-2 -7 -15 -87 -28 -178 l-24 -165 -7 65 c-5 50 -19 87 -57 162 -28 54 -51
102 -51 107 0 10 41 16 129 19 31 2 42 -2 38 -10z m210 -20 c-3 -7 -5 -2 -5
12 0 14 2 19 5 13 2 -7 2 -19 0 -25z m-414 5 c-7 -2 -19 -2 -25 0 -7 3 -2 5
12 5 14 0 19 -2 13 -5z m-80 -10 c-7 -2 -19 -2 -25 0 -7 3 -2 5 12 5 14 0 19
-2 13 -5z m-76 -9 c-3 -3 -12 -4 -19 -1 -8 3 -5 6 6 6 11 1 17 -2 13 -5z
m-113 -22 c-63 -22 -101 -52 -239 -191 l-109 -111 39 -42 c22 -24 -32 28 -120
114 -87 87 -157 159 -155 161 5 5 578 84 615 85 11 1 -3 -7 -31 -16z m-907
-24 c-3 -8 -6 -5 -6 6 -1 11 2 17 5 13 3 -3 4 -12 1 -19z m1580 0 c-3 -8 -6
-5 -6 6 -1 11 2 17 5 13 3 -3 4 -12 1 -19z m-777 -833 c182 -186 201 -207 75
-84 l-170 166 -275 42 c-151 23 -296 46 -322 52 -90 20 -124 98 -74 172 l24
35 -29 13 c-72 29 -93 117 -41 169 l29 28 -25 19 c-19 14 -26 30 -29 70 -5 48
-3 55 24 82 17 16 27 33 23 38 -26 27 586 -594 790 -802z m767 763 c-3 -7 -5
-2 -5 12 0 14 2 19 5 13 2 -7 2 -19 0 -25z m168 -398 c180 -338 190 -367 137
-420 -26 -26 -38 -30 -85 -30 l-54 0 5 -50 c5 -58 -11 -91 -59 -116 -25 -12
-40 -14 -70 -6 -38 10 -39 9 -39 -17 0 -71 -72 -120 -146 -99 -32 8 -36 13
-31 36 2 15 40 259 83 543 68 451 80 513 90 485 6 -17 82 -164 169 -326z
m-418 158 c-3 -8 -6 -5 -6 6 -1 11 2 17 5 13 3 -3 4 -12 1 -19z m-10 -70 c-3
-7 -5 -2 -5 12 0 14 2 19 5 13 2 -7 2 -19 0 -25z m-10 -60 c-3 -8 -6 -5 -6 6
-1 11 2 17 5 13 3 -3 4 -12 1 -19z m-437 -110 c43 -16 340 -68 388 -68 20 0
23 -4 18 -27 -3 -16 -15 -91 -27 -168 -11 -77 -22 -141 -23 -142 -1 -1 -116
113 -256 254 -140 140 -230 236 -200 211 30 -24 75 -51 100 -60z m427 40 c-3
-8 -6 -5 -6 6 -1 11 2 17 5 13 3 -3 4 -12 1 -19z m-10 -70 c-3 -7 -5 -2 -5 12
0 14 2 19 5 13 2 -7 2 -19 0 -25z m-97 -643 c19 -19 32 -35 29 -35 -3 0 -20
16 -39 35 -19 19 -32 35 -29 35 3 0 20 -16 39 -35z m200 -19 c0 -2 -8 -10 -17
-17 -16 -13 -17 -12 -4 4 13 16 21 21 21 13z m-45 -36 c-3 -5 -14 -10 -23 -9
-14 0 -13 2 3 9 27 11 27 11 20 0z m-1525 -684 l0 -186 -235 0 -235 0 0 183 0
182 235 4 235 3 0 -186z m1140 0 l0 -186 -235 0 -235 0 0 183 0 182 235 4 235
3 0 -186z m1060 0 l0 -186 -240 0 -240 0 0 183 0 182 240 4 240 3 0 -186z
m1130 0 l0 -186 -235 0 -235 0 0 183 0 182 235 4 235 3 0 -186z"/>
</g>
</svg>
