<?xml version="1.0" standalone="no"?>
<!DOCTYPE svg PUBLIC "-//W3C//DTD SVG 20010904//EN"
 "http://www.w3.org/TR/2001/REC-SVG-20010904/DTD/svg10.dtd">
<svg version="1.0" xmlns="http://www.w3.org/2000/svg"
 width="640.000000pt" height="640.000000pt" viewBox="0 0 640.000000 640.000000"
 preserveAspectRatio="xMidYMid meet">
<metadata>
Created by potrace 1.16, written by Peter Selinger 2001-2019
</metadata>
<g transform="translate(0.000000,640.000000) scale(0.100000,-0.100000)"
fill="#000000" stroke="none">
<path d="M0 3200 l0 -3200 3200 0 3200 0 0 3200 0 3200 -3200 0 -3200 0 0
-3200z m1197 2024 c-3 -3 -12 -4 -19 -1 -8 3 -5 6 6 6 11 1 17 -2 13 -5z m713
-384 l0 -180 -405 0 -405 0 0 165 c0 91 1 165 3 165 1 0 20 7 42 15 32 11 113
14 403 15 l362 0 0 -180z m1140 0 l0 -180 -405 0 -405 0 0 180 0 180 405 0
405 0 0 -180z m1060 0 l0 -180 -410 0 -410 0 0 180 0 180 410 0 410 0 0 -180z
m1130 0 l0 -180 -410 0 -410 0 0 180 0 180 410 0 410 0 0 -180z m337 68 c-3
-8 -6 -5 -6 6 -1 11 2 17 5 13 3 -3 4 -12 1 -19z m-3099 -945 c-10 -2 -26 -2
-35 0 -10 3 -2 5 17 5 19 0 27 -2 18 -5z m-78 -17 c0 -2 -8 -10 -17 -17 -16
-13 -17 -12 -4 4 13 16 21 21 21 13z m902 -24 c28 -24 40 -28 76 -24 40 4 46
1 82 -37 25 -26 48 -41 64 -41 27 0 86 -50 86 -74 0 -9 6 -16 14 -16 20 0 76
-49 76 -66 0 -7 16 -29 35 -48 19 -20 35 -44 35 -54 0 -10 11 -33 25 -52 14
-19 25 -43 25 -54 0 -12 7 -30 15 -40 8 -11 15 -31 15 -45 l0 -24 -22 20 c-13
12 -205 100 -428 197 -222 97 -406 179 -409 182 -7 7 147 162 184 185 44 28
88 24 127 -9z m-722 8 c8 -5 11 -10 5 -10 -5 0 -17 5 -25 10 -8 5 -10 10 -5
10 6 0 17 -5 25 -10z m-220 -65 c0 -14 61 -283 135 -599 74 -315 135 -575 135
-578 0 -5 -397 55 -443 67 -39 10 -77 59 -77 99 0 19 11 49 24 69 l24 35 -29
13 c-72 29 -93 117 -41 169 l29 28 -25 19 c-19 14 -26 30 -29 70 -5 48 -3 55
24 81 26 27 28 32 15 48 -22 30 -10 104 23 131 16 14 26 32 25 46 -4 50 1 70
28 97 16 15 34 47 41 70 8 28 22 47 42 58 16 10 29 25 29 35 0 19 42 67 60 67
5 0 10 -11 10 -25z m380 -5 c8 -5 11 -10 5 -10 -5 0 -17 5 -25 10 -8 5 -10 10
-5 10 6 0 17 -5 25 -10z m160 -70 c8 -5 11 -10 5 -10 -5 0 -17 5 -25 10 -8 5
-10 10 -5 10 6 0 17 -5 25 -10z m-9 -226 c145 -64 265 -116 266 -117 1 -1 -29
-2 -65 -2 -96 -1 -143 -26 -258 -137 -53 -51 -99 -101 -103 -110 -4 -11 -29
78 -60 215 -30 127 -56 240 -59 250 -2 9 0 17 5 17 5 0 128 -52 274 -116z
m309 -134 c8 -5 11 -10 5 -10 -5 0 -17 5 -25 10 -8 5 -10 10 -5 10 6 0 17 -5
25 -10z m160 -70 c8 -5 11 -10 5 -10 -5 0 -17 5 -25 10 -8 5 -10 10 -5 10 6 0
17 -5 25 -10z m205 -92 l26 -14 -116 -140 c-132 -157 -162 -189 -116 -125 70
98 79 217 26 344 -6 14 7 11 73 -17 45 -19 93 -41 107 -48z m285 -32 c0 -2 -8
-10 -17 -17 -16 -13 -17 -12 -4 4 13 16 21 21 21 13z m-30 -39 c0 -2 -12 -14
-27 -28 l-28 -24 24 28 c23 25 31 32 31 24z m-61 -75 c-10 -15 8 -56 111 -248
142 -267 153 -303 102 -354 -26 -26 -38 -30 -85 -30 l-54 0 5 -50 c5 -58 -11
-91 -59 -116 -25 -12 -40 -14 -70 -6 -38 10 -39 9 -39 -17 0 -70 -72 -120
-143 -100 -40 11 -37 12 -37 -7 0 -9 -14 -29 -31 -45 -33 -31 -82 -39 -119
-19 -13 7 -21 5 -31 -6 -34 -41 -99 -55 -137 -28 -12 8 -22 11 -22 5 0 -19
-68 -34 -102 -22 -17 6 -52 9 -77 5 -34 -4 -51 -1 -66 11 -15 12 -17 18 -7 22
7 3 204 234 438 514 234 280 428 509 430 509 2 0 -1 -8 -7 -18z m-906 -198
c61 -53 127 -79 254 -99 l112 -17 -157 -188 c-86 -103 -158 -187 -159 -186 -3
2 -153 636 -153 644 0 3 14 -22 31 -56 17 -34 49 -78 72 -98z m467 3 c0 -2
-10 -12 -22 -23 l-23 -19 19 23 c18 21 26 27 26 19z m-50 -60 c0 -2 -12 -14
-27 -28 l-28 -24 24 28 c23 25 31 32 31 24z m-613 -299 c-3 -8 -6 -5 -6 6 -1
11 2 17 5 13 3 -3 4 -12 1 -19z m40 -170 c-3 -8 -6 -5 -6 6 -1 11 2 17 5 13 3
-3 4 -12 1 -19z m40 -170 c-3 -8 -6 -5 -6 6 -1 11 2 17 5 13 3 -3 4 -12 1 -19z
m44 -95 c13 -16 12 -17 -3 -4 -17 13 -22 21 -14 21 2 0 10 -8 17 -17z m-871
-688 l0 -185 -371 0 c-321 0 -376 2 -405 16 l-34 16 0 164 0 163 103 4 c56 1
238 4 405 5 l302 2 0 -185z m1140 1 l0 -186 -405 0 -405 0 0 183 0 182 405 4
405 4 0 -187z m1060 0 l0 -186 -410 0 -410 0 0 183 0 182 410 4 410 4 0 -187z
m1130 0 l0 -186 -410 0 -410 0 0 183 0 182 410 4 410 4 0 -187z m7 -392 c-3
-3 -12 -4 -19 -1 -8 3 -5 6 6 6 11 1 17 -2 13 -5z"/>
</g>
</svg>
