<?xml version="1.0" standalone="no"?>
<!DOCTYPE svg PUBLIC "-//W3C//DTD SVG 20010904//EN"
 "http://www.w3.org/TR/2001/REC-SVG-20010904/DTD/svg10.dtd">
<svg version="1.0" xmlns="http://www.w3.org/2000/svg"
 width="640.000000pt" height="640.000000pt" viewBox="0 0 640.000000 640.000000"
 preserveAspectRatio="xMidYMid meet">
<metadata>
Created by potrace 1.16, written by Peter Selinger 2001-2019
</metadata>
<g transform="translate(0.000000,640.000000) scale(0.100000,-0.100000)"
fill="#000000" stroke="none">
<path d="M0 3200 l0 -3200 3200 0 3200 0 0 3200 0 3200 -3200 0 -3200 0 0
-3200z m5470 1915 c19 -19 32 -35 29 -35 -3 0 -20 16 -39 35 -19 19 -32 35
-29 35 3 0 20 -16 39 -35z m-3480 -275 l0 -180 -50 0 -50 0 0 180 0 180 50 0
50 0 0 -180z m200 0 l0 -180 -45 0 -45 0 0 180 0 180 45 0 45 0 0 -180z m850
0 l0 -180 -50 0 -50 0 0 180 0 180 50 0 50 0 0 -180z m210 0 l0 -180 -50 0
-50 0 0 180 0 180 50 0 50 0 0 -180z m920 0 l0 -180 -45 0 -45 0 0 180 0 180
45 0 45 0 0 -180z m210 0 l0 -180 -50 0 -50 0 0 180 0 180 50 0 50 0 0 -180z
m900 155 l30 -16 0 -159 0 -160 -45 0 -45 0 0 175 c0 192 0 191 60 160z
m-4453 -87 c-3 -8 -6 -5 -6 6 -1 11 2 17 5 13 3 -3 4 -12 1 -19z m223 -118 c0
-80 -4 -130 -10 -130 -6 0 -10 45 -10 114 0 103 5 146 16 146 2 0 4 -58 4
-130z m1490 -755 c-17 -33 -18 -67 -15 -443 l4 -407 -14 310 c-7 171 -14 358
-14 416 -1 102 0 107 25 133 15 14 28 26 29 26 2 0 -5 -16 -15 -35z m201 -2
c13 -16 12 -17 -3 -4 -17 13 -22 21 -14 21 2 0 10 -8 17 -17z m40 -30 c13 -16
12 -17 -3 -4 -17 13 -22 21 -14 21 2 0 10 -8 17 -17z m70 -50 c13 -16 12 -17
-3 -4 -17 13 -22 21 -14 21 2 0 10 -8 17 -17z m40 -30 c13 -16 12 -17 -3 -4
-17 13 -22 21 -14 21 2 0 10 -8 17 -17z m40 -30 c13 -16 12 -17 -3 -4 -17 13
-22 21 -14 21 2 0 10 -8 17 -17z m40 -30 c13 -16 12 -17 -3 -4 -17 13 -22 21
-14 21 2 0 10 -8 17 -17z m70 -50 c13 -16 12 -17 -3 -4 -10 7 -18 15 -18 17 0
8 8 3 21 -13z m40 -30 c13 -16 12 -17 -3 -4 -17 13 -22 21 -14 21 2 0 10 -8
17 -17z m-91 -193 c318 -233 288 -218 -88 44 -84 58 -155 106 -157 106 -3 0
-6 -118 -8 -262 l-2 -263 -3 284 -2 283 33 -24 c17 -14 120 -89 227 -168z
m131 163 c13 -16 12 -17 -3 -4 -10 7 -18 15 -18 17 0 8 8 3 21 -13z m70 -50
c13 -16 12 -17 -3 -4 -17 13 -22 21 -14 21 2 0 10 -8 17 -17z m40 -30 c13 -16
12 -17 -3 -4 -17 13 -22 21 -14 21 2 0 10 -8 17 -17z m40 -30 c13 -16 12 -17
-3 -4 -17 13 -22 21 -14 21 2 0 10 -8 17 -17z m40 -30 c13 -16 12 -17 -3 -4
-17 13 -22 21 -14 21 2 0 10 -8 17 -17z m377 -262 c153 -106 182 -134 182
-174 0 -7 -6 -1 -13 13 -7 14 -110 97 -229 185 -217 160 -291 219 -168 134 36
-25 138 -96 228 -158z m-377 2 c13 -16 12 -17 -3 -4 -17 13 -22 21 -14 21 2 0
10 -8 17 -17z m40 -30 c13 -16 12 -17 -3 -4 -17 13 -22 21 -14 21 2 0 10 -8
17 -17z m40 -30 c13 -16 12 -17 -3 -4 -10 7 -18 15 -18 17 0 8 8 3 21 -13z
m40 -30 c13 -16 12 -17 -3 -4 -10 7 -18 15 -18 17 0 8 8 3 21 -13z m70 -50
c13 -16 12 -17 -3 -4 -17 13 -22 21 -14 21 2 0 10 -8 17 -17z m40 -30 c13 -16
12 -17 -3 -4 -17 13 -22 21 -14 21 2 0 10 -8 17 -17z m48 -46 c-2 -2 -44 -34
-94 -72 -49 -38 -118 -91 -152 -118 -35 -27 -63 -46 -63 -44 0 3 66 58 146
122 108 88 144 122 139 134 -5 14 -4 14 11 -1 10 -10 16 -19 13 -21z m271 -50
c0 -2 -12 -14 -27 -28 l-28 -24 24 28 c23 25 31 32 31 24z m-1109 -590 c-8 -8
-11 63 -9 269 l1 279 10 -268 c7 -196 6 -272 -2 -280z m1049 539 c0 -2 -8 -10
-17 -17 -16 -13 -17 -12 -4 4 13 16 21 21 21 13z m-40 -30 c0 -2 -8 -10 -17
-17 -16 -13 -17 -12 -4 4 13 16 21 21 21 13z m-40 -29 c0 -2 -10 -12 -22 -23
l-23 -19 19 23 c18 21 26 27 26 19z m-50 -41 c0 -2 -8 -10 -17 -17 -16 -13
-17 -12 -4 4 13 16 21 21 21 13z m-40 -30 c0 -2 -8 -10 -17 -17 -16 -13 -17
-12 -4 4 13 16 21 21 21 13z m-360 -10 c0 -2 -8 -10 -17 -17 -16 -13 -17 -12
-4 4 13 16 21 21 21 13z m320 -20 c0 -2 -8 -10 -17 -17 -16 -13 -17 -12 -4 4
13 16 21 21 21 13z m-360 -10 c0 -2 -8 -10 -17 -17 -16 -13 -17 -12 -4 4 13
16 21 21 21 13z m320 -20 c0 -2 -8 -10 -17 -17 -16 -13 -17 -12 -4 4 13 16 21
21 21 13z m-360 -10 c0 -2 -8 -10 -17 -17 -16 -13 -17 -12 -4 4 13 16 21 21
21 13z m310 -30 c0 -2 -8 -10 -17 -17 -16 -13 -17 -12 -4 4 13 16 21 21 21 13z
m-360 -10 c0 -2 -8 -10 -17 -17 -16 -13 -17 -12 -4 4 13 16 21 21 21 13z m320
-20 c0 -2 -8 -10 -17 -17 -16 -13 -17 -12 -4 4 13 16 21 21 21 13z m-360 -10
c0 -2 -8 -10 -17 -17 -16 -13 -17 -12 -4 4 13 16 21 21 21 13z m320 -20 c0 -4
-80 -69 -452 -369 -241 -193 -260 -207 -298 -207 -44 0 -88 18 -110 46 -8 9 3
5 24 -10 21 -14 45 -26 53 -26 34 0 100 46 428 299 361 278 355 273 355 267z
m-360 -10 c0 -2 -8 -10 -17 -17 -16 -13 -17 -12 -4 4 13 16 21 21 21 13z m-40
-30 c0 -2 -8 -10 -17 -17 -16 -13 -17 -12 -4 4 13 16 21 21 21 13z m-483 -333
c-1 -59 -3 -13 -3 102 0 116 2 164 3 108 2 -56 2 -151 0 -210z m433 293 c0 -2
-8 -10 -17 -17 -16 -13 -17 -12 -4 4 13 16 21 21 21 13z m-40 -30 c0 -2 -8
-10 -17 -17 -16 -13 -17 -12 -4 4 13 16 21 21 21 13z m-40 -30 c0 -2 -8 -10
-17 -17 -16 -13 -17 -12 -4 4 13 16 21 21 21 13z m-40 -30 c0 -2 -8 -10 -17
-17 -16 -13 -17 -12 -4 4 13 16 21 21 21 13z m-40 -29 c0 -2 -10 -12 -22 -23
l-23 -19 19 23 c18 21 26 27 26 19z m-1760 -1054 c0 -93 -3 -133 -10 -123 -13
20 -13 260 0 260 6 0 10 -52 10 -137z m940 -54 l0 -179 -50 0 -50 0 0 183 0
182 50 -3 50 -4 0 -179z m200 6 l0 -185 -45 0 -45 0 0 185 0 185 45 0 45 0 0
-185z m850 -6 l0 -179 -50 0 -50 0 0 183 0 182 50 -3 50 -4 0 -179z m208 4 l2
-183 -50 0 -50 0 0 186 0 185 48 -3 47 -3 3 -182z m922 -4 l0 -179 -45 0 -45
0 0 183 0 182 45 -3 45 -4 0 -179z m210 6 l0 -185 -50 0 -50 0 0 185 0 185 50
0 50 0 0 -185z m930 16 c0 -154 -1 -159 -22 -173 -13 -8 -33 -18 -45 -22 l-23
-7 0 180 0 181 45 0 45 0 0 -159z m210 -244 c0 -2 -10 -12 -22 -23 l-23 -19
19 23 c18 21 26 27 26 19z m-60 -60 c0 -2 -10 -12 -22 -23 l-23 -19 19 23 c18
21 26 27 26 19z m-4489 -24 c13 -16 12 -17 -3 -4 -17 13 -22 21 -14 21 2 0 10
-8 17 -17z"/>
</g>
</svg>
