<?xml version="1.0" standalone="no"?>
<!DOCTYPE svg PUBLIC "-//W3C//DTD SVG 20010904//EN"
 "http://www.w3.org/TR/2001/REC-SVG-20010904/DTD/svg10.dtd">
<svg version="1.0" xmlns="http://www.w3.org/2000/svg"
 width="640.000000pt" height="640.000000pt" viewBox="0 0 640.000000 640.000000"
 preserveAspectRatio="xMidYMid meet">
<metadata>
Created by potrace 1.16, written by Peter Selinger 2001-2019
</metadata>
<g transform="translate(0.000000,640.000000) scale(0.100000,-0.100000)"
fill="#000000" stroke="none">
<path d="M0 3200 l0 -3200 3200 0 3200 0 0 3200 0 3200 -3200 0 -3200 0 0
-3200z m1583 2023 c-7 -2 -19 -2 -25 0 -7 3 -2 5 12 5 14 0 19 -2 13 -5z
m1050 0 c-7 -2 -19 -2 -25 0 -7 3 -2 5 12 5 14 0 19 -2 13 -5z m1140 0 c-7 -2
-21 -2 -30 0 -10 3 -4 5 12 5 17 0 24 -2 18 -5z m1130 0 c-7 -2 -19 -2 -25 0
-7 3 -2 5 12 5 14 0 19 -2 13 -5z m334 1 c-3 -3 -12 -4 -19 -1 -8 3 -5 6 6 6
11 1 17 -2 13 -5z m-4302 -114 c-21 -22 -40 -38 -43 -36 -4 4 69 75 78 76 2 0
-13 -18 -35 -40z m4540 0 c21 -22 37 -40 34 -40 -3 0 -23 18 -44 40 -21 22
-37 40 -34 40 3 0 23 -18 44 -40z m-3285 -270 l0 -180 -495 0 -495 0 -2 28 c0
15 0 35 0 45 1 12 -2 16 -11 11 -9 -6 -9 -4 1 7 15 17 16 51 0 67 -8 8 -9 12
-1 12 7 0 11 25 11 68 0 37 0 79 1 95 l1 27 495 0 495 0 0 -180z m1060 0 l0
-180 -495 0 -495 0 0 180 0 180 495 0 495 0 0 -180z m1130 0 l0 -180 -495 0
-495 0 0 180 0 180 495 0 495 0 0 -180z m877 169 c34 -13 80 -55 99 -91 10
-19 14 -63 14 -143 l0 -115 -420 0 -420 0 0 180 0 180 349 0 c223 0 360 -4
378 -11z m-4430 -111 c-3 -7 -5 -2 -5 12 0 14 2 19 5 13 2 -7 2 -19 0 -25z
m223 -108 c0 -80 -4 -130 -10 -130 -6 0 -10 45 -10 114 0 103 5 146 16 146 2
0 4 -58 4 -130z m1651 -721 l24 -20 -30 17 c-39 24 -40 24 -28 24 6 0 21 -9
34 -21z m-142 -15 l-24 -26 -5 -421 -5 -422 -14 408 c-15 441 -15 437 37 470
37 23 39 21 11 -9z m192 -21 c13 -16 12 -17 -3 -4 -17 13 -22 21 -14 21 2 0
10 -8 17 -17z m40 -30 c13 -16 12 -17 -3 -4 -17 13 -22 21 -14 21 2 0 10 -8
17 -17z m40 -30 c13 -16 12 -17 -3 -4 -17 13 -22 21 -14 21 2 0 10 -8 17 -17z
m150 -110 c13 -16 12 -17 -3 -4 -17 13 -22 21 -14 21 2 0 10 -8 17 -17z m40
-30 c13 -16 12 -17 -3 -4 -17 13 -22 21 -14 21 2 0 10 -8 17 -17z m40 -30 c13
-16 12 -17 -3 -4 -17 13 -22 21 -14 21 2 0 10 -8 17 -17z m139 -371 c8 -8 -32
18 -90 58 -332 228 -370 256 -370 273 0 12 66 -32 223 -149 122 -92 229 -173
237 -182z m-59 311 c13 -16 12 -17 -3 -4 -17 13 -22 21 -14 21 2 0 10 -8 17
-17z m40 -30 c13 -16 12 -17 -3 -4 -17 13 -22 21 -14 21 2 0 10 -8 17 -17z
m40 -30 c13 -16 12 -17 -3 -4 -17 13 -22 21 -14 21 2 0 10 -8 17 -17z m40 -30
c13 -16 12 -17 -3 -4 -17 13 -22 21 -14 21 2 0 10 -8 17 -17z m40 -30 c13 -16
12 -17 -3 -4 -17 13 -22 21 -14 21 2 0 10 -8 17 -17z m40 -30 c13 -16 12 -17
-3 -4 -17 13 -22 21 -14 21 2 0 10 -8 17 -17z m347 -242 c158 -109 183 -135
181 -179 0 -14 -2 -14 -6 -2 -11 30 -41 55 -238 203 -206 154 -280 215 -165
135 36 -24 138 -95 228 -157z m-337 -28 c13 -16 12 -17 -3 -4 -17 13 -22 21
-14 21 2 0 10 -8 17 -17z m40 -30 c13 -16 12 -17 -3 -4 -10 7 -18 15 -18 17 0
8 8 3 21 -13z m40 -30 c13 -16 12 -17 -3 -4 -10 7 -18 15 -18 17 0 8 8 3 21
-13z m40 -30 c13 -16 12 -17 -3 -4 -17 13 -22 21 -14 21 2 0 10 -8 17 -17z
m40 -30 c13 -16 12 -17 -3 -4 -17 13 -22 21 -14 21 2 0 10 -8 17 -17z m40 -30
c13 -16 12 -17 -3 -4 -17 13 -22 21 -14 21 2 0 10 -8 17 -17z m39 -32 c0 -5
-70 -61 -155 -125 -85 -64 -155 -114 -155 -112 0 2 65 57 145 121 80 64 145
121 145 126 0 6 5 7 10 4 6 -3 10 -10 10 -14z m-839 -634 c-8 -8 -11 62 -9
264 l1 274 10 -263 c7 -192 6 -267 -2 -275z m1029 509 c0 -2 -8 -10 -17 -17
-16 -13 -17 -12 -4 4 13 16 21 21 21 13z m-40 -30 c0 -2 -8 -10 -17 -17 -16
-13 -17 -12 -4 4 13 16 21 21 21 13z m-40 -30 c0 -2 -8 -10 -17 -17 -16 -13
-17 -12 -4 4 13 16 21 21 21 13z m-40 -30 c0 -2 -8 -10 -17 -17 -16 -13 -17
-12 -4 4 13 16 21 21 21 13z m-390 -30 c0 -2 -8 -10 -17 -17 -16 -13 -17 -12
-4 4 13 16 21 21 21 13z m350 0 c0 -2 -8 -10 -17 -17 -16 -13 -17 -12 -4 4 13
16 21 21 21 13z m-390 -30 c0 -2 -8 -10 -17 -17 -16 -13 -17 -12 -4 4 13 16
21 21 21 13z m350 0 c0 -2 -8 -10 -17 -17 -16 -13 -17 -12 -4 4 13 16 21 21
21 13z m-390 -30 c0 -2 -8 -10 -17 -17 -16 -13 -17 -12 -4 4 13 16 21 21 21
13z m350 0 c0 -2 -8 -10 -17 -17 -16 -13 -17 -12 -4 4 13 16 21 21 21 13z
m-390 -30 c0 -2 -8 -10 -17 -17 -16 -13 -17 -12 -4 4 13 16 21 21 21 13z m350
0 c0 -2 -8 -10 -17 -17 -16 -13 -17 -12 -4 4 13 16 21 21 21 13z m-390 -30 c0
-2 -8 -10 -17 -17 -16 -13 -17 -12 -4 4 13 16 21 21 21 13z m350 0 c0 -2 -8
-10 -17 -17 -16 -13 -17 -12 -4 4 13 16 21 21 21 13z m-390 -30 c0 -2 -8 -10
-17 -17 -16 -13 -17 -12 -4 4 13 16 21 21 21 13z m350 0 c0 -4 -80 -69 -452
-369 -241 -193 -260 -207 -298 -207 -37 0 -100 23 -100 36 0 2 9 0 19 -6 57
-30 68 -23 456 270 381 287 375 282 375 276z m-390 -30 c0 -2 -8 -10 -17 -17
-16 -13 -17 -12 -4 4 13 16 21 21 21 13z m-40 -30 c0 -2 -8 -10 -17 -17 -16
-13 -17 -12 -4 4 13 16 21 21 21 13z m-40 -30 c0 -2 -8 -10 -17 -17 -16 -13
-17 -12 -4 4 13 16 21 21 21 13z m-1900 -1163 c0 -93 -3 -133 -10 -123 -13 20
-13 260 0 260 6 0 10 -52 10 -137z m1140 -47 l0 -186 -497 2 -497 3 1 83 c1
53 -2 80 -9 76 -6 -4 -6 2 1 14 13 25 14 35 3 28 -5 -3 -9 1 -9 9 0 8 3 15 7
15 4 0 6 30 6 68 l-1 67 498 4 497 3 0 -186z m1060 -1 l0 -185 -495 0 -495 0
0 180 0 179 103 4 c56 1 279 4 495 5 l392 2 0 -185z m1130 1 l0 -186 -495 0
-495 0 0 183 0 182 495 4 495 4 0 -187z m990 62 c0 -110 -2 -125 -24 -162 -13
-23 -42 -51 -64 -64 -39 -22 -46 -22 -396 -22 l-356 0 0 180 0 179 103 4 c56
1 245 4 420 5 l317 2 0 -122z m-4543 -150 c-3 -8 -6 -5 -6 6 -1 11 2 17 5 13
3 -3 4 -12 1 -19z m37 -94 c3 -8 2 -12 -4 -9 -6 3 -10 10 -10 16 0 14 7 11 14
-7z m41 -64 c10 -11 16 -20 13 -20 -3 0 -13 9 -23 20 -10 11 -16 20 -13 20 3
0 13 -9 23 -20z m4615 17 c0 -2 -10 -12 -22 -23 l-23 -19 19 23 c18 21 26 27
26 19z m-4555 -77 c10 -11 16 -20 13 -20 -3 0 -13 9 -23 20 -10 11 -16 20 -13
20 3 0 13 -9 23 -20z m4495 17 c0 -2 -10 -12 -22 -23 l-23 -19 19 23 c18 21
26 27 26 19z m-200 -101 c0 -9 -30 -14 -35 -6 -4 6 3 10 14 10 12 0 21 -2 21
-4z"/>
</g>
</svg>
