<?xml version="1.0" standalone="no"?>
<!DOCTYPE svg PUBLIC "-//W3C//DTD SVG 20010904//EN"
 "http://www.w3.org/TR/2001/REC-SVG-20010904/DTD/svg10.dtd">
<svg version="1.0" xmlns="http://www.w3.org/2000/svg"
 width="640.000000pt" height="640.000000pt" viewBox="0 0 640.000000 640.000000"
 preserveAspectRatio="xMidYMid meet">
<metadata>
Created by potrace 1.16, written by Peter Selinger 2001-2019
</metadata>
<g transform="translate(0.000000,640.000000) scale(0.100000,-0.100000)"
fill="#000000" stroke="none">
<path d="M0 3200 l0 -3200 3200 0 3200 0 0 3200 0 3200 -3200 0 -3200 0 0
-3200z m1330 1640 l0 -180 -45 0 -45 0 0 180 0 180 45 0 45 0 0 -180z m850 0
l0 -180 -50 0 -50 0 0 180 0 180 50 0 50 0 0 -180z m200 0 l0 -180 -45 0 -45
0 0 180 0 180 45 0 45 0 0 -180z m930 0 l0 -180 -45 0 -45 0 0 180 0 180 45 0
45 0 0 -180z m210 0 l0 -180 -50 0 -50 0 0 180 0 180 50 0 50 0 0 -180z m930
0 l0 -180 -50 0 -50 0 0 180 0 180 50 0 50 0 0 -180z m200 0 l0 -180 -45 0
-45 0 0 180 0 180 45 0 45 0 0 -180z m-3520 -10 l0 -170 -50 0 -50 0 0 111 c0
124 12 162 62 204 16 14 31 25 34 25 2 0 4 -76 4 -170z m4447 78 c-3 -8 -6 -5
-6 6 -1 11 2 17 5 13 3 -3 4 -12 1 -19z m-4447 -3459 c0 -159 -1 -169 -17
-160 -23 12 -57 49 -72 78 -6 12 -11 72 -11 140 l0 118 50 -3 50 -4 0 -169z
m200 -4 l0 -185 -45 0 -45 0 0 185 0 185 45 0 45 0 0 -185z m850 -6 l0 -179
-50 0 -50 0 0 183 0 182 50 -3 50 -4 0 -179z m200 6 l0 -185 -45 0 -45 0 0
185 0 185 45 0 45 0 0 -185z m1140 0 l0 -185 -50 0 -50 0 0 185 0 185 50 0 50
0 0 -185z m930 -6 l0 -179 -50 0 -50 0 0 183 0 182 50 -3 50 -4 0 -179z m200
6 l0 -185 -45 0 -45 0 0 185 0 185 45 0 45 0 0 -185z m-1340 -5 l0 -180 -45 0
-45 0 0 180 0 180 45 0 45 0 0 -180z m2210 -224 c0 -2 -8 -10 -17 -17 -16 -13
-17 -12 -4 4 13 16 21 21 21 13z m-4357 -163 c-7 -2 -19 -2 -25 0 -7 3 -2 5
12 5 14 0 19 -2 13 -5z"/>
</g>
</svg>
