<?xml version="1.0" standalone="no"?>
<!DOCTYPE svg PUBLIC "-//W3C//DTD SVG 20010904//EN"
 "http://www.w3.org/TR/2001/REC-SVG-20010904/DTD/svg10.dtd">
<svg version="1.0" xmlns="http://www.w3.org/2000/svg"
 width="640.000000pt" height="640.000000pt" viewBox="0 0 640.000000 640.000000"
 preserveAspectRatio="xMidYMid meet">
<metadata>
Created by potrace 1.16, written by Peter Selinger 2001-2019
</metadata>
<g transform="translate(0.000000,640.000000) scale(0.100000,-0.100000)"
fill="#000000" stroke="none">
<path d="M0 3200 l0 -3200 3200 0 3200 0 0 3200 0 3200 -3200 0 -3200 0 0
-3200z m970 1947 c0 -2 -19 -21 -42 -42 l-43 -40 40 43 c36 39 45 47 45 39z
m4543 -77 c-2 -2 -23 16 -46 40 l-42 44 46 -40 c25 -21 44 -41 42 -44z m-4183
-230 l0 -180 -150 0 -150 0 0 115 c0 126 7 150 57 197 40 39 68 47 161 47 l82
1 0 -180z m1050 0 l0 -180 -405 0 -405 0 0 180 0 180 405 0 405 0 0 -180z
m1140 0 l0 -180 -410 0 -410 0 0 180 0 180 410 0 410 0 0 -180z m1130 0 l0
-180 -405 0 -405 0 0 180 0 180 405 0 405 0 0 -180z m607 169 c34 -13 80 -55
99 -91 10 -19 14 -63 14 -143 l0 -115 -200 0 -200 0 0 180 0 180 129 0 c71 0
142 -5 158 -11z m-4430 -111 c-3 -7 -5 -2 -5 12 0 14 2 19 5 13 2 -7 2 -19 0
-25z m4750 0 c-3 -7 -5 -2 -5 12 0 14 2 19 5 13 2 -7 2 -19 0 -25z m-207
-3391 c0 -109 -2 -124 -24 -161 -13 -23 -42 -51 -64 -64 -36 -20 -53 -22 -176
-22 l-136 0 0 180 0 180 -160 0 -160 0 0 -180 0 -180 -405 0 -405 0 0 180 0
180 -160 0 -160 0 0 -180 0 -180 -410 0 -410 0 0 180 0 180 -160 0 -160 0 0
-180 0 -180 -405 0 -405 0 0 180 0 180 -120 0 -120 0 0 -180 0 -180 -86 0
c-104 0 -153 22 -190 86 -22 37 -24 52 -24 162 l0 121 2170 -1 2170 0 0 -121z
m-4543 -149 c-3 -8 -6 -5 -6 6 -1 11 2 17 5 13 3 -3 4 -12 1 -19z m4750 0 c-3
-8 -6 -5 -6 6 -1 11 2 17 5 13 3 -3 4 -12 1 -19z m-4713 -94 c3 -8 2 -12 -4
-9 -6 3 -10 10 -10 16 0 14 7 11 14 -7z m4677 -7 c-10 -9 -11 -8 -5 6 3 10 9
15 12 12 3 -3 0 -11 -7 -18z m-4636 -57 c10 -11 16 -20 13 -20 -3 0 -13 9 -23
20 -10 11 -16 20 -13 20 3 0 13 -9 23 -20z m4625 16 c0 -2 -12 -12 -27 -21
l-28 -18 19 21 c17 20 36 29 36 18z m-4565 -76 c10 -11 16 -20 13 -20 -3 0
-13 9 -23 20 -10 11 -16 20 -13 20 3 0 13 -9 23 -20z m4495 17 c0 -2 -10 -12
-22 -23 l-23 -19 19 23 c18 21 26 27 26 19z m-57 -52 c-3 -9 -8 -14 -10 -11
-3 3 -2 9 2 15 9 16 15 13 8 -4z m-4240 -52 c-7 -2 -19 -2 -25 0 -7 3 -2 5 12
5 14 0 19 -2 13 -5z m4100 0 c-7 -2 -21 -2 -30 0 -10 3 -4 5 12 5 17 0 24 -2
18 -5z"/>
</g>
</svg>
