<?xml version="1.0" standalone="no"?>
<!DOCTYPE svg PUBLIC "-//W3C//DTD SVG 20010904//EN"
 "http://www.w3.org/TR/2001/REC-SVG-20010904/DTD/svg10.dtd">
<svg version="1.0" xmlns="http://www.w3.org/2000/svg"
 width="640.000000pt" height="640.000000pt" viewBox="0 0 640.000000 640.000000"
 preserveAspectRatio="xMidYMid meet">
<metadata>
Created by potrace 1.16, written by Peter Selinger 2001-2019
</metadata>
<g transform="translate(0.000000,640.000000) scale(0.100000,-0.100000)"
fill="#000000" stroke="none">
<path d="M0 3200 l0 -3200 3200 0 3200 0 0 3200 0 3200 -3200 0 -3200 0 0
-3200z m5475 1910 c21 -22 37 -40 34 -40 -3 0 -23 18 -44 40 -21 22 -37 40
-34 40 3 0 23 -18 44 -40z m-4145 -270 l0 -180 -90 0 -90 0 0 173 c0 96 3 177
7 180 3 4 44 7 90 7 l83 0 0 -180z m850 0 l0 -180 -90 0 -90 0 0 180 0 180 90
0 90 0 0 -180z m200 0 l0 -180 -90 0 -90 0 0 180 0 180 90 0 90 0 0 -180z
m930 0 l0 -180 -90 0 -90 0 0 180 0 180 90 0 90 0 0 -180z m210 0 l0 -180 -90
0 -90 0 0 180 0 180 90 0 90 0 0 -180z m930 0 l0 -180 -90 0 -90 0 0 180 0
180 90 0 90 0 0 -180z m200 0 l0 -180 -90 0 -90 0 0 180 0 180 90 0 90 0 0
-180z m-3520 -10 l0 -170 -50 0 -50 0 0 111 c0 124 12 162 62 204 16 14 31 25
34 25 2 0 4 -76 4 -170z m4447 78 c-3 -8 -6 -5 -6 6 -1 11 2 17 5 13 3 -3 4
-12 1 -19z m-4247 -3463 l0 -186 -87 3 -88 3 -3 183 -2 182 90 0 90 0 0 -185z
m1050 0 l0 -185 -90 0 -90 0 0 185 0 185 90 0 90 0 0 -185z m930 -6 l0 -179
-90 0 -90 0 0 183 0 182 90 -3 90 -3 0 -180z m210 6 l0 -185 -90 0 -90 0 0
185 0 185 90 0 90 0 0 -185z m930 -6 l0 -179 -90 0 -90 0 0 183 0 182 90 -3
90 -3 0 -180z m200 6 l0 -185 -90 0 -90 0 0 185 0 185 90 0 90 0 0 -185z
m-3520 5 c0 -160 -1 -170 -17 -161 -28 14 -61 53 -72 84 -6 16 -11 78 -11 138
l0 109 50 0 50 0 0 -170z m1050 -10 l0 -180 -90 0 -90 0 0 180 0 180 90 0 90
0 0 -180z m3340 -224 c0 -2 -8 -10 -17 -17 -16 -13 -17 -12 -4 4 13 16 21 21
21 13z m-4549 -83 c13 -16 12 -17 -3 -4 -17 13 -22 21 -14 21 2 0 10 -8 17
-17z m4479 13 c0 -2 -8 -10 -17 -17 -16 -13 -17 -12 -4 4 13 16 21 21 21 13z
m-4287 -93 c-7 -2 -19 -2 -25 0 -7 3 -2 5 12 5 14 0 19 -2 13 -5z"/>
</g>
</svg>
