<?xml version="1.0" standalone="no"?>
<!DOCTYPE svg PUBLIC "-//W3C//DTD SVG 20010904//EN"
 "http://www.w3.org/TR/2001/REC-SVG-20010904/DTD/svg10.dtd">
<svg version="1.0" xmlns="http://www.w3.org/2000/svg"
 width="640.000000pt" height="640.000000pt" viewBox="0 0 640.000000 640.000000"
 preserveAspectRatio="xMidYMid meet">
<metadata>
Created by potrace 1.16, written by Peter Selinger 2001-2019
</metadata>
<g transform="translate(0.000000,640.000000) scale(0.100000,-0.100000)"
fill="#000000" stroke="none">
<path d="M0 3200 l0 -3200 3200 0 3200 0 0 3200 0 3200 -3200 0 -3200 0 0
-3200z m970 1947 c0 -2 -17 -19 -37 -38 l-38 -34 34 38 c33 34 41 42 41 34z
m4505 -37 c21 -22 37 -40 34 -40 -3 0 -23 18 -44 40 -21 22 -37 40 -34 40 3 0
23 -18 44 -40z m-4145 -270 l0 -180 -151 0 -151 0 4 124 c3 121 4 125 34 163
46 57 85 73 182 73 l82 0 0 -180z m1050 0 l0 -180 -235 0 -235 0 0 180 0 180
235 0 235 0 0 -180z m1140 0 l0 -180 -240 0 -240 0 0 180 0 180 240 0 240 0 0
-180z m1130 0 l0 -180 -235 0 -235 0 0 180 0 180 235 0 235 0 0 -180z m704 76
c12 -25 16 -64 16 -145 l0 -111 -30 0 -30 0 0 156 c0 133 2 155 14 145 8 -7
21 -27 30 -45z m223 -18 c-3 -7 -5 -2 -5 12 0 14 2 19 5 13 2 -7 2 -19 0 -25z
m-4069 -3275 l-178 -3 0 -180 0 -180 -87 0 c-74 0 -92 4 -129 25 -66 39 -84
86 -84 222 0 98 2 112 18 116 9 3 157 4 327 4 171 -1 230 -3 133 -4z m1045 0
l-173 -3 0 -180 0 -180 -235 0 -235 0 0 183 0 182 408 1 c224 0 329 -1 235 -3z
m1135 0 l-168 -3 0 -180 0 -180 -240 0 -240 0 0 183 0 182 408 1 c224 0 332
-1 240 -3z m1135 0 l-173 -3 0 -180 0 -180 -235 0 -235 0 0 183 0 182 408 1
c224 0 329 -1 235 -3z m547 -114 c0 -112 -11 -161 -43 -188 -16 -12 -17 -1
-17 146 l0 160 30 -5 30 -4 0 -109z m207 -151 c-3 -8 -6 -5 -6 6 -1 11 2 17 5
13 3 -3 4 -12 1 -19z m-36 -101 c-10 -9 -11 -8 -5 6 3 10 9 15 12 12 3 -3 0
-11 -7 -18z m-4640 -54 c13 -16 12 -17 -3 -4 -10 7 -18 15 -18 17 0 8 8 3 21
-13z m4619 13 c0 -2 -8 -10 -17 -17 -16 -13 -17 -12 -4 4 13 16 21 21 21 13z
m-4549 -83 c13 -16 12 -17 -3 -4 -17 13 -22 21 -14 21 2 0 10 -8 17 -17z
m4479 13 c0 -2 -8 -10 -17 -17 -16 -13 -17 -12 -4 4 13 16 21 21 21 13z
m-4287 -93 c-7 -2 -19 -2 -25 0 -7 3 -2 5 12 5 14 0 19 -2 13 -5z"/>
</g>
</svg>
