<?xml version="1.0" standalone="no"?>
<!DOCTYPE svg PUBLIC "-//W3C//DTD SVG 20010904//EN"
 "http://www.w3.org/TR/2001/REC-SVG-20010904/DTD/svg10.dtd">
<svg version="1.0" xmlns="http://www.w3.org/2000/svg"
 width="640.000000pt" height="640.000000pt" viewBox="0 0 640.000000 640.000000"
 preserveAspectRatio="xMidYMid meet">
<metadata>
Created by potrace 1.16, written by Peter Selinger 2001-2019
</metadata>
<g transform="translate(0.000000,640.000000) scale(0.100000,-0.100000)"
fill="#000000" stroke="none">
<path d="M0 3200 l0 -3200 3200 0 3200 0 0 3200 0 3200 -3200 0 -3200 0 0
-3200z m970 1947 c0 -2 -17 -19 -37 -38 l-38 -34 34 38 c33 34 41 42 41 34z
m4543 -77 c-2 -2 -23 16 -46 40 l-42 44 46 -40 c25 -21 44 -41 42 -44z m-4183
-230 l0 -180 -150 0 -150 0 0 115 c0 126 7 150 57 197 40 39 68 47 161 47 l82
1 0 -180z m1050 0 l0 -180 -280 0 -280 0 0 180 0 180 280 0 280 0 0 -180z
m1140 0 l0 -180 -280 0 -280 0 0 180 0 180 280 0 280 0 0 -180z m1130 0 l0
-180 -280 0 -280 0 0 180 0 180 280 0 280 0 0 -180z m630 155 c16 -8 42 -31
57 -52 27 -35 28 -42 31 -160 l4 -123 -71 0 -71 0 0 175 c0 116 4 175 10 175
6 0 24 -7 40 -15z m-4453 -87 c-3 -8 -6 -5 -6 6 -1 11 2 17 5 13 3 -3 4 -12 1
-19z m4750 -10 c-3 -7 -5 -2 -5 12 0 14 2 19 5 13 2 -7 2 -19 0 -25z m-4069
-3275 l-178 -3 0 -180 0 -180 -86 0 c-104 0 -153 22 -190 86 -22 37 -24 52
-24 162 l0 122 328 -2 c190 -2 253 -4 150 -5z m1045 0 l-173 -3 0 -180 0 -180
-280 0 -280 0 0 183 0 182 453 1 c248 0 374 -1 280 -3z m1135 0 l-168 -3 0
-180 0 -180 -280 0 -280 0 0 183 0 182 448 1 c246 0 372 -1 280 -3z m1135 0
l-173 -3 0 -180 0 -180 -280 0 -280 0 0 183 0 182 453 1 c248 0 374 -1 280 -3z
m547 -114 c0 -127 -11 -162 -65 -206 -76 -63 -75 -65 -75 140 l0 182 70 -3 70
-4 0 -109z m207 -151 c-3 -8 -6 -5 -6 6 -1 11 2 17 5 13 3 -3 4 -12 1 -19z
m-36 -101 c-10 -9 -11 -8 -5 6 3 10 9 15 12 12 3 -3 0 -11 -7 -18z m-4640 -54
c13 -16 12 -17 -3 -4 -10 7 -18 15 -18 17 0 8 8 3 21 -13z m4619 9 c0 -4 -10
-13 -22 -21 -23 -14 -23 -14 -4 8 20 22 26 25 26 13z m-60 -55 c0 -2 -10 -12
-22 -23 l-23 -19 19 23 c18 21 26 27 26 19z m-4489 -24 c13 -16 12 -17 -3 -4
-17 13 -22 21 -14 21 2 0 10 -8 17 -17z m192 -80 c-7 -2 -19 -2 -25 0 -7 3 -2
5 12 5 14 0 19 -2 13 -5z"/>
</g>
</svg>
