<?xml version="1.0" standalone="no"?>
<!DOCTYPE svg PUBLIC "-//W3C//DTD SVG 20010904//EN"
 "http://www.w3.org/TR/2001/REC-SVG-20010904/DTD/svg10.dtd">
<svg version="1.0" xmlns="http://www.w3.org/2000/svg"
 width="640.000000pt" height="640.000000pt" viewBox="0 0 640.000000 640.000000"
 preserveAspectRatio="xMidYMid meet">
<metadata>
Created by potrace 1.16, written by Peter Selinger 2001-2019
</metadata>
<g transform="translate(0.000000,640.000000) scale(0.100000,-0.100000)"
fill="#000000" stroke="none">
<path d="M0 3200 l0 -3200 3200 0 3200 0 0 3200 0 3200 -3200 0 -3200 0 0
-3200z m1520 1640 l0 -180 -246 0 -246 0 4 123 c3 118 4 125 32 161 50 66 86
76 284 76 l172 0 0 -180z m1140 0 l0 -180 -280 0 -280 0 0 180 0 180 280 0
280 0 0 -180z m1130 0 l0 -180 -280 0 -280 0 0 180 0 180 280 0 280 0 0 -180z
m1140 0 l0 -180 -280 0 -280 0 0 180 0 180 280 0 280 0 0 -180z m647 68 c-3
-8 -6 -5 -6 6 -1 11 2 17 5 13 3 -3 4 -12 1 -19z m-3968 -3282 c-3 -3 -24 -6
-47 -7 l-42 -3 0 -179 0 -178 -189 3 -189 3 -39 31 c-62 49 -73 82 -73 211 l0
112 73 4 c116 5 511 7 506 3z m1096 -5 l-40 -6 -3 -177 -2 -178 -280 0 -280 0
0 180 0 179 103 4 c183 5 543 4 502 -2z m1175 6 c-3 -3 -25 -7 -48 -8 l-42 -3
0 -178 0 -178 -280 0 -280 0 0 183 0 182 328 4 c180 2 325 1 322 -2z m1095 -5
l-40 -7 -3 -177 -2 -178 -280 0 -280 0 0 183 0 182 323 2 c177 1 304 -1 282
-5z m542 -417 c0 -8 -4 -15 -9 -15 -10 0 -11 14 -1 23 9 10 10 9 10 -8z
m-4344 -152 c-7 -2 -21 -2 -30 0 -10 3 -4 5 12 5 17 0 24 -2 18 -5z"/>
</g>
</svg>
