<?xml version="1.0" standalone="no"?>
<!DOCTYPE svg PUBLIC "-//W3C//DTD SVG 20010904//EN"
 "http://www.w3.org/TR/2001/REC-SVG-20010904/DTD/svg10.dtd">
<svg version="1.0" xmlns="http://www.w3.org/2000/svg"
 width="640.000000pt" height="640.000000pt" viewBox="0 0 640.000000 640.000000"
 preserveAspectRatio="xMidYMid meet">
<metadata>
Created by potrace 1.16, written by Peter Selinger 2001-2019
</metadata>
<g transform="translate(0.000000,640.000000) scale(0.100000,-0.100000)"
fill="#000000" stroke="none">
<path d="M0 3200 l0 -3200 3200 0 3200 0 0 3200 0 3200 -3200 0 -3200 0 0
-3200z m970 1947 c0 -2 -17 -19 -37 -38 l-38 -34 34 38 c33 34 41 42 41 34z
m4500 -32 c19 -19 32 -35 29 -35 -3 0 -20 16 -39 35 -19 19 -32 35 -29 35 3 0
20 -16 39 -35z m-3950 -275 l0 -180 -246 0 -246 0 4 124 c3 121 4 125 34 163
54 67 76 73 277 73 l177 0 0 -180z m1140 0 l0 -180 -325 0 -325 0 0 180 0 180
325 0 325 0 0 -180z m1130 0 l0 -180 -320 0 -320 0 0 180 0 180 320 0 320 0 0
-180z m1140 0 l0 -180 -325 0 -325 0 0 180 0 180 325 0 325 0 0 -180z m647 68
c-3 -8 -6 -5 -6 6 -1 11 2 17 5 13 3 -3 4 -12 1 -19z m-3968 -3282 c-3 -3 -24
-6 -47 -7 l-42 -3 0 -178 0 -178 -180 0 c-196 0 -212 3 -262 57 -40 42 -48 74
-48 193 l0 109 28 4 c37 6 556 8 551 3z m1096 -4 l-40 -7 -3 -177 -2 -178
-325 0 -325 0 0 183 0 182 368 2 c202 1 349 -1 327 -5z m1174 4 c-3 -3 -24 -6
-47 -7 l-42 -3 0 -178 0 -178 -320 0 -320 0 0 180 0 179 103 4 c174 5 631 7
626 3z m1096 -4 l-40 -7 -3 -177 -2 -178 -325 0 -325 0 0 183 0 182 368 2
c202 1 349 -1 327 -5z m-4074 -419 c13 -16 12 -17 -3 -4 -10 7 -18 15 -18 17
0 8 8 3 21 -13z m4616 2 c0 -8 -7 -15 -15 -15 -12 0 -12 3 -2 15 7 8 13 15 15
15 1 0 2 -7 2 -15z m-4546 -72 c13 -16 12 -17 -3 -4 -17 13 -22 21 -14 21 2 0
10 -8 17 -17z m4479 13 c0 -2 -8 -10 -17 -17 -16 -13 -17 -12 -4 4 13 16 21
21 21 13z m-4277 -93 c-7 -2 -21 -2 -30 0 -10 3 -4 5 12 5 17 0 24 -2 18 -5z"/>
</g>
</svg>
