<?xml version="1.0" standalone="no"?>
<!DOCTYPE svg PUBLIC "-//W3C//DTD SVG 20010904//EN"
 "http://www.w3.org/TR/2001/REC-SVG-20010904/DTD/svg10.dtd">
<svg version="1.0" xmlns="http://www.w3.org/2000/svg"
 width="640.000000pt" height="640.000000pt" viewBox="0 0 640.000000 640.000000"
 preserveAspectRatio="xMidYMid meet">
<metadata>
Created by potrace 1.16, written by Peter Selinger 2001-2019
</metadata>
<g transform="translate(0.000000,640.000000) scale(0.100000,-0.100000)"
fill="#000000" stroke="none">
<path d="M0 3200 l0 -3200 3200 0 3200 0 0 3200 0 3200 -3200 0 -3200 0 0
-3200z m1253 2023 c-7 -2 -19 -2 -25 0 -7 3 -2 5 12 5 14 0 19 -2 13 -5z m90
0 c-7 -2 -19 -2 -25 0 -7 3 -2 5 12 5 14 0 19 -2 13 -5z m90 0 c-7 -2 -21 -2
-30 0 -10 3 -4 5 12 5 17 0 24 -2 18 -5z m960 0 c-7 -2 -21 -2 -30 0 -10 3 -4
5 12 5 17 0 24 -2 18 -5z m80 0 c-7 -2 -19 -2 -25 0 -7 3 -2 5 12 5 14 0 19
-2 13 -5z m90 0 c-7 -2 -19 -2 -25 0 -7 3 -2 5 12 5 14 0 19 -2 13 -5z m960 0
c-7 -2 -19 -2 -25 0 -7 3 -2 5 12 5 14 0 19 -2 13 -5z m90 0 c-7 -2 -19 -2
-25 0 -7 3 -2 5 12 5 14 0 19 -2 13 -5z m90 0 c-7 -2 -21 -2 -30 0 -10 3 -4 5
12 5 17 0 24 -2 18 -5z m960 0 c-7 -2 -21 -2 -30 0 -10 3 -4 5 12 5 17 0 24
-2 18 -5z m90 0 c-7 -2 -21 -2 -30 0 -10 3 -4 5 12 5 17 0 24 -2 18 -5z m80 0
c-7 -2 -19 -2 -25 0 -7 3 -2 5 12 5 14 0 19 -2 13 -5z m-3313 -383 l0 -180
-235 0 -235 0 0 138 0 138 29 28 c49 47 90 55 274 56 l167 0 0 -180z m1140 0
l0 -180 -240 0 -240 0 0 180 0 180 240 0 240 0 0 -180z m1130 0 l0 -180 -235
0 -235 0 0 180 0 180 235 0 235 0 0 -180z m1140 0 l0 -180 -240 0 -240 0 0
180 0 180 240 0 240 0 0 -180z m-3320 -3213 c-3 -3 -25 -7 -48 -8 l-42 -3 0
-178 0 -178 -174 0 c-96 0 -186 4 -199 9 -14 5 -41 24 -61 41 l-36 32 0 142 0
141 283 4 c155 2 280 1 277 -2z m1095 -5 l-40 -7 -3 -177 -2 -178 -240 0 -240
0 0 183 0 182 283 2 c155 1 264 -2 242 -5z m1175 5 c-3 -3 -25 -7 -48 -8 l-42
-3 0 -178 0 -178 -235 0 -235 0 0 183 0 182 283 4 c155 2 280 1 277 -2z m1095
-5 l-40 -7 -3 -177 -2 -178 -240 0 -240 0 0 183 0 182 283 2 c155 1 264 -2
242 -5z m-3812 -569 c-7 -2 -19 -2 -25 0 -7 3 -2 5 12 5 14 0 19 -2 13 -5z"/>
</g>
</svg>
