<?xml version="1.0" standalone="no"?>
<!DOCTYPE svg PUBLIC "-//W3C//DTD SVG 20010904//EN"
 "http://www.w3.org/TR/2001/REC-SVG-20010904/DTD/svg10.dtd">
<svg version="1.0" xmlns="http://www.w3.org/2000/svg"
 width="640.000000pt" height="640.000000pt" viewBox="0 0 640.000000 640.000000"
 preserveAspectRatio="xMidYMid meet">
<metadata>
Created by potrace 1.16, written by Peter Selinger 2001-2019
</metadata>
<g transform="translate(0.000000,640.000000) scale(0.100000,-0.100000)"
fill="#000000" stroke="none">
<path d="M0 3200 l0 -3200 3200 0 3200 0 0 3200 0 3200 -3200 0 -3200 0 0
-3200z m970 1947 c0 -2 -17 -19 -37 -38 l-38 -34 34 38 c33 34 41 42 41 34z
m4505 -37 c21 -22 37 -40 34 -40 -3 0 -23 18 -44 40 -21 22 -37 40 -34 40 3 0
23 -18 44 -40z m-3955 -270 l0 -180 -245 0 -245 0 0 115 c0 80 4 124 14 143
18 35 64 78 96 91 14 5 105 10 203 10 l177 1 0 -180z m1140 0 l0 -180 -370 0
-370 0 0 180 0 180 370 0 370 0 0 -180z m1130 0 l0 -180 -365 0 -365 0 0 180
0 180 365 0 365 0 0 -180z m1140 0 l0 -180 -370 0 -370 0 0 180 0 180 370 0
370 0 0 -180z m440 -67 c0 -106 -1 -113 -20 -113 -19 0 -20 7 -20 148 l1 147
19 -35 c16 -28 19 -56 20 -147z m-4543 135 c-3 -8 -6 -5 -6 6 -1 11 2 17 5 13
3 -3 4 -12 1 -19z m4750 -10 c-3 -7 -5 -2 -5 12 0 14 2 19 5 13 2 -7 2 -19 0
-25z m-3968 -3272 c-3 -3 -24 -6 -47 -7 l-42 -3 0 -178 0 -178 -181 0 c-169 0
-184 1 -221 22 -22 13 -51 41 -64 64 -22 37 -24 52 -24 162 l0 122 292 0 c160
0 289 -2 287 -4z m1096 -4 l-40 -7 -3 -177 -2 -178 -370 0 -370 0 0 183 0 182
413 2 c226 1 394 -1 372 -5z m1175 5 c-3 -3 -25 -7 -48 -8 l-42 -3 0 -178 0
-178 -365 0 -365 0 0 183 0 182 413 4 c226 2 410 1 407 -2z m1095 -5 l-40 -7
-3 -177 -2 -178 -370 0 -370 0 0 183 0 182 413 2 c226 1 394 -1 372 -5z m395
-113 c0 -73 -5 -121 -14 -144 -8 -19 -17 -35 -20 -35 -4 0 -6 67 -6 149 0 144
1 149 20 144 18 -5 20 -14 20 -114z m207 -151 c-3 -8 -6 -5 -6 6 -1 11 2 17 5
13 3 -3 4 -12 1 -19z m-36 -101 c-10 -9 -11 -8 -5 6 3 10 9 15 12 12 3 -3 0
-11 -7 -18z m-4640 -54 c13 -16 12 -17 -3 -4 -10 7 -18 15 -18 17 0 8 8 3 21
-13z m4616 2 c0 -8 -7 -15 -15 -15 -12 0 -12 3 -2 15 7 8 13 15 15 15 1 0 2
-7 2 -15z m-4546 -72 c13 -16 12 -17 -3 -4 -17 13 -22 21 -14 21 2 0 10 -8 17
-17z m4479 13 c0 -2 -8 -10 -17 -17 -16 -13 -17 -12 -4 4 13 16 21 21 21 13z
m-4277 -93 c-7 -2 -21 -2 -30 0 -10 3 -4 5 12 5 17 0 24 -2 18 -5z"/>
</g>
</svg>
