<?xml version="1.0" standalone="no"?>
<!DOCTYPE svg PUBLIC "-//W3C//DTD SVG 20010904//EN"
 "http://www.w3.org/TR/2001/REC-SVG-20010904/DTD/svg10.dtd">
<svg version="1.0" xmlns="http://www.w3.org/2000/svg"
 width="640.000000pt" height="640.000000pt" viewBox="0 0 640.000000 640.000000"
 preserveAspectRatio="xMidYMid meet">
<metadata>
Created by potrace 1.16, written by Peter Selinger 2001-2019
</metadata>
<g transform="translate(0.000000,640.000000) scale(0.100000,-0.100000)"
fill="#000000" stroke="none">
<path d="M0 3200 l0 -3200 3200 0 3200 0 0 3200 0 3200 -3200 0 -3200 0 0
-3200z m970 1947 c0 -2 -17 -19 -37 -38 l-38 -34 34 38 c33 34 41 42 41 34z
m4505 -37 c21 -22 37 -40 34 -40 -3 0 -23 18 -44 40 -21 22 -37 40 -34 40 3 0
23 -18 44 -40z m-3955 -270 l0 -180 -245 0 -245 0 0 115 c0 80 4 124 14 143
18 35 64 78 96 91 14 5 105 10 203 10 l177 1 0 -180z m1140 0 l0 -180 -410 0
-410 0 0 180 0 180 410 0 410 0 0 -180z m1130 0 l0 -180 -410 0 -410 0 0 180
0 180 410 0 410 0 0 -180z m1140 0 l0 -180 -410 0 -410 0 0 180 0 180 410 0
410 0 0 -180z m361 147 c18 -12 44 -40 56 -62 20 -35 23 -54 23 -152 l0 -113
-65 0 -65 0 0 175 c0 96 4 175 9 175 4 0 23 -10 42 -23z m-4464 -79 c-3 -8 -6
-5 -6 6 -1 11 2 17 5 13 3 -3 4 -12 1 -19z m4750 -10 c-3 -7 -5 -2 -5 12 0 14
2 19 5 13 2 -7 2 -19 0 -25z m-3968 -3272 c-3 -3 -24 -6 -47 -7 l-42 -3 0
-178 0 -178 -181 0 c-169 0 -184 1 -221 22 -22 13 -51 41 -64 64 -22 37 -24
52 -24 162 l0 122 292 0 c160 0 289 -2 287 -4z m1096 -4 l-40 -7 -3 -177 -2
-178 -410 0 -410 0 0 183 0 182 453 2 c248 1 434 -2 412 -5z m1175 5 c-3 -3
-25 -7 -48 -8 l-42 -3 0 -178 0 -178 -410 0 -409 0 -3 183 -3 182 460 4 c253
2 458 1 455 -2z m1095 -5 l-40 -7 -3 -177 -2 -178 -410 0 -410 0 0 183 0 182
453 2 c248 1 434 -2 412 -5z m395 -113 c0 -70 -5 -121 -14 -143 -14 -34 -81
-96 -103 -96 -10 0 -13 41 -13 178 l0 177 65 -3 65 -4 0 -109z m207 -151 c-3
-8 -6 -5 -6 6 -1 11 2 17 5 13 3 -3 4 -12 1 -19z m-36 -101 c-10 -9 -11 -8 -5
6 3 10 9 15 12 12 3 -3 0 -11 -7 -18z m-4640 -54 c13 -16 12 -17 -3 -4 -10 7
-18 15 -18 17 0 8 8 3 21 -13z m4616 3 c0 -8 -9 -17 -20 -20 -18 -4 -18 -4 -1
15 21 23 21 23 21 5z m-4552 -66 c10 -11 16 -20 13 -20 -3 0 -13 9 -23 20 -10
11 -16 20 -13 20 3 0 13 -9 23 -20z m4482 2 c-10 -10 -15 -21 -12 -24 3 -2 -2
-5 -10 -5 -12 0 -10 6 7 24 25 27 39 32 15 5z m-4274 -89 c-7 -2 -21 -2 -30 0
-10 3 -4 5 12 5 17 0 24 -2 18 -5z"/>
</g>
</svg>
