<?xml version="1.0" standalone="no"?>
<!DOCTYPE svg PUBLIC "-//W3C//DTD SVG 20010904//EN"
 "http://www.w3.org/TR/2001/REC-SVG-20010904/DTD/svg10.dtd">
<svg version="1.0" xmlns="http://www.w3.org/2000/svg"
 width="640.000000pt" height="640.000000pt" viewBox="0 0 640.000000 640.000000"
 preserveAspectRatio="xMidYMid meet">
<metadata>
Created by potrace 1.16, written by Peter Selinger 2001-2019
</metadata>
<g transform="translate(0.000000,640.000000) scale(0.100000,-0.100000)"
fill="#000000" stroke="none">
<path d="M0 3200 l0 -3200 3200 0 3200 0 0 3200 0 3200 -3200 0 -3200 0 0
-3200z m1343 2023 c-7 -2 -19 -2 -25 0 -7 3 -2 5 12 5 14 0 19 -2 13 -5z m90
0 c-7 -2 -21 -2 -30 0 -10 3 -4 5 12 5 17 0 24 -2 18 -5z m1040 0 c-7 -2 -19
-2 -25 0 -7 3 -2 5 12 5 14 0 19 -2 13 -5z m90 0 c-7 -2 -19 -2 -25 0 -7 3 -2
5 12 5 14 0 19 -2 13 -5z m1050 0 c-7 -2 -19 -2 -25 0 -7 3 -2 5 12 5 14 0 19
-2 13 -5z m90 0 c-7 -2 -21 -2 -30 0 -10 3 -4 5 12 5 17 0 24 -2 18 -5z m1040
0 c-7 -2 -19 -2 -25 0 -7 3 -2 5 12 5 14 0 19 -2 13 -5z m90 0 c-7 -2 -19 -2
-25 0 -7 3 -2 5 12 5 14 0 19 -2 13 -5z m-3513 -383 l0 -180 -95 0 -95 0 0
174 0 175 28 4 c15 2 57 5 95 6 l67 1 0 -180z m200 0 l0 -180 -90 0 -90 0 0
180 0 180 90 0 90 0 0 -180z m930 0 l0 -180 -90 0 -90 0 0 180 0 180 90 0 90
0 0 -180z m210 0 l0 -180 -95 0 -95 0 0 180 0 180 95 0 95 0 0 -180z m930 0
l0 -180 -90 0 -90 0 0 180 0 180 90 0 90 0 0 -180z m200 0 l0 -180 -90 0 -90
0 0 180 0 180 90 0 90 0 0 -180z m930 0 l0 -180 -90 0 -90 0 0 180 0 180 90 0
90 0 0 -180z m210 0 l0 -180 -95 0 -95 0 0 180 0 180 95 0 95 0 0 -180z
m-3610 -3402 l0 -180 -89 4 c-49 1 -92 5 -94 8 -8 8 -9 45 -8 205 l1 150 95
-3 95 -3 0 -181z m289 188 c-3 -3 -24 -6 -47 -7 l-42 -3 0 -178 0 -178 -90 0
-90 0 0 185 0 185 137 0 c75 0 134 -2 132 -4z m841 -187 l0 -179 -90 0 -90 0
0 183 0 182 90 -3 90 -3 0 -180z m255 182 l-40 -6 -3 -177 -2 -178 -95 0 -95
0 0 178 c0 98 3 182 7 185 3 4 65 6 137 6 74 -1 114 -4 91 -8z m1174 5 c-3 -3
-24 -6 -47 -7 l-42 -3 0 -178 0 -178 -90 0 -90 0 0 185 0 185 137 0 c75 0 134
-2 132 -4z m841 -187 l0 -179 -90 0 -90 0 0 183 0 182 90 -3 90 -3 0 -180z
m255 182 l-40 -6 -3 -177 -2 -178 -95 0 -95 0 0 178 c0 98 3 182 7 185 3 4 65
6 137 6 74 -1 114 -4 91 -8z m-1385 -181 l0 -180 -90 0 -90 0 0 180 0 180 90
0 90 0 0 -180z"/>
</g>
</svg>
