<?xml version="1.0" standalone="no"?>
<!DOCTYPE svg PUBLIC "-//W3C//DTD SVG 20010904//EN"
 "http://www.w3.org/TR/2001/REC-SVG-20010904/DTD/svg10.dtd">
<svg version="1.0" xmlns="http://www.w3.org/2000/svg"
 width="640.000000pt" height="640.000000pt" viewBox="0 0 640.000000 640.000000"
 preserveAspectRatio="xMidYMid meet">
<metadata>
Created by potrace 1.16, written by Peter Selinger 2001-2019
</metadata>
<g transform="translate(0.000000,640.000000) scale(0.100000,-0.100000)"
fill="#000000" stroke="none">
<path d="M0 3200 l0 -3200 3200 0 3200 0 0 3200 0 3200 -3200 0 -3200 0 0
-3200z m970 1947 c0 -2 -17 -19 -37 -38 l-38 -34 34 38 c33 34 41 42 41 34z
m4505 -37 c21 -22 37 -40 34 -40 -3 0 -23 18 -44 40 -21 22 -37 40 -34 40 3 0
23 -18 44 -40z m-3955 -270 l0 -180 -245 0 -245 0 0 115 c0 80 4 124 14 143
18 35 64 78 96 91 14 5 105 10 203 10 l177 1 0 -180z m1140 0 l0 -180 -495 0
-495 0 0 180 0 180 495 0 495 0 0 -180z m1130 0 l0 -180 -495 0 -495 0 0 180
0 180 495 0 495 0 0 -180z m1140 0 l0 -180 -495 0 -495 0 0 180 0 180 495 0
495 0 0 -180z m315 169 c44 -12 89 -49 111 -91 10 -19 14 -63 14 -143 l0 -115
-150 0 -150 0 0 180 0 180 68 0 c37 0 85 -5 107 -11z m-4418 -111 c-3 -7 -5
-2 -5 12 0 14 2 19 5 13 2 -7 2 -19 0 -25z m4750 0 c-3 -7 -5 -2 -5 12 0 14 2
19 5 13 2 -7 2 -19 0 -25z m-3968 -3272 c-3 -3 -24 -6 -47 -7 l-42 -3 0 -178
0 -178 -181 0 c-169 0 -184 1 -221 22 -22 13 -51 41 -64 64 -22 37 -24 52 -24
162 l0 122 292 0 c160 0 289 -2 287 -4z m1096 -5 l-40 -6 -3 -177 -2 -178
-495 0 -495 0 0 180 0 179 103 4 c187 5 973 4 932 -2z m1175 6 c-3 -3 -25 -7
-48 -8 l-42 -3 0 -178 0 -178 -495 0 -495 0 0 183 0 182 543 4 c298 2 540 1
537 -2z m1095 -6 l-40 -6 -3 -177 -2 -178 -495 0 -495 0 0 180 0 179 103 4
c187 5 973 4 932 -2z m395 -114 c0 -110 -2 -124 -25 -163 -36 -61 -89 -84
-193 -84 l-82 0 0 183 0 182 150 2 150 1 0 -121z m-4543 -149 c-3 -8 -6 -5 -6
6 -1 11 2 17 5 13 3 -3 4 -12 1 -19z m4750 0 c-3 -8 -6 -5 -6 6 -1 11 2 17 5
13 3 -3 4 -12 1 -19z m-4713 -94 c3 -8 2 -12 -4 -9 -6 3 -10 10 -10 16 0 14 7
11 14 -7z m4677 -7 c-10 -9 -11 -8 -5 6 3 10 9 15 12 12 3 -3 0 -11 -7 -18z
m-4636 -57 c10 -11 16 -20 13 -20 -3 0 -13 9 -23 20 -10 11 -16 20 -13 20 3 0
13 -9 23 -20z m4612 6 c0 -8 -9 -17 -20 -20 -18 -4 -18 -4 -1 15 21 23 21 23
21 5z m-4552 -66 c10 -11 16 -20 13 -20 -3 0 -13 9 -23 20 -10 11 -16 20 -13
20 3 0 13 -9 23 -20z m4482 2 c-10 -10 -14 -22 -10 -26 5 -4 4 -7 -2 -6 -22 5
-36 -1 -29 -12 5 -7 3 -8 -5 -3 -9 5 -3 16 21 36 38 33 48 37 25 11z m-137
-82 c0 -5 -2 -10 -4 -10 -3 0 -8 5 -11 10 -3 6 -1 10 4 10 6 0 11 -4 11 -10z
m-4137 -7 c-7 -2 -21 -2 -30 0 -10 3 -4 5 12 5 17 0 24 -2 18 -5z m4100 0 c-7
-2 -21 -2 -30 0 -10 3 -4 5 12 5 17 0 24 -2 18 -5z"/>
</g>
</svg>
