<?xml version="1.0" standalone="no"?>
<!DOCTYPE svg PUBLIC "-//W3C//DTD SVG 20010904//EN"
 "http://www.w3.org/TR/2001/REC-SVG-20010904/DTD/svg10.dtd">
<svg version="1.0" xmlns="http://www.w3.org/2000/svg"
 width="640.000000pt" height="640.000000pt" viewBox="0 0 640.000000 640.000000"
 preserveAspectRatio="xMidYMid meet">
<metadata>
Created by potrace 1.16, written by Peter Selinger 2001-2019
</metadata>
<g transform="translate(0.000000,640.000000) scale(0.100000,-0.100000)"
fill="#000000" stroke="none">
<path d="M0 3200 l0 -3200 3200 0 3200 0 0 3200 0 3200 -3200 0 -3200 0 0
-3200z m1320 1640 l0 -180 -50 0 -50 0 0 180 0 180 50 0 50 0 0 -180z m200 0
l0 -180 -45 0 -45 0 0 180 0 180 45 0 45 0 0 -180z m930 0 l0 -180 -50 0 -50
0 0 180 0 180 50 0 50 0 0 -180z m210 0 l0 -180 -50 0 -50 0 0 180 0 180 50 0
50 0 0 -180z m930 0 l0 -180 -50 0 -50 0 0 180 0 180 50 0 50 0 0 -180z m200
0 l0 -180 -45 0 -45 0 0 180 0 180 45 0 45 0 0 -180z m930 0 l0 -180 -45 0
-45 0 0 180 0 180 45 0 45 0 0 -180z m210 0 l0 -180 -50 0 -50 0 0 180 0 180
50 0 50 0 0 -180z m-3610 -3401 l0 -179 -50 0 -50 0 0 183 0 182 50 -3 50 -4
0 -179z m200 6 l0 -185 -45 0 -45 0 0 185 0 185 45 0 45 0 0 -185z m930 -6 l0
-179 -50 0 -50 0 0 183 0 182 50 -3 50 -4 0 -179z m213 179 c-2 -5 -3 -87 -3
-183 l0 -175 -50 0 -50 0 0 186 0 185 53 -3 c28 -2 51 -6 50 -10z m888 2 l39
0 0 -180 0 -180 -50 0 -49 0 -3 185 c-2 151 -1 184 10 180 8 -3 31 -5 53 -5z
m239 -175 l0 -185 -45 0 -45 0 0 185 0 185 45 0 45 0 0 -185z m1143 173 c-2
-5 -3 -87 -3 -183 l0 -175 -50 0 -50 0 0 186 0 185 53 -3 c28 -2 51 -6 50 -10z
m-213 -178 l0 -180 -45 0 -45 0 0 180 0 180 45 0 45 0 0 -180z"/>
</g>
</svg>
