<?xml version="1.0" standalone="no"?>
<!DOCTYPE svg PUBLIC "-//W3C//DTD SVG 20010904//EN"
 "http://www.w3.org/TR/2001/REC-SVG-20010904/DTD/svg10.dtd">
<svg version="1.0" xmlns="http://www.w3.org/2000/svg"
 width="640.000000pt" height="640.000000pt" viewBox="0 0 640.000000 640.000000"
 preserveAspectRatio="xMidYMid meet">
<metadata>
Created by potrace 1.16, written by Peter Selinger 2001-2019
</metadata>
<g transform="translate(0.000000,640.000000) scale(0.100000,-0.100000)"
fill="#000000" stroke="none">
<path d="M0 3200 l0 -3200 3200 0 3200 0 0 3200 0 3200 -3200 0 -3200 0 0
-3200z m970 1947 c0 -2 -17 -19 -37 -38 l-38 -34 34 38 c33 34 41 42 41 34z
m4505 -37 c21 -22 37 -40 34 -40 -3 0 -23 18 -44 40 -21 22 -37 40 -34 40 3 0
23 -18 44 -40z m-3955 -270 l0 -180 -245 0 -245 0 0 115 c0 80 4 124 14 143
18 35 64 78 96 91 14 5 105 10 203 10 l177 1 0 -180z m1140 0 l0 -180 -455 0
-455 0 0 180 0 180 455 0 455 0 0 -180z m1130 0 l0 -180 -450 0 -450 0 0 180
0 180 450 0 450 0 0 -180z m1140 0 l0 -180 -455 0 -455 0 0 180 0 180 455 0
455 0 0 -180z m323 166 c90 -33 117 -87 117 -236 l0 -110 -105 0 -105 0 0 180
0 180 28 0 c15 -1 44 -7 65 -14z m-4426 -98 c-3 -8 -6 -5 -6 6 -1 11 2 17 5
13 3 -3 4 -12 1 -19z m4750 -10 c-3 -7 -5 -2 -5 12 0 14 2 19 5 13 2 -7 2 -19
0 -25z m-3968 -3272 c-3 -3 -24 -6 -47 -7 l-42 -3 0 -178 0 -178 -181 0 c-169
0 -184 1 -221 22 -22 13 -51 41 -64 64 -22 37 -24 52 -24 162 l0 122 292 0
c160 0 289 -2 287 -4z m1096 -4 l-40 -7 -3 -177 -2 -178 -455 0 -455 0 0 183
0 182 498 2 c273 1 479 -2 457 -5z m1175 5 c-3 -3 -25 -7 -48 -8 l-42 -3 0
-178 0 -178 -450 0 -450 0 0 183 0 182 498 4 c273 2 495 1 492 -2z m1095 -5
l-40 -7 -3 -177 -2 -178 -455 0 -455 0 0 183 0 182 498 2 c273 1 479 -2 457
-5z m378 -264 c-31 -53 -86 -90 -143 -96 l-50 -5 0 181 0 181 103 3 102 3 3
-119 c2 -99 0 -123 -15 -148z m224 0 c-3 -8 -6 -5 -6 6 -1 11 2 17 5 13 3 -3
4 -12 1 -19z m-4713 -94 c3 -8 2 -12 -4 -9 -6 3 -10 10 -10 16 0 14 7 11 14
-7z m4677 -7 c-10 -9 -11 -8 -5 6 3 10 9 15 12 12 3 -3 0 -11 -7 -18z m-4636
-57 c10 -11 16 -20 13 -20 -3 0 -13 9 -23 20 -10 11 -16 20 -13 20 3 0 13 -9
23 -20z m4612 6 c0 -8 -9 -17 -20 -20 -18 -4 -18 -4 -1 15 21 23 21 23 21 5z
m-4552 -66 c10 -11 16 -20 13 -20 -3 0 -13 9 -23 20 -10 11 -16 20 -13 20 3 0
13 -9 23 -20z m4482 2 c-10 -10 -14 -22 -10 -26 5 -4 4 -7 -2 -6 -22 5 -36 -1
-29 -12 5 -7 3 -8 -5 -3 -9 5 -3 16 21 36 38 33 48 37 25 11z m-4274 -89 c-7
-2 -21 -2 -30 0 -10 3 -4 5 12 5 17 0 24 -2 18 -5z m4100 0 c-7 -2 -21 -2 -30
0 -10 3 -4 5 12 5 17 0 24 -2 18 -5z"/>
</g>
</svg>
