<?xml version="1.0" standalone="no"?>
<!DOCTYPE svg PUBLIC "-//W3C//DTD SVG 20010904//EN"
 "http://www.w3.org/TR/2001/REC-SVG-20010904/DTD/svg10.dtd">
<svg version="1.0" xmlns="http://www.w3.org/2000/svg"
 width="640.000000pt" height="640.000000pt" viewBox="0 0 640.000000 640.000000"
 preserveAspectRatio="xMidYMid meet">
<metadata>
Created by potrace 1.16, written by Peter Selinger 2001-2019
</metadata>
<g transform="translate(0.000000,640.000000) scale(0.100000,-0.100000)"
fill="#000000" stroke="none">
<path d="M0 3200 l0 -3200 3200 0 3200 0 0 3200 0 3200 -3200 0 -3200 0 0
-3200z m1790 1640 l0 -180 -320 0 -320 0 0 174 c0 158 2 175 18 179 9 3 153 5
320 6 l302 1 0 -180z m1140 0 l0 -180 -320 0 -320 0 0 180 0 180 320 0 320 0
0 -180z m1130 0 l0 -180 -320 0 -320 0 0 180 0 180 320 0 320 0 0 -180z m1140
0 l0 -180 -325 0 -325 0 0 180 0 180 325 0 325 0 0 -180z m-3410 -3394 l0
-186 -317 2 -318 3 -3 180 -2 180 320 4 320 4 0 -187z m1140 -1 l0 -185 -320
0 -320 0 0 180 0 179 103 4 c56 1 200 4 320 5 l217 2 0 -185z m1130 1 l0 -186
-320 0 -320 0 0 183 0 182 320 4 320 4 0 -187z m1140 0 l0 -186 -325 0 -324 0
-3 183 -3 182 328 4 327 3 0 -186z"/>
</g>
</svg>
