<?xml version="1.0" standalone="no"?>
<!DOCTYPE svg PUBLIC "-//W3C//DTD SVG 20010904//EN"
 "http://www.w3.org/TR/2001/REC-SVG-20010904/DTD/svg10.dtd">
<svg version="1.0" xmlns="http://www.w3.org/2000/svg"
 width="640.000000pt" height="640.000000pt" viewBox="0 0 640.000000 640.000000"
 preserveAspectRatio="xMidYMid meet">
<metadata>
Created by potrace 1.16, written by Peter Selinger 2001-2019
</metadata>
<g transform="translate(0.000000,640.000000) scale(0.100000,-0.100000)"
fill="#000000" stroke="none">
<path d="M0 3200 l0 -3200 3200 0 3200 0 0 3200 0 3200 -3200 0 -3200 0 0
-3200z m1790 1640 l0 -180 -235 0 -235 0 0 180 0 180 235 0 235 0 0 -180z
m1140 0 l0 -180 -235 0 -235 0 0 180 0 180 235 0 235 0 0 -180z m1130 0 l0
-180 -235 0 -235 0 0 180 0 180 235 0 235 0 0 -180z m1140 0 l0 -180 -235 0
-235 0 0 180 0 180 235 0 235 0 0 -180z m-3410 -3394 l0 -186 -235 0 -235 0 0
183 0 182 235 4 235 3 0 -186z m1140 0 l0 -186 -235 0 -235 0 0 183 0 182 235
4 235 3 0 -186z m1130 0 l0 -186 -235 0 -235 0 0 183 0 182 235 4 235 3 0
-186z m1140 -1 l0 -185 -235 0 -235 0 0 180 0 179 103 4 c56 1 162 4 235 5
l132 2 0 -185z"/>
</g>
</svg>
