<?xml version="1.0" standalone="no"?>
<!DOCTYPE svg PUBLIC "-//W3C//DTD SVG 20010904//EN"
 "http://www.w3.org/TR/2001/REC-SVG-20010904/DTD/svg10.dtd">
<svg version="1.0" xmlns="http://www.w3.org/2000/svg"
 width="640.000000pt" height="640.000000pt" viewBox="0 0 640.000000 640.000000"
 preserveAspectRatio="xMidYMid meet">
<metadata>
Created by potrace 1.16, written by Peter Selinger 2001-2019
</metadata>
<g transform="translate(0.000000,640.000000) scale(0.100000,-0.100000)"
fill="#000000" stroke="none">
<path d="M0 3200 l0 -3200 3200 0 3200 0 0 3200 0 3200 -3200 0 -3200 0 0
-3200z m1590 1640 l0 -180 -90 0 -90 0 0 180 0 180 90 0 90 0 0 -180z m200 0
l0 -180 -90 0 -90 0 0 180 0 180 90 0 90 0 0 -180z m940 0 l0 -180 -95 0 -95
0 0 180 0 180 95 0 95 0 0 -180z m200 0 l0 -180 -90 0 -90 0 0 180 0 180 90 0
90 0 0 -180z m930 0 l0 -180 -90 0 -90 0 0 180 0 180 90 0 90 0 0 -180z m200
0 l0 -180 -90 0 -90 0 0 180 0 180 90 0 90 0 0 -180z m930 0 l0 -180 -90 0
-90 0 0 180 0 180 90 0 90 0 0 -180z m210 0 l0 -180 -90 0 -90 0 0 180 0 180
90 0 90 0 0 -180z m-3610 -3401 l0 -179 -90 0 -90 0 0 183 0 182 90 -3 90 -3
0 -180z m200 6 l0 -185 -90 0 -90 0 0 185 0 185 90 0 90 0 0 -185z m940 -6 l0
-179 -95 0 -95 0 0 183 0 182 95 -3 95 -3 0 -180z m200 6 l0 -185 -90 0 -90 0
0 185 0 185 90 0 90 0 0 -185z m930 -6 l0 -179 -90 0 -90 0 0 183 0 182 90 -3
90 -3 0 -180z m200 6 l0 -185 -90 0 -90 0 0 185 0 185 90 0 90 0 0 -185z m930
-6 l0 -179 -90 0 -90 0 0 183 0 182 90 -3 90 -3 0 -180z m210 6 l0 -185 -90 0
-90 0 0 185 0 185 90 0 90 0 0 -185z"/>
</g>
</svg>
